G04 #@! TF.GenerationSoftware,KiCad,Pcbnew,5.1.6-c6e7f7d~86~ubuntu18.04.1*
G04 #@! TF.CreationDate,2020-06-18T14:32:00+02:00*
G04 #@! TF.ProjectId,pcb,7063622e-6b69-4636-9164-5f7063625858,rev?*
G04 #@! TF.SameCoordinates,Original*
G04 #@! TF.FileFunction,Copper,L1,Top*
G04 #@! TF.FilePolarity,Positive*
%FSLAX46Y46*%
G04 Gerber Fmt 4.6, Leading zero omitted, Abs format (unit mm)*
G04 Created by KiCad (PCBNEW 5.1.6-c6e7f7d~86~ubuntu18.04.1) date 2020-06-18 14:32:00*
%MOMM*%
%LPD*%
G01*
G04 APERTURE LIST*
G04 #@! TA.AperFunction,ComponentPad*
%ADD10O,1.350000X1.350000*%
G04 #@! TD*
G04 #@! TA.AperFunction,ComponentPad*
%ADD11R,1.350000X1.350000*%
G04 #@! TD*
G04 #@! TA.AperFunction,SMDPad,CuDef*
%ADD12R,1.900000X2.500000*%
G04 #@! TD*
G04 #@! TA.AperFunction,SMDPad,CuDef*
%ADD13R,1.550000X1.300000*%
G04 #@! TD*
G04 #@! TA.AperFunction,ComponentPad*
%ADD14O,1.700000X1.700000*%
G04 #@! TD*
G04 #@! TA.AperFunction,ComponentPad*
%ADD15R,1.700000X1.700000*%
G04 #@! TD*
G04 #@! TA.AperFunction,SMDPad,CuDef*
%ADD16R,1.600000X0.550000*%
G04 #@! TD*
G04 #@! TA.AperFunction,SMDPad,CuDef*
%ADD17R,0.550000X1.600000*%
G04 #@! TD*
G04 #@! TA.AperFunction,ViaPad*
%ADD18C,0.800000*%
G04 #@! TD*
G04 #@! TA.AperFunction,Conductor*
%ADD19C,0.250000*%
G04 #@! TD*
G04 APERTURE END LIST*
D10*
G04 #@! TO.P,J2,7*
G04 #@! TO.N,GND*
X49500000Y-57600000D03*
G04 #@! TO.P,J2,6*
G04 #@! TO.N,Net-(J2-Pad6)*
X49500000Y-59600000D03*
G04 #@! TO.P,J2,5*
G04 #@! TO.N,Net-(J1-Pad2)*
X49500000Y-61600000D03*
G04 #@! TO.P,J2,4*
G04 #@! TO.N,Net-(J2-Pad4)*
X49500000Y-63600000D03*
G04 #@! TO.P,J2,3*
G04 #@! TO.N,Net-(J2-Pad3)*
X49500000Y-65600000D03*
G04 #@! TO.P,J2,2*
G04 #@! TO.N,Net-(J2-Pad2)*
X49500000Y-67600000D03*
D11*
G04 #@! TO.P,J2,1*
G04 #@! TO.N,Net-(J1-Pad1)*
X49500000Y-69600000D03*
G04 #@! TD*
D12*
G04 #@! TO.P,Y1,2*
G04 #@! TO.N,Net-(U1-Pad7)*
X31800000Y-56300000D03*
G04 #@! TO.P,Y1,1*
G04 #@! TO.N,Net-(U1-Pad8)*
X27400000Y-56300000D03*
G04 #@! TD*
D13*
G04 #@! TO.P,SW2,2*
G04 #@! TO.N,Net-(J1-Pad1)*
X27750000Y-71000000D03*
G04 #@! TO.P,SW2,1*
G04 #@! TO.N,Net-(R12-Pad2)*
X27750000Y-66500000D03*
X19800000Y-66500000D03*
G04 #@! TO.P,SW2,2*
G04 #@! TO.N,Net-(J1-Pad1)*
X19800000Y-71000000D03*
G04 #@! TD*
G04 #@! TO.P,SW1,2*
G04 #@! TO.N,Net-(J1-Pad1)*
X15750000Y-71000000D03*
G04 #@! TO.P,SW1,1*
G04 #@! TO.N,Net-(R13-Pad2)*
X15750000Y-66500000D03*
X7800000Y-66500000D03*
G04 #@! TO.P,SW1,2*
G04 #@! TO.N,Net-(J1-Pad1)*
X7800000Y-71000000D03*
G04 #@! TD*
G04 #@! TO.P,R13,2*
G04 #@! TO.N,Net-(R13-Pad2)*
G04 #@! TA.AperFunction,SMDPad,CuDef*
G36*
G01*
X23750000Y-64043750D02*
X23750000Y-64556250D01*
G75*
G02*
X23531250Y-64775000I-218750J0D01*
G01*
X23093750Y-64775000D01*
G75*
G02*
X22875000Y-64556250I0J218750D01*
G01*
X22875000Y-64043750D01*
G75*
G02*
X23093750Y-63825000I218750J0D01*
G01*
X23531250Y-63825000D01*
G75*
G02*
X23750000Y-64043750I0J-218750D01*
G01*
G37*
G04 #@! TD.AperFunction*
G04 #@! TO.P,R13,1*
G04 #@! TO.N,Net-(R13-Pad1)*
G04 #@! TA.AperFunction,SMDPad,CuDef*
G36*
G01*
X25325000Y-64043750D02*
X25325000Y-64556250D01*
G75*
G02*
X25106250Y-64775000I-218750J0D01*
G01*
X24668750Y-64775000D01*
G75*
G02*
X24450000Y-64556250I0J218750D01*
G01*
X24450000Y-64043750D01*
G75*
G02*
X24668750Y-63825000I218750J0D01*
G01*
X25106250Y-63825000D01*
G75*
G02*
X25325000Y-64043750I0J-218750D01*
G01*
G37*
G04 #@! TD.AperFunction*
G04 #@! TD*
G04 #@! TO.P,R12,2*
G04 #@! TO.N,Net-(R12-Pad2)*
G04 #@! TA.AperFunction,SMDPad,CuDef*
G36*
G01*
X28550000Y-64043750D02*
X28550000Y-64556250D01*
G75*
G02*
X28331250Y-64775000I-218750J0D01*
G01*
X27893750Y-64775000D01*
G75*
G02*
X27675000Y-64556250I0J218750D01*
G01*
X27675000Y-64043750D01*
G75*
G02*
X27893750Y-63825000I218750J0D01*
G01*
X28331250Y-63825000D01*
G75*
G02*
X28550000Y-64043750I0J-218750D01*
G01*
G37*
G04 #@! TD.AperFunction*
G04 #@! TO.P,R12,1*
G04 #@! TO.N,Net-(R12-Pad1)*
G04 #@! TA.AperFunction,SMDPad,CuDef*
G36*
G01*
X30125000Y-64043750D02*
X30125000Y-64556250D01*
G75*
G02*
X29906250Y-64775000I-218750J0D01*
G01*
X29468750Y-64775000D01*
G75*
G02*
X29250000Y-64556250I0J218750D01*
G01*
X29250000Y-64043750D01*
G75*
G02*
X29468750Y-63825000I218750J0D01*
G01*
X29906250Y-63825000D01*
G75*
G02*
X30125000Y-64043750I0J-218750D01*
G01*
G37*
G04 #@! TD.AperFunction*
G04 #@! TD*
G04 #@! TO.P,R11,2*
G04 #@! TO.N,/NL11*
G04 #@! TA.AperFunction,SMDPad,CuDef*
G36*
G01*
X10550000Y-57743750D02*
X10550000Y-58256250D01*
G75*
G02*
X10331250Y-58475000I-218750J0D01*
G01*
X9893750Y-58475000D01*
G75*
G02*
X9675000Y-58256250I0J218750D01*
G01*
X9675000Y-57743750D01*
G75*
G02*
X9893750Y-57525000I218750J0D01*
G01*
X10331250Y-57525000D01*
G75*
G02*
X10550000Y-57743750I0J-218750D01*
G01*
G37*
G04 #@! TD.AperFunction*
G04 #@! TO.P,R11,1*
G04 #@! TO.N,Net-(R11-Pad1)*
G04 #@! TA.AperFunction,SMDPad,CuDef*
G36*
G01*
X12125000Y-57743750D02*
X12125000Y-58256250D01*
G75*
G02*
X11906250Y-58475000I-218750J0D01*
G01*
X11468750Y-58475000D01*
G75*
G02*
X11250000Y-58256250I0J218750D01*
G01*
X11250000Y-57743750D01*
G75*
G02*
X11468750Y-57525000I218750J0D01*
G01*
X11906250Y-57525000D01*
G75*
G02*
X12125000Y-57743750I0J-218750D01*
G01*
G37*
G04 #@! TD.AperFunction*
G04 #@! TD*
G04 #@! TO.P,R10,2*
G04 #@! TO.N,/NL10*
G04 #@! TA.AperFunction,SMDPad,CuDef*
G36*
G01*
X51866250Y-29740000D02*
X51353750Y-29740000D01*
G75*
G02*
X51135000Y-29521250I0J218750D01*
G01*
X51135000Y-29083750D01*
G75*
G02*
X51353750Y-28865000I218750J0D01*
G01*
X51866250Y-28865000D01*
G75*
G02*
X52085000Y-29083750I0J-218750D01*
G01*
X52085000Y-29521250D01*
G75*
G02*
X51866250Y-29740000I-218750J0D01*
G01*
G37*
G04 #@! TD.AperFunction*
G04 #@! TO.P,R10,1*
G04 #@! TO.N,Net-(R10-Pad1)*
G04 #@! TA.AperFunction,SMDPad,CuDef*
G36*
G01*
X51866250Y-31315000D02*
X51353750Y-31315000D01*
G75*
G02*
X51135000Y-31096250I0J218750D01*
G01*
X51135000Y-30658750D01*
G75*
G02*
X51353750Y-30440000I218750J0D01*
G01*
X51866250Y-30440000D01*
G75*
G02*
X52085000Y-30658750I0J-218750D01*
G01*
X52085000Y-31096250D01*
G75*
G02*
X51866250Y-31315000I-218750J0D01*
G01*
G37*
G04 #@! TD.AperFunction*
G04 #@! TD*
G04 #@! TO.P,R9,2*
G04 #@! TO.N,/NL09*
G04 #@! TA.AperFunction,SMDPad,CuDef*
G36*
G01*
X20250000Y-62843750D02*
X20250000Y-63356250D01*
G75*
G02*
X20031250Y-63575000I-218750J0D01*
G01*
X19593750Y-63575000D01*
G75*
G02*
X19375000Y-63356250I0J218750D01*
G01*
X19375000Y-62843750D01*
G75*
G02*
X19593750Y-62625000I218750J0D01*
G01*
X20031250Y-62625000D01*
G75*
G02*
X20250000Y-62843750I0J-218750D01*
G01*
G37*
G04 #@! TD.AperFunction*
G04 #@! TO.P,R9,1*
G04 #@! TO.N,Net-(R9-Pad1)*
G04 #@! TA.AperFunction,SMDPad,CuDef*
G36*
G01*
X21825000Y-62843750D02*
X21825000Y-63356250D01*
G75*
G02*
X21606250Y-63575000I-218750J0D01*
G01*
X21168750Y-63575000D01*
G75*
G02*
X20950000Y-63356250I0J218750D01*
G01*
X20950000Y-62843750D01*
G75*
G02*
X21168750Y-62625000I218750J0D01*
G01*
X21606250Y-62625000D01*
G75*
G02*
X21825000Y-62843750I0J-218750D01*
G01*
G37*
G04 #@! TD.AperFunction*
G04 #@! TD*
G04 #@! TO.P,R8,2*
G04 #@! TO.N,/NL08*
G04 #@! TA.AperFunction,SMDPad,CuDef*
G36*
G01*
X14450000Y-55943750D02*
X14450000Y-56456250D01*
G75*
G02*
X14231250Y-56675000I-218750J0D01*
G01*
X13793750Y-56675000D01*
G75*
G02*
X13575000Y-56456250I0J218750D01*
G01*
X13575000Y-55943750D01*
G75*
G02*
X13793750Y-55725000I218750J0D01*
G01*
X14231250Y-55725000D01*
G75*
G02*
X14450000Y-55943750I0J-218750D01*
G01*
G37*
G04 #@! TD.AperFunction*
G04 #@! TO.P,R8,1*
G04 #@! TO.N,Net-(R8-Pad1)*
G04 #@! TA.AperFunction,SMDPad,CuDef*
G36*
G01*
X16025000Y-55943750D02*
X16025000Y-56456250D01*
G75*
G02*
X15806250Y-56675000I-218750J0D01*
G01*
X15368750Y-56675000D01*
G75*
G02*
X15150000Y-56456250I0J218750D01*
G01*
X15150000Y-55943750D01*
G75*
G02*
X15368750Y-55725000I218750J0D01*
G01*
X15806250Y-55725000D01*
G75*
G02*
X16025000Y-55943750I0J-218750D01*
G01*
G37*
G04 #@! TD.AperFunction*
G04 #@! TD*
G04 #@! TO.P,R7,2*
G04 #@! TO.N,/NL07*
G04 #@! TA.AperFunction,SMDPad,CuDef*
G36*
G01*
X20200000Y-60043750D02*
X20200000Y-60556250D01*
G75*
G02*
X19981250Y-60775000I-218750J0D01*
G01*
X19543750Y-60775000D01*
G75*
G02*
X19325000Y-60556250I0J218750D01*
G01*
X19325000Y-60043750D01*
G75*
G02*
X19543750Y-59825000I218750J0D01*
G01*
X19981250Y-59825000D01*
G75*
G02*
X20200000Y-60043750I0J-218750D01*
G01*
G37*
G04 #@! TD.AperFunction*
G04 #@! TO.P,R7,1*
G04 #@! TO.N,Net-(R7-Pad1)*
G04 #@! TA.AperFunction,SMDPad,CuDef*
G36*
G01*
X21775000Y-60043750D02*
X21775000Y-60556250D01*
G75*
G02*
X21556250Y-60775000I-218750J0D01*
G01*
X21118750Y-60775000D01*
G75*
G02*
X20900000Y-60556250I0J218750D01*
G01*
X20900000Y-60043750D01*
G75*
G02*
X21118750Y-59825000I218750J0D01*
G01*
X21556250Y-59825000D01*
G75*
G02*
X21775000Y-60043750I0J-218750D01*
G01*
G37*
G04 #@! TD.AperFunction*
G04 #@! TD*
G04 #@! TO.P,R6,2*
G04 #@! TO.N,/NL06*
G04 #@! TA.AperFunction,SMDPad,CuDef*
G36*
G01*
X46670000Y-45833750D02*
X46670000Y-46346250D01*
G75*
G02*
X46451250Y-46565000I-218750J0D01*
G01*
X46013750Y-46565000D01*
G75*
G02*
X45795000Y-46346250I0J218750D01*
G01*
X45795000Y-45833750D01*
G75*
G02*
X46013750Y-45615000I218750J0D01*
G01*
X46451250Y-45615000D01*
G75*
G02*
X46670000Y-45833750I0J-218750D01*
G01*
G37*
G04 #@! TD.AperFunction*
G04 #@! TO.P,R6,1*
G04 #@! TO.N,Net-(R6-Pad1)*
G04 #@! TA.AperFunction,SMDPad,CuDef*
G36*
G01*
X48245000Y-45833750D02*
X48245000Y-46346250D01*
G75*
G02*
X48026250Y-46565000I-218750J0D01*
G01*
X47588750Y-46565000D01*
G75*
G02*
X47370000Y-46346250I0J218750D01*
G01*
X47370000Y-45833750D01*
G75*
G02*
X47588750Y-45615000I218750J0D01*
G01*
X48026250Y-45615000D01*
G75*
G02*
X48245000Y-45833750I0J-218750D01*
G01*
G37*
G04 #@! TD.AperFunction*
G04 #@! TD*
G04 #@! TO.P,R5,2*
G04 #@! TO.N,/NL05*
G04 #@! TA.AperFunction,SMDPad,CuDef*
G36*
G01*
X46696250Y-40490000D02*
X46183750Y-40490000D01*
G75*
G02*
X45965000Y-40271250I0J218750D01*
G01*
X45965000Y-39833750D01*
G75*
G02*
X46183750Y-39615000I218750J0D01*
G01*
X46696250Y-39615000D01*
G75*
G02*
X46915000Y-39833750I0J-218750D01*
G01*
X46915000Y-40271250D01*
G75*
G02*
X46696250Y-40490000I-218750J0D01*
G01*
G37*
G04 #@! TD.AperFunction*
G04 #@! TO.P,R5,1*
G04 #@! TO.N,Net-(R5-Pad1)*
G04 #@! TA.AperFunction,SMDPad,CuDef*
G36*
G01*
X46696250Y-42065000D02*
X46183750Y-42065000D01*
G75*
G02*
X45965000Y-41846250I0J218750D01*
G01*
X45965000Y-41408750D01*
G75*
G02*
X46183750Y-41190000I218750J0D01*
G01*
X46696250Y-41190000D01*
G75*
G02*
X46915000Y-41408750I0J-218750D01*
G01*
X46915000Y-41846250D01*
G75*
G02*
X46696250Y-42065000I-218750J0D01*
G01*
G37*
G04 #@! TD.AperFunction*
G04 #@! TD*
G04 #@! TO.P,R4,2*
G04 #@! TO.N,/NL04*
G04 #@! TA.AperFunction,SMDPad,CuDef*
G36*
G01*
X46750000Y-43543750D02*
X46750000Y-44056250D01*
G75*
G02*
X46531250Y-44275000I-218750J0D01*
G01*
X46093750Y-44275000D01*
G75*
G02*
X45875000Y-44056250I0J218750D01*
G01*
X45875000Y-43543750D01*
G75*
G02*
X46093750Y-43325000I218750J0D01*
G01*
X46531250Y-43325000D01*
G75*
G02*
X46750000Y-43543750I0J-218750D01*
G01*
G37*
G04 #@! TD.AperFunction*
G04 #@! TO.P,R4,1*
G04 #@! TO.N,Net-(R4-Pad1)*
G04 #@! TA.AperFunction,SMDPad,CuDef*
G36*
G01*
X48325000Y-43543750D02*
X48325000Y-44056250D01*
G75*
G02*
X48106250Y-44275000I-218750J0D01*
G01*
X47668750Y-44275000D01*
G75*
G02*
X47450000Y-44056250I0J218750D01*
G01*
X47450000Y-43543750D01*
G75*
G02*
X47668750Y-43325000I218750J0D01*
G01*
X48106250Y-43325000D01*
G75*
G02*
X48325000Y-43543750I0J-218750D01*
G01*
G37*
G04 #@! TD.AperFunction*
G04 #@! TD*
G04 #@! TO.P,R3,2*
G04 #@! TO.N,/NL03*
G04 #@! TA.AperFunction,SMDPad,CuDef*
G36*
G01*
X45456250Y-50850000D02*
X44943750Y-50850000D01*
G75*
G02*
X44725000Y-50631250I0J218750D01*
G01*
X44725000Y-50193750D01*
G75*
G02*
X44943750Y-49975000I218750J0D01*
G01*
X45456250Y-49975000D01*
G75*
G02*
X45675000Y-50193750I0J-218750D01*
G01*
X45675000Y-50631250D01*
G75*
G02*
X45456250Y-50850000I-218750J0D01*
G01*
G37*
G04 #@! TD.AperFunction*
G04 #@! TO.P,R3,1*
G04 #@! TO.N,Net-(R3-Pad1)*
G04 #@! TA.AperFunction,SMDPad,CuDef*
G36*
G01*
X45456250Y-52425000D02*
X44943750Y-52425000D01*
G75*
G02*
X44725000Y-52206250I0J218750D01*
G01*
X44725000Y-51768750D01*
G75*
G02*
X44943750Y-51550000I218750J0D01*
G01*
X45456250Y-51550000D01*
G75*
G02*
X45675000Y-51768750I0J-218750D01*
G01*
X45675000Y-52206250D01*
G75*
G02*
X45456250Y-52425000I-218750J0D01*
G01*
G37*
G04 #@! TD.AperFunction*
G04 #@! TD*
G04 #@! TO.P,R2,2*
G04 #@! TO.N,/NL02*
G04 #@! TA.AperFunction,SMDPad,CuDef*
G36*
G01*
X13580000Y-48203750D02*
X13580000Y-48716250D01*
G75*
G02*
X13361250Y-48935000I-218750J0D01*
G01*
X12923750Y-48935000D01*
G75*
G02*
X12705000Y-48716250I0J218750D01*
G01*
X12705000Y-48203750D01*
G75*
G02*
X12923750Y-47985000I218750J0D01*
G01*
X13361250Y-47985000D01*
G75*
G02*
X13580000Y-48203750I0J-218750D01*
G01*
G37*
G04 #@! TD.AperFunction*
G04 #@! TO.P,R2,1*
G04 #@! TO.N,Net-(R2-Pad1)*
G04 #@! TA.AperFunction,SMDPad,CuDef*
G36*
G01*
X15155000Y-48203750D02*
X15155000Y-48716250D01*
G75*
G02*
X14936250Y-48935000I-218750J0D01*
G01*
X14498750Y-48935000D01*
G75*
G02*
X14280000Y-48716250I0J218750D01*
G01*
X14280000Y-48203750D01*
G75*
G02*
X14498750Y-47985000I218750J0D01*
G01*
X14936250Y-47985000D01*
G75*
G02*
X15155000Y-48203750I0J-218750D01*
G01*
G37*
G04 #@! TD.AperFunction*
G04 #@! TD*
G04 #@! TO.P,R1,2*
G04 #@! TO.N,/NL01*
G04 #@! TA.AperFunction,SMDPad,CuDef*
G36*
G01*
X49916250Y-38700000D02*
X49403750Y-38700000D01*
G75*
G02*
X49185000Y-38481250I0J218750D01*
G01*
X49185000Y-38043750D01*
G75*
G02*
X49403750Y-37825000I218750J0D01*
G01*
X49916250Y-37825000D01*
G75*
G02*
X50135000Y-38043750I0J-218750D01*
G01*
X50135000Y-38481250D01*
G75*
G02*
X49916250Y-38700000I-218750J0D01*
G01*
G37*
G04 #@! TD.AperFunction*
G04 #@! TO.P,R1,1*
G04 #@! TO.N,Net-(R1-Pad1)*
G04 #@! TA.AperFunction,SMDPad,CuDef*
G36*
G01*
X49916250Y-40275000D02*
X49403750Y-40275000D01*
G75*
G02*
X49185000Y-40056250I0J218750D01*
G01*
X49185000Y-39618750D01*
G75*
G02*
X49403750Y-39400000I218750J0D01*
G01*
X49916250Y-39400000D01*
G75*
G02*
X50135000Y-39618750I0J-218750D01*
G01*
X50135000Y-40056250D01*
G75*
G02*
X49916250Y-40275000I-218750J0D01*
G01*
G37*
G04 #@! TD.AperFunction*
G04 #@! TD*
D14*
G04 #@! TO.P,J1,5*
G04 #@! TO.N,GND*
X2500000Y-70260000D03*
G04 #@! TO.P,J1,4*
G04 #@! TO.N,Net-(J1-Pad4)*
X2500000Y-67720000D03*
G04 #@! TO.P,J1,3*
G04 #@! TO.N,Net-(J1-Pad3)*
X2500000Y-65180000D03*
G04 #@! TO.P,J1,2*
G04 #@! TO.N,Net-(J1-Pad2)*
X2500000Y-62640000D03*
D15*
G04 #@! TO.P,J1,1*
G04 #@! TO.N,Net-(J1-Pad1)*
X2500000Y-60100000D03*
G04 #@! TD*
G04 #@! TO.P,D110,2*
G04 #@! TO.N,/NL01*
G04 #@! TA.AperFunction,SMDPad,CuDef*
G36*
G01*
X18550000Y-17056250D02*
X18550000Y-16543750D01*
G75*
G02*
X18768750Y-16325000I218750J0D01*
G01*
X19206250Y-16325000D01*
G75*
G02*
X19425000Y-16543750I0J-218750D01*
G01*
X19425000Y-17056250D01*
G75*
G02*
X19206250Y-17275000I-218750J0D01*
G01*
X18768750Y-17275000D01*
G75*
G02*
X18550000Y-17056250I0J218750D01*
G01*
G37*
G04 #@! TD.AperFunction*
G04 #@! TO.P,D110,1*
G04 #@! TO.N,/NL11*
G04 #@! TA.AperFunction,SMDPad,CuDef*
G36*
G01*
X16975000Y-17056250D02*
X16975000Y-16543750D01*
G75*
G02*
X17193750Y-16325000I218750J0D01*
G01*
X17631250Y-16325000D01*
G75*
G02*
X17850000Y-16543750I0J-218750D01*
G01*
X17850000Y-17056250D01*
G75*
G02*
X17631250Y-17275000I-218750J0D01*
G01*
X17193750Y-17275000D01*
G75*
G02*
X16975000Y-17056250I0J218750D01*
G01*
G37*
G04 #@! TD.AperFunction*
G04 #@! TD*
G04 #@! TO.P,D109,2*
G04 #@! TO.N,/NL11*
G04 #@! TA.AperFunction,SMDPad,CuDef*
G36*
G01*
X17956250Y-24750000D02*
X17443750Y-24750000D01*
G75*
G02*
X17225000Y-24531250I0J218750D01*
G01*
X17225000Y-24093750D01*
G75*
G02*
X17443750Y-23875000I218750J0D01*
G01*
X17956250Y-23875000D01*
G75*
G02*
X18175000Y-24093750I0J-218750D01*
G01*
X18175000Y-24531250D01*
G75*
G02*
X17956250Y-24750000I-218750J0D01*
G01*
G37*
G04 #@! TD.AperFunction*
G04 #@! TO.P,D109,1*
G04 #@! TO.N,/NL01*
G04 #@! TA.AperFunction,SMDPad,CuDef*
G36*
G01*
X17956250Y-26325000D02*
X17443750Y-26325000D01*
G75*
G02*
X17225000Y-26106250I0J218750D01*
G01*
X17225000Y-25668750D01*
G75*
G02*
X17443750Y-25450000I218750J0D01*
G01*
X17956250Y-25450000D01*
G75*
G02*
X18175000Y-25668750I0J-218750D01*
G01*
X18175000Y-26106250D01*
G75*
G02*
X17956250Y-26325000I-218750J0D01*
G01*
G37*
G04 #@! TD.AperFunction*
G04 #@! TD*
G04 #@! TO.P,D108,2*
G04 #@! TO.N,/NL02*
G04 #@! TA.AperFunction,SMDPad,CuDef*
G36*
G01*
X14556250Y-23750000D02*
X14043750Y-23750000D01*
G75*
G02*
X13825000Y-23531250I0J218750D01*
G01*
X13825000Y-23093750D01*
G75*
G02*
X14043750Y-22875000I218750J0D01*
G01*
X14556250Y-22875000D01*
G75*
G02*
X14775000Y-23093750I0J-218750D01*
G01*
X14775000Y-23531250D01*
G75*
G02*
X14556250Y-23750000I-218750J0D01*
G01*
G37*
G04 #@! TD.AperFunction*
G04 #@! TO.P,D108,1*
G04 #@! TO.N,/NL11*
G04 #@! TA.AperFunction,SMDPad,CuDef*
G36*
G01*
X14556250Y-25325000D02*
X14043750Y-25325000D01*
G75*
G02*
X13825000Y-25106250I0J218750D01*
G01*
X13825000Y-24668750D01*
G75*
G02*
X14043750Y-24450000I218750J0D01*
G01*
X14556250Y-24450000D01*
G75*
G02*
X14775000Y-24668750I0J-218750D01*
G01*
X14775000Y-25106250D01*
G75*
G02*
X14556250Y-25325000I-218750J0D01*
G01*
G37*
G04 #@! TD.AperFunction*
G04 #@! TD*
G04 #@! TO.P,D107,2*
G04 #@! TO.N,/NL11*
G04 #@! TA.AperFunction,SMDPad,CuDef*
G36*
G01*
X13056250Y-17250000D02*
X12543750Y-17250000D01*
G75*
G02*
X12325000Y-17031250I0J218750D01*
G01*
X12325000Y-16593750D01*
G75*
G02*
X12543750Y-16375000I218750J0D01*
G01*
X13056250Y-16375000D01*
G75*
G02*
X13275000Y-16593750I0J-218750D01*
G01*
X13275000Y-17031250D01*
G75*
G02*
X13056250Y-17250000I-218750J0D01*
G01*
G37*
G04 #@! TD.AperFunction*
G04 #@! TO.P,D107,1*
G04 #@! TO.N,/NL02*
G04 #@! TA.AperFunction,SMDPad,CuDef*
G36*
G01*
X13056250Y-18825000D02*
X12543750Y-18825000D01*
G75*
G02*
X12325000Y-18606250I0J218750D01*
G01*
X12325000Y-18168750D01*
G75*
G02*
X12543750Y-17950000I218750J0D01*
G01*
X13056250Y-17950000D01*
G75*
G02*
X13275000Y-18168750I0J-218750D01*
G01*
X13275000Y-18606250D01*
G75*
G02*
X13056250Y-18825000I-218750J0D01*
G01*
G37*
G04 #@! TD.AperFunction*
G04 #@! TD*
G04 #@! TO.P,D106,2*
G04 #@! TO.N,/NL03*
G04 #@! TA.AperFunction,SMDPad,CuDef*
G36*
G01*
X8956250Y-15150000D02*
X8443750Y-15150000D01*
G75*
G02*
X8225000Y-14931250I0J218750D01*
G01*
X8225000Y-14493750D01*
G75*
G02*
X8443750Y-14275000I218750J0D01*
G01*
X8956250Y-14275000D01*
G75*
G02*
X9175000Y-14493750I0J-218750D01*
G01*
X9175000Y-14931250D01*
G75*
G02*
X8956250Y-15150000I-218750J0D01*
G01*
G37*
G04 #@! TD.AperFunction*
G04 #@! TO.P,D106,1*
G04 #@! TO.N,/NL11*
G04 #@! TA.AperFunction,SMDPad,CuDef*
G36*
G01*
X8956250Y-16725000D02*
X8443750Y-16725000D01*
G75*
G02*
X8225000Y-16506250I0J218750D01*
G01*
X8225000Y-16068750D01*
G75*
G02*
X8443750Y-15850000I218750J0D01*
G01*
X8956250Y-15850000D01*
G75*
G02*
X9175000Y-16068750I0J-218750D01*
G01*
X9175000Y-16506250D01*
G75*
G02*
X8956250Y-16725000I-218750J0D01*
G01*
G37*
G04 #@! TD.AperFunction*
G04 #@! TD*
G04 #@! TO.P,D105,2*
G04 #@! TO.N,/NL11*
G04 #@! TA.AperFunction,SMDPad,CuDef*
G36*
G01*
X10656250Y-18250000D02*
X10143750Y-18250000D01*
G75*
G02*
X9925000Y-18031250I0J218750D01*
G01*
X9925000Y-17593750D01*
G75*
G02*
X10143750Y-17375000I218750J0D01*
G01*
X10656250Y-17375000D01*
G75*
G02*
X10875000Y-17593750I0J-218750D01*
G01*
X10875000Y-18031250D01*
G75*
G02*
X10656250Y-18250000I-218750J0D01*
G01*
G37*
G04 #@! TD.AperFunction*
G04 #@! TO.P,D105,1*
G04 #@! TO.N,/NL03*
G04 #@! TA.AperFunction,SMDPad,CuDef*
G36*
G01*
X10656250Y-19825000D02*
X10143750Y-19825000D01*
G75*
G02*
X9925000Y-19606250I0J218750D01*
G01*
X9925000Y-19168750D01*
G75*
G02*
X10143750Y-18950000I218750J0D01*
G01*
X10656250Y-18950000D01*
G75*
G02*
X10875000Y-19168750I0J-218750D01*
G01*
X10875000Y-19606250D01*
G75*
G02*
X10656250Y-19825000I-218750J0D01*
G01*
G37*
G04 #@! TD.AperFunction*
G04 #@! TD*
G04 #@! TO.P,D104,2*
G04 #@! TO.N,/NL04*
G04 #@! TA.AperFunction,SMDPad,CuDef*
G36*
G01*
X8650000Y-21956250D02*
X8650000Y-21443750D01*
G75*
G02*
X8868750Y-21225000I218750J0D01*
G01*
X9306250Y-21225000D01*
G75*
G02*
X9525000Y-21443750I0J-218750D01*
G01*
X9525000Y-21956250D01*
G75*
G02*
X9306250Y-22175000I-218750J0D01*
G01*
X8868750Y-22175000D01*
G75*
G02*
X8650000Y-21956250I0J218750D01*
G01*
G37*
G04 #@! TD.AperFunction*
G04 #@! TO.P,D104,1*
G04 #@! TO.N,/NL11*
G04 #@! TA.AperFunction,SMDPad,CuDef*
G36*
G01*
X7075000Y-21956250D02*
X7075000Y-21443750D01*
G75*
G02*
X7293750Y-21225000I218750J0D01*
G01*
X7731250Y-21225000D01*
G75*
G02*
X7950000Y-21443750I0J-218750D01*
G01*
X7950000Y-21956250D01*
G75*
G02*
X7731250Y-22175000I-218750J0D01*
G01*
X7293750Y-22175000D01*
G75*
G02*
X7075000Y-21956250I0J218750D01*
G01*
G37*
G04 #@! TD.AperFunction*
G04 #@! TD*
G04 #@! TO.P,D103,2*
G04 #@! TO.N,/NL11*
G04 #@! TA.AperFunction,SMDPad,CuDef*
G36*
G01*
X5456250Y-22450000D02*
X4943750Y-22450000D01*
G75*
G02*
X4725000Y-22231250I0J218750D01*
G01*
X4725000Y-21793750D01*
G75*
G02*
X4943750Y-21575000I218750J0D01*
G01*
X5456250Y-21575000D01*
G75*
G02*
X5675000Y-21793750I0J-218750D01*
G01*
X5675000Y-22231250D01*
G75*
G02*
X5456250Y-22450000I-218750J0D01*
G01*
G37*
G04 #@! TD.AperFunction*
G04 #@! TO.P,D103,1*
G04 #@! TO.N,/NL04*
G04 #@! TA.AperFunction,SMDPad,CuDef*
G36*
G01*
X5456250Y-24025000D02*
X4943750Y-24025000D01*
G75*
G02*
X4725000Y-23806250I0J218750D01*
G01*
X4725000Y-23368750D01*
G75*
G02*
X4943750Y-23150000I218750J0D01*
G01*
X5456250Y-23150000D01*
G75*
G02*
X5675000Y-23368750I0J-218750D01*
G01*
X5675000Y-23806250D01*
G75*
G02*
X5456250Y-24025000I-218750J0D01*
G01*
G37*
G04 #@! TD.AperFunction*
G04 #@! TD*
G04 #@! TO.P,D102,2*
G04 #@! TO.N,/NL05*
G04 #@! TA.AperFunction,SMDPad,CuDef*
G36*
G01*
X9650000Y-25656250D02*
X9650000Y-25143750D01*
G75*
G02*
X9868750Y-24925000I218750J0D01*
G01*
X10306250Y-24925000D01*
G75*
G02*
X10525000Y-25143750I0J-218750D01*
G01*
X10525000Y-25656250D01*
G75*
G02*
X10306250Y-25875000I-218750J0D01*
G01*
X9868750Y-25875000D01*
G75*
G02*
X9650000Y-25656250I0J218750D01*
G01*
G37*
G04 #@! TD.AperFunction*
G04 #@! TO.P,D102,1*
G04 #@! TO.N,/NL11*
G04 #@! TA.AperFunction,SMDPad,CuDef*
G36*
G01*
X8075000Y-25656250D02*
X8075000Y-25143750D01*
G75*
G02*
X8293750Y-24925000I218750J0D01*
G01*
X8731250Y-24925000D01*
G75*
G02*
X8950000Y-25143750I0J-218750D01*
G01*
X8950000Y-25656250D01*
G75*
G02*
X8731250Y-25875000I-218750J0D01*
G01*
X8293750Y-25875000D01*
G75*
G02*
X8075000Y-25656250I0J218750D01*
G01*
G37*
G04 #@! TD.AperFunction*
G04 #@! TD*
G04 #@! TO.P,D101,2*
G04 #@! TO.N,/NL11*
G04 #@! TA.AperFunction,SMDPad,CuDef*
G36*
G01*
X12150000Y-29056250D02*
X12150000Y-28543750D01*
G75*
G02*
X12368750Y-28325000I218750J0D01*
G01*
X12806250Y-28325000D01*
G75*
G02*
X13025000Y-28543750I0J-218750D01*
G01*
X13025000Y-29056250D01*
G75*
G02*
X12806250Y-29275000I-218750J0D01*
G01*
X12368750Y-29275000D01*
G75*
G02*
X12150000Y-29056250I0J218750D01*
G01*
G37*
G04 #@! TD.AperFunction*
G04 #@! TO.P,D101,1*
G04 #@! TO.N,/NL05*
G04 #@! TA.AperFunction,SMDPad,CuDef*
G36*
G01*
X10575000Y-29056250D02*
X10575000Y-28543750D01*
G75*
G02*
X10793750Y-28325000I218750J0D01*
G01*
X11231250Y-28325000D01*
G75*
G02*
X11450000Y-28543750I0J-218750D01*
G01*
X11450000Y-29056250D01*
G75*
G02*
X11231250Y-29275000I-218750J0D01*
G01*
X10793750Y-29275000D01*
G75*
G02*
X10575000Y-29056250I0J218750D01*
G01*
G37*
G04 #@! TD.AperFunction*
G04 #@! TD*
G04 #@! TO.P,D100,2*
G04 #@! TO.N,/NL06*
G04 #@! TA.AperFunction,SMDPad,CuDef*
G36*
G01*
X8456250Y-31350000D02*
X7943750Y-31350000D01*
G75*
G02*
X7725000Y-31131250I0J218750D01*
G01*
X7725000Y-30693750D01*
G75*
G02*
X7943750Y-30475000I218750J0D01*
G01*
X8456250Y-30475000D01*
G75*
G02*
X8675000Y-30693750I0J-218750D01*
G01*
X8675000Y-31131250D01*
G75*
G02*
X8456250Y-31350000I-218750J0D01*
G01*
G37*
G04 #@! TD.AperFunction*
G04 #@! TO.P,D100,1*
G04 #@! TO.N,/NL11*
G04 #@! TA.AperFunction,SMDPad,CuDef*
G36*
G01*
X8456250Y-32925000D02*
X7943750Y-32925000D01*
G75*
G02*
X7725000Y-32706250I0J218750D01*
G01*
X7725000Y-32268750D01*
G75*
G02*
X7943750Y-32050000I218750J0D01*
G01*
X8456250Y-32050000D01*
G75*
G02*
X8675000Y-32268750I0J-218750D01*
G01*
X8675000Y-32706250D01*
G75*
G02*
X8456250Y-32925000I-218750J0D01*
G01*
G37*
G04 #@! TD.AperFunction*
G04 #@! TD*
G04 #@! TO.P,D99,2*
G04 #@! TO.N,/NL11*
G04 #@! TA.AperFunction,SMDPad,CuDef*
G36*
G01*
X4056250Y-27950000D02*
X3543750Y-27950000D01*
G75*
G02*
X3325000Y-27731250I0J218750D01*
G01*
X3325000Y-27293750D01*
G75*
G02*
X3543750Y-27075000I218750J0D01*
G01*
X4056250Y-27075000D01*
G75*
G02*
X4275000Y-27293750I0J-218750D01*
G01*
X4275000Y-27731250D01*
G75*
G02*
X4056250Y-27950000I-218750J0D01*
G01*
G37*
G04 #@! TD.AperFunction*
G04 #@! TO.P,D99,1*
G04 #@! TO.N,/NL06*
G04 #@! TA.AperFunction,SMDPad,CuDef*
G36*
G01*
X4056250Y-29525000D02*
X3543750Y-29525000D01*
G75*
G02*
X3325000Y-29306250I0J218750D01*
G01*
X3325000Y-28868750D01*
G75*
G02*
X3543750Y-28650000I218750J0D01*
G01*
X4056250Y-28650000D01*
G75*
G02*
X4275000Y-28868750I0J-218750D01*
G01*
X4275000Y-29306250D01*
G75*
G02*
X4056250Y-29525000I-218750J0D01*
G01*
G37*
G04 #@! TD.AperFunction*
G04 #@! TD*
G04 #@! TO.P,D98,2*
G04 #@! TO.N,/NL07*
G04 #@! TA.AperFunction,SMDPad,CuDef*
G36*
G01*
X3356250Y-33750000D02*
X2843750Y-33750000D01*
G75*
G02*
X2625000Y-33531250I0J218750D01*
G01*
X2625000Y-33093750D01*
G75*
G02*
X2843750Y-32875000I218750J0D01*
G01*
X3356250Y-32875000D01*
G75*
G02*
X3575000Y-33093750I0J-218750D01*
G01*
X3575000Y-33531250D01*
G75*
G02*
X3356250Y-33750000I-218750J0D01*
G01*
G37*
G04 #@! TD.AperFunction*
G04 #@! TO.P,D98,1*
G04 #@! TO.N,/NL11*
G04 #@! TA.AperFunction,SMDPad,CuDef*
G36*
G01*
X3356250Y-35325000D02*
X2843750Y-35325000D01*
G75*
G02*
X2625000Y-35106250I0J218750D01*
G01*
X2625000Y-34668750D01*
G75*
G02*
X2843750Y-34450000I218750J0D01*
G01*
X3356250Y-34450000D01*
G75*
G02*
X3575000Y-34668750I0J-218750D01*
G01*
X3575000Y-35106250D01*
G75*
G02*
X3356250Y-35325000I-218750J0D01*
G01*
G37*
G04 #@! TD.AperFunction*
G04 #@! TD*
G04 #@! TO.P,D97,2*
G04 #@! TO.N,/NL11*
G04 #@! TA.AperFunction,SMDPad,CuDef*
G36*
G01*
X8750000Y-36956250D02*
X8750000Y-36443750D01*
G75*
G02*
X8968750Y-36225000I218750J0D01*
G01*
X9406250Y-36225000D01*
G75*
G02*
X9625000Y-36443750I0J-218750D01*
G01*
X9625000Y-36956250D01*
G75*
G02*
X9406250Y-37175000I-218750J0D01*
G01*
X8968750Y-37175000D01*
G75*
G02*
X8750000Y-36956250I0J218750D01*
G01*
G37*
G04 #@! TD.AperFunction*
G04 #@! TO.P,D97,1*
G04 #@! TO.N,/NL07*
G04 #@! TA.AperFunction,SMDPad,CuDef*
G36*
G01*
X7175000Y-36956250D02*
X7175000Y-36443750D01*
G75*
G02*
X7393750Y-36225000I218750J0D01*
G01*
X7831250Y-36225000D01*
G75*
G02*
X8050000Y-36443750I0J-218750D01*
G01*
X8050000Y-36956250D01*
G75*
G02*
X7831250Y-37175000I-218750J0D01*
G01*
X7393750Y-37175000D01*
G75*
G02*
X7175000Y-36956250I0J218750D01*
G01*
G37*
G04 #@! TD.AperFunction*
G04 #@! TD*
G04 #@! TO.P,D96,2*
G04 #@! TO.N,/NL08*
G04 #@! TA.AperFunction,SMDPad,CuDef*
G36*
G01*
X13250000Y-33956250D02*
X13250000Y-33443750D01*
G75*
G02*
X13468750Y-33225000I218750J0D01*
G01*
X13906250Y-33225000D01*
G75*
G02*
X14125000Y-33443750I0J-218750D01*
G01*
X14125000Y-33956250D01*
G75*
G02*
X13906250Y-34175000I-218750J0D01*
G01*
X13468750Y-34175000D01*
G75*
G02*
X13250000Y-33956250I0J218750D01*
G01*
G37*
G04 #@! TD.AperFunction*
G04 #@! TO.P,D96,1*
G04 #@! TO.N,/NL11*
G04 #@! TA.AperFunction,SMDPad,CuDef*
G36*
G01*
X11675000Y-33956250D02*
X11675000Y-33443750D01*
G75*
G02*
X11893750Y-33225000I218750J0D01*
G01*
X12331250Y-33225000D01*
G75*
G02*
X12550000Y-33443750I0J-218750D01*
G01*
X12550000Y-33956250D01*
G75*
G02*
X12331250Y-34175000I-218750J0D01*
G01*
X11893750Y-34175000D01*
G75*
G02*
X11675000Y-33956250I0J218750D01*
G01*
G37*
G04 #@! TD.AperFunction*
G04 #@! TD*
G04 #@! TO.P,D95,2*
G04 #@! TO.N,/NL11*
G04 #@! TA.AperFunction,SMDPad,CuDef*
G36*
G01*
X15650000Y-31456250D02*
X15650000Y-30943750D01*
G75*
G02*
X15868750Y-30725000I218750J0D01*
G01*
X16306250Y-30725000D01*
G75*
G02*
X16525000Y-30943750I0J-218750D01*
G01*
X16525000Y-31456250D01*
G75*
G02*
X16306250Y-31675000I-218750J0D01*
G01*
X15868750Y-31675000D01*
G75*
G02*
X15650000Y-31456250I0J218750D01*
G01*
G37*
G04 #@! TD.AperFunction*
G04 #@! TO.P,D95,1*
G04 #@! TO.N,/NL08*
G04 #@! TA.AperFunction,SMDPad,CuDef*
G36*
G01*
X14075000Y-31456250D02*
X14075000Y-30943750D01*
G75*
G02*
X14293750Y-30725000I218750J0D01*
G01*
X14731250Y-30725000D01*
G75*
G02*
X14950000Y-30943750I0J-218750D01*
G01*
X14950000Y-31456250D01*
G75*
G02*
X14731250Y-31675000I-218750J0D01*
G01*
X14293750Y-31675000D01*
G75*
G02*
X14075000Y-31456250I0J218750D01*
G01*
G37*
G04 #@! TD.AperFunction*
G04 #@! TD*
G04 #@! TO.P,D94,2*
G04 #@! TO.N,/NL09*
G04 #@! TA.AperFunction,SMDPad,CuDef*
G36*
G01*
X17743750Y-40050000D02*
X18256250Y-40050000D01*
G75*
G02*
X18475000Y-40268750I0J-218750D01*
G01*
X18475000Y-40706250D01*
G75*
G02*
X18256250Y-40925000I-218750J0D01*
G01*
X17743750Y-40925000D01*
G75*
G02*
X17525000Y-40706250I0J218750D01*
G01*
X17525000Y-40268750D01*
G75*
G02*
X17743750Y-40050000I218750J0D01*
G01*
G37*
G04 #@! TD.AperFunction*
G04 #@! TO.P,D94,1*
G04 #@! TO.N,/NL11*
G04 #@! TA.AperFunction,SMDPad,CuDef*
G36*
G01*
X17743750Y-38475000D02*
X18256250Y-38475000D01*
G75*
G02*
X18475000Y-38693750I0J-218750D01*
G01*
X18475000Y-39131250D01*
G75*
G02*
X18256250Y-39350000I-218750J0D01*
G01*
X17743750Y-39350000D01*
G75*
G02*
X17525000Y-39131250I0J218750D01*
G01*
X17525000Y-38693750D01*
G75*
G02*
X17743750Y-38475000I218750J0D01*
G01*
G37*
G04 #@! TD.AperFunction*
G04 #@! TD*
G04 #@! TO.P,D93,2*
G04 #@! TO.N,/NL11*
G04 #@! TA.AperFunction,SMDPad,CuDef*
G36*
G01*
X9750000Y-39956250D02*
X9750000Y-39443750D01*
G75*
G02*
X9968750Y-39225000I218750J0D01*
G01*
X10406250Y-39225000D01*
G75*
G02*
X10625000Y-39443750I0J-218750D01*
G01*
X10625000Y-39956250D01*
G75*
G02*
X10406250Y-40175000I-218750J0D01*
G01*
X9968750Y-40175000D01*
G75*
G02*
X9750000Y-39956250I0J218750D01*
G01*
G37*
G04 #@! TD.AperFunction*
G04 #@! TO.P,D93,1*
G04 #@! TO.N,/NL09*
G04 #@! TA.AperFunction,SMDPad,CuDef*
G36*
G01*
X8175000Y-39956250D02*
X8175000Y-39443750D01*
G75*
G02*
X8393750Y-39225000I218750J0D01*
G01*
X8831250Y-39225000D01*
G75*
G02*
X9050000Y-39443750I0J-218750D01*
G01*
X9050000Y-39956250D01*
G75*
G02*
X8831250Y-40175000I-218750J0D01*
G01*
X8393750Y-40175000D01*
G75*
G02*
X8175000Y-39956250I0J218750D01*
G01*
G37*
G04 #@! TD.AperFunction*
G04 #@! TD*
G04 #@! TO.P,D92,2*
G04 #@! TO.N,/NL10*
G04 #@! TA.AperFunction,SMDPad,CuDef*
G36*
G01*
X21756250Y-35650000D02*
X21243750Y-35650000D01*
G75*
G02*
X21025000Y-35431250I0J218750D01*
G01*
X21025000Y-34993750D01*
G75*
G02*
X21243750Y-34775000I218750J0D01*
G01*
X21756250Y-34775000D01*
G75*
G02*
X21975000Y-34993750I0J-218750D01*
G01*
X21975000Y-35431250D01*
G75*
G02*
X21756250Y-35650000I-218750J0D01*
G01*
G37*
G04 #@! TD.AperFunction*
G04 #@! TO.P,D92,1*
G04 #@! TO.N,/NL11*
G04 #@! TA.AperFunction,SMDPad,CuDef*
G36*
G01*
X21756250Y-37225000D02*
X21243750Y-37225000D01*
G75*
G02*
X21025000Y-37006250I0J218750D01*
G01*
X21025000Y-36568750D01*
G75*
G02*
X21243750Y-36350000I218750J0D01*
G01*
X21756250Y-36350000D01*
G75*
G02*
X21975000Y-36568750I0J-218750D01*
G01*
X21975000Y-37006250D01*
G75*
G02*
X21756250Y-37225000I-218750J0D01*
G01*
G37*
G04 #@! TD.AperFunction*
G04 #@! TD*
G04 #@! TO.P,D90,2*
G04 #@! TO.N,/NL01*
G04 #@! TA.AperFunction,SMDPad,CuDef*
G36*
G01*
X35250000Y-20956250D02*
X35250000Y-20443750D01*
G75*
G02*
X35468750Y-20225000I218750J0D01*
G01*
X35906250Y-20225000D01*
G75*
G02*
X36125000Y-20443750I0J-218750D01*
G01*
X36125000Y-20956250D01*
G75*
G02*
X35906250Y-21175000I-218750J0D01*
G01*
X35468750Y-21175000D01*
G75*
G02*
X35250000Y-20956250I0J218750D01*
G01*
G37*
G04 #@! TD.AperFunction*
G04 #@! TO.P,D90,1*
G04 #@! TO.N,/NL10*
G04 #@! TA.AperFunction,SMDPad,CuDef*
G36*
G01*
X33675000Y-20956250D02*
X33675000Y-20443750D01*
G75*
G02*
X33893750Y-20225000I218750J0D01*
G01*
X34331250Y-20225000D01*
G75*
G02*
X34550000Y-20443750I0J-218750D01*
G01*
X34550000Y-20956250D01*
G75*
G02*
X34331250Y-21175000I-218750J0D01*
G01*
X33893750Y-21175000D01*
G75*
G02*
X33675000Y-20956250I0J218750D01*
G01*
G37*
G04 #@! TD.AperFunction*
G04 #@! TD*
G04 #@! TO.P,D89,2*
G04 #@! TO.N,/NL10*
G04 #@! TA.AperFunction,SMDPad,CuDef*
G36*
G01*
X32156250Y-23950000D02*
X31643750Y-23950000D01*
G75*
G02*
X31425000Y-23731250I0J218750D01*
G01*
X31425000Y-23293750D01*
G75*
G02*
X31643750Y-23075000I218750J0D01*
G01*
X32156250Y-23075000D01*
G75*
G02*
X32375000Y-23293750I0J-218750D01*
G01*
X32375000Y-23731250D01*
G75*
G02*
X32156250Y-23950000I-218750J0D01*
G01*
G37*
G04 #@! TD.AperFunction*
G04 #@! TO.P,D89,1*
G04 #@! TO.N,/NL01*
G04 #@! TA.AperFunction,SMDPad,CuDef*
G36*
G01*
X32156250Y-25525000D02*
X31643750Y-25525000D01*
G75*
G02*
X31425000Y-25306250I0J218750D01*
G01*
X31425000Y-24868750D01*
G75*
G02*
X31643750Y-24650000I218750J0D01*
G01*
X32156250Y-24650000D01*
G75*
G02*
X32375000Y-24868750I0J-218750D01*
G01*
X32375000Y-25306250D01*
G75*
G02*
X32156250Y-25525000I-218750J0D01*
G01*
G37*
G04 #@! TD.AperFunction*
G04 #@! TD*
G04 #@! TO.P,D88,2*
G04 #@! TO.N,/NL02*
G04 #@! TA.AperFunction,SMDPad,CuDef*
G36*
G01*
X26050000Y-32056250D02*
X26050000Y-31543750D01*
G75*
G02*
X26268750Y-31325000I218750J0D01*
G01*
X26706250Y-31325000D01*
G75*
G02*
X26925000Y-31543750I0J-218750D01*
G01*
X26925000Y-32056250D01*
G75*
G02*
X26706250Y-32275000I-218750J0D01*
G01*
X26268750Y-32275000D01*
G75*
G02*
X26050000Y-32056250I0J218750D01*
G01*
G37*
G04 #@! TD.AperFunction*
G04 #@! TO.P,D88,1*
G04 #@! TO.N,/NL10*
G04 #@! TA.AperFunction,SMDPad,CuDef*
G36*
G01*
X24475000Y-32056250D02*
X24475000Y-31543750D01*
G75*
G02*
X24693750Y-31325000I218750J0D01*
G01*
X25131250Y-31325000D01*
G75*
G02*
X25350000Y-31543750I0J-218750D01*
G01*
X25350000Y-32056250D01*
G75*
G02*
X25131250Y-32275000I-218750J0D01*
G01*
X24693750Y-32275000D01*
G75*
G02*
X24475000Y-32056250I0J218750D01*
G01*
G37*
G04 #@! TD.AperFunction*
G04 #@! TD*
G04 #@! TO.P,D87,2*
G04 #@! TO.N,/NL10*
G04 #@! TA.AperFunction,SMDPad,CuDef*
G36*
G01*
X20850000Y-32056250D02*
X20850000Y-31543750D01*
G75*
G02*
X21068750Y-31325000I218750J0D01*
G01*
X21506250Y-31325000D01*
G75*
G02*
X21725000Y-31543750I0J-218750D01*
G01*
X21725000Y-32056250D01*
G75*
G02*
X21506250Y-32275000I-218750J0D01*
G01*
X21068750Y-32275000D01*
G75*
G02*
X20850000Y-32056250I0J218750D01*
G01*
G37*
G04 #@! TD.AperFunction*
G04 #@! TO.P,D87,1*
G04 #@! TO.N,/NL02*
G04 #@! TA.AperFunction,SMDPad,CuDef*
G36*
G01*
X19275000Y-32056250D02*
X19275000Y-31543750D01*
G75*
G02*
X19493750Y-31325000I218750J0D01*
G01*
X19931250Y-31325000D01*
G75*
G02*
X20150000Y-31543750I0J-218750D01*
G01*
X20150000Y-32056250D01*
G75*
G02*
X19931250Y-32275000I-218750J0D01*
G01*
X19493750Y-32275000D01*
G75*
G02*
X19275000Y-32056250I0J218750D01*
G01*
G37*
G04 #@! TD.AperFunction*
G04 #@! TD*
G04 #@! TO.P,D86,2*
G04 #@! TO.N,/NL03*
G04 #@! TA.AperFunction,SMDPad,CuDef*
G36*
G01*
X41750000Y-5356250D02*
X41750000Y-4843750D01*
G75*
G02*
X41968750Y-4625000I218750J0D01*
G01*
X42406250Y-4625000D01*
G75*
G02*
X42625000Y-4843750I0J-218750D01*
G01*
X42625000Y-5356250D01*
G75*
G02*
X42406250Y-5575000I-218750J0D01*
G01*
X41968750Y-5575000D01*
G75*
G02*
X41750000Y-5356250I0J218750D01*
G01*
G37*
G04 #@! TD.AperFunction*
G04 #@! TO.P,D86,1*
G04 #@! TO.N,/NL10*
G04 #@! TA.AperFunction,SMDPad,CuDef*
G36*
G01*
X40175000Y-5356250D02*
X40175000Y-4843750D01*
G75*
G02*
X40393750Y-4625000I218750J0D01*
G01*
X40831250Y-4625000D01*
G75*
G02*
X41050000Y-4843750I0J-218750D01*
G01*
X41050000Y-5356250D01*
G75*
G02*
X40831250Y-5575000I-218750J0D01*
G01*
X40393750Y-5575000D01*
G75*
G02*
X40175000Y-5356250I0J218750D01*
G01*
G37*
G04 #@! TD.AperFunction*
G04 #@! TD*
G04 #@! TO.P,D85,2*
G04 #@! TO.N,/NL10*
G04 #@! TA.AperFunction,SMDPad,CuDef*
G36*
G01*
X47756250Y-4850000D02*
X47243750Y-4850000D01*
G75*
G02*
X47025000Y-4631250I0J218750D01*
G01*
X47025000Y-4193750D01*
G75*
G02*
X47243750Y-3975000I218750J0D01*
G01*
X47756250Y-3975000D01*
G75*
G02*
X47975000Y-4193750I0J-218750D01*
G01*
X47975000Y-4631250D01*
G75*
G02*
X47756250Y-4850000I-218750J0D01*
G01*
G37*
G04 #@! TD.AperFunction*
G04 #@! TO.P,D85,1*
G04 #@! TO.N,/NL03*
G04 #@! TA.AperFunction,SMDPad,CuDef*
G36*
G01*
X47756250Y-6425000D02*
X47243750Y-6425000D01*
G75*
G02*
X47025000Y-6206250I0J218750D01*
G01*
X47025000Y-5768750D01*
G75*
G02*
X47243750Y-5550000I218750J0D01*
G01*
X47756250Y-5550000D01*
G75*
G02*
X47975000Y-5768750I0J-218750D01*
G01*
X47975000Y-6206250D01*
G75*
G02*
X47756250Y-6425000I-218750J0D01*
G01*
G37*
G04 #@! TD.AperFunction*
G04 #@! TD*
G04 #@! TO.P,D84,2*
G04 #@! TO.N,/NL04*
G04 #@! TA.AperFunction,SMDPad,CuDef*
G36*
G01*
X51256250Y-4850000D02*
X50743750Y-4850000D01*
G75*
G02*
X50525000Y-4631250I0J218750D01*
G01*
X50525000Y-4193750D01*
G75*
G02*
X50743750Y-3975000I218750J0D01*
G01*
X51256250Y-3975000D01*
G75*
G02*
X51475000Y-4193750I0J-218750D01*
G01*
X51475000Y-4631250D01*
G75*
G02*
X51256250Y-4850000I-218750J0D01*
G01*
G37*
G04 #@! TD.AperFunction*
G04 #@! TO.P,D84,1*
G04 #@! TO.N,/NL10*
G04 #@! TA.AperFunction,SMDPad,CuDef*
G36*
G01*
X51256250Y-6425000D02*
X50743750Y-6425000D01*
G75*
G02*
X50525000Y-6206250I0J218750D01*
G01*
X50525000Y-5768750D01*
G75*
G02*
X50743750Y-5550000I218750J0D01*
G01*
X51256250Y-5550000D01*
G75*
G02*
X51475000Y-5768750I0J-218750D01*
G01*
X51475000Y-6206250D01*
G75*
G02*
X51256250Y-6425000I-218750J0D01*
G01*
G37*
G04 #@! TD.AperFunction*
G04 #@! TD*
G04 #@! TO.P,D83,2*
G04 #@! TO.N,/NL10*
G04 #@! TA.AperFunction,SMDPad,CuDef*
G36*
G01*
X48956250Y-8950000D02*
X48443750Y-8950000D01*
G75*
G02*
X48225000Y-8731250I0J218750D01*
G01*
X48225000Y-8293750D01*
G75*
G02*
X48443750Y-8075000I218750J0D01*
G01*
X48956250Y-8075000D01*
G75*
G02*
X49175000Y-8293750I0J-218750D01*
G01*
X49175000Y-8731250D01*
G75*
G02*
X48956250Y-8950000I-218750J0D01*
G01*
G37*
G04 #@! TD.AperFunction*
G04 #@! TO.P,D83,1*
G04 #@! TO.N,/NL04*
G04 #@! TA.AperFunction,SMDPad,CuDef*
G36*
G01*
X48956250Y-10525000D02*
X48443750Y-10525000D01*
G75*
G02*
X48225000Y-10306250I0J218750D01*
G01*
X48225000Y-9868750D01*
G75*
G02*
X48443750Y-9650000I218750J0D01*
G01*
X48956250Y-9650000D01*
G75*
G02*
X49175000Y-9868750I0J-218750D01*
G01*
X49175000Y-10306250D01*
G75*
G02*
X48956250Y-10525000I-218750J0D01*
G01*
G37*
G04 #@! TD.AperFunction*
G04 #@! TD*
G04 #@! TO.P,D82,2*
G04 #@! TO.N,/NL05*
G04 #@! TA.AperFunction,SMDPad,CuDef*
G36*
G01*
X46650000Y-13756250D02*
X46650000Y-13243750D01*
G75*
G02*
X46868750Y-13025000I218750J0D01*
G01*
X47306250Y-13025000D01*
G75*
G02*
X47525000Y-13243750I0J-218750D01*
G01*
X47525000Y-13756250D01*
G75*
G02*
X47306250Y-13975000I-218750J0D01*
G01*
X46868750Y-13975000D01*
G75*
G02*
X46650000Y-13756250I0J218750D01*
G01*
G37*
G04 #@! TD.AperFunction*
G04 #@! TO.P,D82,1*
G04 #@! TO.N,/NL10*
G04 #@! TA.AperFunction,SMDPad,CuDef*
G36*
G01*
X45075000Y-13756250D02*
X45075000Y-13243750D01*
G75*
G02*
X45293750Y-13025000I218750J0D01*
G01*
X45731250Y-13025000D01*
G75*
G02*
X45950000Y-13243750I0J-218750D01*
G01*
X45950000Y-13756250D01*
G75*
G02*
X45731250Y-13975000I-218750J0D01*
G01*
X45293750Y-13975000D01*
G75*
G02*
X45075000Y-13756250I0J218750D01*
G01*
G37*
G04 #@! TD.AperFunction*
G04 #@! TD*
G04 #@! TO.P,D81,2*
G04 #@! TO.N,/NL10*
G04 #@! TA.AperFunction,SMDPad,CuDef*
G36*
G01*
X43050000Y-17843750D02*
X43050000Y-18356250D01*
G75*
G02*
X42831250Y-18575000I-218750J0D01*
G01*
X42393750Y-18575000D01*
G75*
G02*
X42175000Y-18356250I0J218750D01*
G01*
X42175000Y-17843750D01*
G75*
G02*
X42393750Y-17625000I218750J0D01*
G01*
X42831250Y-17625000D01*
G75*
G02*
X43050000Y-17843750I0J-218750D01*
G01*
G37*
G04 #@! TD.AperFunction*
G04 #@! TO.P,D81,1*
G04 #@! TO.N,/NL05*
G04 #@! TA.AperFunction,SMDPad,CuDef*
G36*
G01*
X44625000Y-17843750D02*
X44625000Y-18356250D01*
G75*
G02*
X44406250Y-18575000I-218750J0D01*
G01*
X43968750Y-18575000D01*
G75*
G02*
X43750000Y-18356250I0J218750D01*
G01*
X43750000Y-17843750D01*
G75*
G02*
X43968750Y-17625000I218750J0D01*
G01*
X44406250Y-17625000D01*
G75*
G02*
X44625000Y-17843750I0J-218750D01*
G01*
G37*
G04 #@! TD.AperFunction*
G04 #@! TD*
G04 #@! TO.P,D80,2*
G04 #@! TO.N,/NL06*
G04 #@! TA.AperFunction,SMDPad,CuDef*
G36*
G01*
X41050000Y-1756250D02*
X41050000Y-1243750D01*
G75*
G02*
X41268750Y-1025000I218750J0D01*
G01*
X41706250Y-1025000D01*
G75*
G02*
X41925000Y-1243750I0J-218750D01*
G01*
X41925000Y-1756250D01*
G75*
G02*
X41706250Y-1975000I-218750J0D01*
G01*
X41268750Y-1975000D01*
G75*
G02*
X41050000Y-1756250I0J218750D01*
G01*
G37*
G04 #@! TD.AperFunction*
G04 #@! TO.P,D80,1*
G04 #@! TO.N,/NL10*
G04 #@! TA.AperFunction,SMDPad,CuDef*
G36*
G01*
X39475000Y-1756250D02*
X39475000Y-1243750D01*
G75*
G02*
X39693750Y-1025000I218750J0D01*
G01*
X40131250Y-1025000D01*
G75*
G02*
X40350000Y-1243750I0J-218750D01*
G01*
X40350000Y-1756250D01*
G75*
G02*
X40131250Y-1975000I-218750J0D01*
G01*
X39693750Y-1975000D01*
G75*
G02*
X39475000Y-1756250I0J218750D01*
G01*
G37*
G04 #@! TD.AperFunction*
G04 #@! TD*
G04 #@! TO.P,D79,2*
G04 #@! TO.N,/NL10*
G04 #@! TA.AperFunction,SMDPad,CuDef*
G36*
G01*
X34250000Y-1756250D02*
X34250000Y-1243750D01*
G75*
G02*
X34468750Y-1025000I218750J0D01*
G01*
X34906250Y-1025000D01*
G75*
G02*
X35125000Y-1243750I0J-218750D01*
G01*
X35125000Y-1756250D01*
G75*
G02*
X34906250Y-1975000I-218750J0D01*
G01*
X34468750Y-1975000D01*
G75*
G02*
X34250000Y-1756250I0J218750D01*
G01*
G37*
G04 #@! TD.AperFunction*
G04 #@! TO.P,D79,1*
G04 #@! TO.N,/NL06*
G04 #@! TA.AperFunction,SMDPad,CuDef*
G36*
G01*
X32675000Y-1756250D02*
X32675000Y-1243750D01*
G75*
G02*
X32893750Y-1025000I218750J0D01*
G01*
X33331250Y-1025000D01*
G75*
G02*
X33550000Y-1243750I0J-218750D01*
G01*
X33550000Y-1756250D01*
G75*
G02*
X33331250Y-1975000I-218750J0D01*
G01*
X32893750Y-1975000D01*
G75*
G02*
X32675000Y-1756250I0J218750D01*
G01*
G37*
G04 #@! TD.AperFunction*
G04 #@! TD*
G04 #@! TO.P,D78,2*
G04 #@! TO.N,/NL07*
G04 #@! TA.AperFunction,SMDPad,CuDef*
G36*
G01*
X25156250Y-35950000D02*
X24643750Y-35950000D01*
G75*
G02*
X24425000Y-35731250I0J218750D01*
G01*
X24425000Y-35293750D01*
G75*
G02*
X24643750Y-35075000I218750J0D01*
G01*
X25156250Y-35075000D01*
G75*
G02*
X25375000Y-35293750I0J-218750D01*
G01*
X25375000Y-35731250D01*
G75*
G02*
X25156250Y-35950000I-218750J0D01*
G01*
G37*
G04 #@! TD.AperFunction*
G04 #@! TO.P,D78,1*
G04 #@! TO.N,/NL10*
G04 #@! TA.AperFunction,SMDPad,CuDef*
G36*
G01*
X25156250Y-37525000D02*
X24643750Y-37525000D01*
G75*
G02*
X24425000Y-37306250I0J218750D01*
G01*
X24425000Y-36868750D01*
G75*
G02*
X24643750Y-36650000I218750J0D01*
G01*
X25156250Y-36650000D01*
G75*
G02*
X25375000Y-36868750I0J-218750D01*
G01*
X25375000Y-37306250D01*
G75*
G02*
X25156250Y-37525000I-218750J0D01*
G01*
G37*
G04 #@! TD.AperFunction*
G04 #@! TD*
G04 #@! TO.P,D77,2*
G04 #@! TO.N,/NL10*
G04 #@! TA.AperFunction,SMDPad,CuDef*
G36*
G01*
X28356250Y-35150000D02*
X27843750Y-35150000D01*
G75*
G02*
X27625000Y-34931250I0J218750D01*
G01*
X27625000Y-34493750D01*
G75*
G02*
X27843750Y-34275000I218750J0D01*
G01*
X28356250Y-34275000D01*
G75*
G02*
X28575000Y-34493750I0J-218750D01*
G01*
X28575000Y-34931250D01*
G75*
G02*
X28356250Y-35150000I-218750J0D01*
G01*
G37*
G04 #@! TD.AperFunction*
G04 #@! TO.P,D77,1*
G04 #@! TO.N,/NL07*
G04 #@! TA.AperFunction,SMDPad,CuDef*
G36*
G01*
X28356250Y-36725000D02*
X27843750Y-36725000D01*
G75*
G02*
X27625000Y-36506250I0J218750D01*
G01*
X27625000Y-36068750D01*
G75*
G02*
X27843750Y-35850000I218750J0D01*
G01*
X28356250Y-35850000D01*
G75*
G02*
X28575000Y-36068750I0J-218750D01*
G01*
X28575000Y-36506250D01*
G75*
G02*
X28356250Y-36725000I-218750J0D01*
G01*
G37*
G04 #@! TD.AperFunction*
G04 #@! TD*
G04 #@! TO.P,D76,2*
G04 #@! TO.N,/NL08*
G04 #@! TA.AperFunction,SMDPad,CuDef*
G36*
G01*
X32850000Y-35643750D02*
X32850000Y-36156250D01*
G75*
G02*
X32631250Y-36375000I-218750J0D01*
G01*
X32193750Y-36375000D01*
G75*
G02*
X31975000Y-36156250I0J218750D01*
G01*
X31975000Y-35643750D01*
G75*
G02*
X32193750Y-35425000I218750J0D01*
G01*
X32631250Y-35425000D01*
G75*
G02*
X32850000Y-35643750I0J-218750D01*
G01*
G37*
G04 #@! TD.AperFunction*
G04 #@! TO.P,D76,1*
G04 #@! TO.N,/NL10*
G04 #@! TA.AperFunction,SMDPad,CuDef*
G36*
G01*
X34425000Y-35643750D02*
X34425000Y-36156250D01*
G75*
G02*
X34206250Y-36375000I-218750J0D01*
G01*
X33768750Y-36375000D01*
G75*
G02*
X33550000Y-36156250I0J218750D01*
G01*
X33550000Y-35643750D01*
G75*
G02*
X33768750Y-35425000I218750J0D01*
G01*
X34206250Y-35425000D01*
G75*
G02*
X34425000Y-35643750I0J-218750D01*
G01*
G37*
G04 #@! TD.AperFunction*
G04 #@! TD*
G04 #@! TO.P,D75,2*
G04 #@! TO.N,/NL10*
G04 #@! TA.AperFunction,SMDPad,CuDef*
G36*
G01*
X38450000Y-34456250D02*
X38450000Y-33943750D01*
G75*
G02*
X38668750Y-33725000I218750J0D01*
G01*
X39106250Y-33725000D01*
G75*
G02*
X39325000Y-33943750I0J-218750D01*
G01*
X39325000Y-34456250D01*
G75*
G02*
X39106250Y-34675000I-218750J0D01*
G01*
X38668750Y-34675000D01*
G75*
G02*
X38450000Y-34456250I0J218750D01*
G01*
G37*
G04 #@! TD.AperFunction*
G04 #@! TO.P,D75,1*
G04 #@! TO.N,/NL08*
G04 #@! TA.AperFunction,SMDPad,CuDef*
G36*
G01*
X36875000Y-34456250D02*
X36875000Y-33943750D01*
G75*
G02*
X37093750Y-33725000I218750J0D01*
G01*
X37531250Y-33725000D01*
G75*
G02*
X37750000Y-33943750I0J-218750D01*
G01*
X37750000Y-34456250D01*
G75*
G02*
X37531250Y-34675000I-218750J0D01*
G01*
X37093750Y-34675000D01*
G75*
G02*
X36875000Y-34456250I0J218750D01*
G01*
G37*
G04 #@! TD.AperFunction*
G04 #@! TD*
G04 #@! TO.P,D74,2*
G04 #@! TO.N,/NL09*
G04 #@! TA.AperFunction,SMDPad,CuDef*
G36*
G01*
X3756250Y-40050000D02*
X3243750Y-40050000D01*
G75*
G02*
X3025000Y-39831250I0J218750D01*
G01*
X3025000Y-39393750D01*
G75*
G02*
X3243750Y-39175000I218750J0D01*
G01*
X3756250Y-39175000D01*
G75*
G02*
X3975000Y-39393750I0J-218750D01*
G01*
X3975000Y-39831250D01*
G75*
G02*
X3756250Y-40050000I-218750J0D01*
G01*
G37*
G04 #@! TD.AperFunction*
G04 #@! TO.P,D74,1*
G04 #@! TO.N,/NL10*
G04 #@! TA.AperFunction,SMDPad,CuDef*
G36*
G01*
X3756250Y-41625000D02*
X3243750Y-41625000D01*
G75*
G02*
X3025000Y-41406250I0J218750D01*
G01*
X3025000Y-40968750D01*
G75*
G02*
X3243750Y-40750000I218750J0D01*
G01*
X3756250Y-40750000D01*
G75*
G02*
X3975000Y-40968750I0J-218750D01*
G01*
X3975000Y-41406250D01*
G75*
G02*
X3756250Y-41625000I-218750J0D01*
G01*
G37*
G04 #@! TD.AperFunction*
G04 #@! TD*
G04 #@! TO.P,D73,2*
G04 #@! TO.N,/NL10*
G04 #@! TA.AperFunction,SMDPad,CuDef*
G36*
G01*
X6756250Y-41350000D02*
X6243750Y-41350000D01*
G75*
G02*
X6025000Y-41131250I0J218750D01*
G01*
X6025000Y-40693750D01*
G75*
G02*
X6243750Y-40475000I218750J0D01*
G01*
X6756250Y-40475000D01*
G75*
G02*
X6975000Y-40693750I0J-218750D01*
G01*
X6975000Y-41131250D01*
G75*
G02*
X6756250Y-41350000I-218750J0D01*
G01*
G37*
G04 #@! TD.AperFunction*
G04 #@! TO.P,D73,1*
G04 #@! TO.N,/NL09*
G04 #@! TA.AperFunction,SMDPad,CuDef*
G36*
G01*
X6756250Y-42925000D02*
X6243750Y-42925000D01*
G75*
G02*
X6025000Y-42706250I0J218750D01*
G01*
X6025000Y-42268750D01*
G75*
G02*
X6243750Y-42050000I218750J0D01*
G01*
X6756250Y-42050000D01*
G75*
G02*
X6975000Y-42268750I0J-218750D01*
G01*
X6975000Y-42706250D01*
G75*
G02*
X6756250Y-42925000I-218750J0D01*
G01*
G37*
G04 #@! TD.AperFunction*
G04 #@! TD*
G04 #@! TO.P,D72,2*
G04 #@! TO.N,/NL01*
G04 #@! TA.AperFunction,SMDPad,CuDef*
G36*
G01*
X13650000Y-44856250D02*
X13650000Y-44343750D01*
G75*
G02*
X13868750Y-44125000I218750J0D01*
G01*
X14306250Y-44125000D01*
G75*
G02*
X14525000Y-44343750I0J-218750D01*
G01*
X14525000Y-44856250D01*
G75*
G02*
X14306250Y-45075000I-218750J0D01*
G01*
X13868750Y-45075000D01*
G75*
G02*
X13650000Y-44856250I0J218750D01*
G01*
G37*
G04 #@! TD.AperFunction*
G04 #@! TO.P,D72,1*
G04 #@! TO.N,/NL09*
G04 #@! TA.AperFunction,SMDPad,CuDef*
G36*
G01*
X12075000Y-44856250D02*
X12075000Y-44343750D01*
G75*
G02*
X12293750Y-44125000I218750J0D01*
G01*
X12731250Y-44125000D01*
G75*
G02*
X12950000Y-44343750I0J-218750D01*
G01*
X12950000Y-44856250D01*
G75*
G02*
X12731250Y-45075000I-218750J0D01*
G01*
X12293750Y-45075000D01*
G75*
G02*
X12075000Y-44856250I0J218750D01*
G01*
G37*
G04 #@! TD.AperFunction*
G04 #@! TD*
G04 #@! TO.P,D71,2*
G04 #@! TO.N,/NL09*
G04 #@! TA.AperFunction,SMDPad,CuDef*
G36*
G01*
X19756250Y-45950000D02*
X19243750Y-45950000D01*
G75*
G02*
X19025000Y-45731250I0J218750D01*
G01*
X19025000Y-45293750D01*
G75*
G02*
X19243750Y-45075000I218750J0D01*
G01*
X19756250Y-45075000D01*
G75*
G02*
X19975000Y-45293750I0J-218750D01*
G01*
X19975000Y-45731250D01*
G75*
G02*
X19756250Y-45950000I-218750J0D01*
G01*
G37*
G04 #@! TD.AperFunction*
G04 #@! TO.P,D71,1*
G04 #@! TO.N,/NL01*
G04 #@! TA.AperFunction,SMDPad,CuDef*
G36*
G01*
X19756250Y-47525000D02*
X19243750Y-47525000D01*
G75*
G02*
X19025000Y-47306250I0J218750D01*
G01*
X19025000Y-46868750D01*
G75*
G02*
X19243750Y-46650000I218750J0D01*
G01*
X19756250Y-46650000D01*
G75*
G02*
X19975000Y-46868750I0J-218750D01*
G01*
X19975000Y-47306250D01*
G75*
G02*
X19756250Y-47525000I-218750J0D01*
G01*
G37*
G04 #@! TD.AperFunction*
G04 #@! TD*
G04 #@! TO.P,D70,2*
G04 #@! TO.N,/NL02*
G04 #@! TA.AperFunction,SMDPad,CuDef*
G36*
G01*
X12650000Y-51956250D02*
X12650000Y-51443750D01*
G75*
G02*
X12868750Y-51225000I218750J0D01*
G01*
X13306250Y-51225000D01*
G75*
G02*
X13525000Y-51443750I0J-218750D01*
G01*
X13525000Y-51956250D01*
G75*
G02*
X13306250Y-52175000I-218750J0D01*
G01*
X12868750Y-52175000D01*
G75*
G02*
X12650000Y-51956250I0J218750D01*
G01*
G37*
G04 #@! TD.AperFunction*
G04 #@! TO.P,D70,1*
G04 #@! TO.N,/NL09*
G04 #@! TA.AperFunction,SMDPad,CuDef*
G36*
G01*
X11075000Y-51956250D02*
X11075000Y-51443750D01*
G75*
G02*
X11293750Y-51225000I218750J0D01*
G01*
X11731250Y-51225000D01*
G75*
G02*
X11950000Y-51443750I0J-218750D01*
G01*
X11950000Y-51956250D01*
G75*
G02*
X11731250Y-52175000I-218750J0D01*
G01*
X11293750Y-52175000D01*
G75*
G02*
X11075000Y-51956250I0J218750D01*
G01*
G37*
G04 #@! TD.AperFunction*
G04 #@! TD*
G04 #@! TO.P,D69,2*
G04 #@! TO.N,/NL09*
G04 #@! TA.AperFunction,SMDPad,CuDef*
G36*
G01*
X8850000Y-49656250D02*
X8850000Y-49143750D01*
G75*
G02*
X9068750Y-48925000I218750J0D01*
G01*
X9506250Y-48925000D01*
G75*
G02*
X9725000Y-49143750I0J-218750D01*
G01*
X9725000Y-49656250D01*
G75*
G02*
X9506250Y-49875000I-218750J0D01*
G01*
X9068750Y-49875000D01*
G75*
G02*
X8850000Y-49656250I0J218750D01*
G01*
G37*
G04 #@! TD.AperFunction*
G04 #@! TO.P,D69,1*
G04 #@! TO.N,/NL02*
G04 #@! TA.AperFunction,SMDPad,CuDef*
G36*
G01*
X7275000Y-49656250D02*
X7275000Y-49143750D01*
G75*
G02*
X7493750Y-48925000I218750J0D01*
G01*
X7931250Y-48925000D01*
G75*
G02*
X8150000Y-49143750I0J-218750D01*
G01*
X8150000Y-49656250D01*
G75*
G02*
X7931250Y-49875000I-218750J0D01*
G01*
X7493750Y-49875000D01*
G75*
G02*
X7275000Y-49656250I0J218750D01*
G01*
G37*
G04 #@! TD.AperFunction*
G04 #@! TD*
G04 #@! TO.P,D68,2*
G04 #@! TO.N,/NL03*
G04 #@! TA.AperFunction,SMDPad,CuDef*
G36*
G01*
X6450000Y-46756250D02*
X6450000Y-46243750D01*
G75*
G02*
X6668750Y-46025000I218750J0D01*
G01*
X7106250Y-46025000D01*
G75*
G02*
X7325000Y-46243750I0J-218750D01*
G01*
X7325000Y-46756250D01*
G75*
G02*
X7106250Y-46975000I-218750J0D01*
G01*
X6668750Y-46975000D01*
G75*
G02*
X6450000Y-46756250I0J218750D01*
G01*
G37*
G04 #@! TD.AperFunction*
G04 #@! TO.P,D68,1*
G04 #@! TO.N,/NL09*
G04 #@! TA.AperFunction,SMDPad,CuDef*
G36*
G01*
X4875000Y-46756250D02*
X4875000Y-46243750D01*
G75*
G02*
X5093750Y-46025000I218750J0D01*
G01*
X5531250Y-46025000D01*
G75*
G02*
X5750000Y-46243750I0J-218750D01*
G01*
X5750000Y-46756250D01*
G75*
G02*
X5531250Y-46975000I-218750J0D01*
G01*
X5093750Y-46975000D01*
G75*
G02*
X4875000Y-46756250I0J218750D01*
G01*
G37*
G04 #@! TD.AperFunction*
G04 #@! TD*
G04 #@! TO.P,D67,2*
G04 #@! TO.N,/NL09*
G04 #@! TA.AperFunction,SMDPad,CuDef*
G36*
G01*
X1956250Y-52950000D02*
X1443750Y-52950000D01*
G75*
G02*
X1225000Y-52731250I0J218750D01*
G01*
X1225000Y-52293750D01*
G75*
G02*
X1443750Y-52075000I218750J0D01*
G01*
X1956250Y-52075000D01*
G75*
G02*
X2175000Y-52293750I0J-218750D01*
G01*
X2175000Y-52731250D01*
G75*
G02*
X1956250Y-52950000I-218750J0D01*
G01*
G37*
G04 #@! TD.AperFunction*
G04 #@! TO.P,D67,1*
G04 #@! TO.N,/NL03*
G04 #@! TA.AperFunction,SMDPad,CuDef*
G36*
G01*
X1956250Y-54525000D02*
X1443750Y-54525000D01*
G75*
G02*
X1225000Y-54306250I0J218750D01*
G01*
X1225000Y-53868750D01*
G75*
G02*
X1443750Y-53650000I218750J0D01*
G01*
X1956250Y-53650000D01*
G75*
G02*
X2175000Y-53868750I0J-218750D01*
G01*
X2175000Y-54306250D01*
G75*
G02*
X1956250Y-54525000I-218750J0D01*
G01*
G37*
G04 #@! TD.AperFunction*
G04 #@! TD*
G04 #@! TO.P,D66,2*
G04 #@! TO.N,/NL04*
G04 #@! TA.AperFunction,SMDPad,CuDef*
G36*
G01*
X4956250Y-52950000D02*
X4443750Y-52950000D01*
G75*
G02*
X4225000Y-52731250I0J218750D01*
G01*
X4225000Y-52293750D01*
G75*
G02*
X4443750Y-52075000I218750J0D01*
G01*
X4956250Y-52075000D01*
G75*
G02*
X5175000Y-52293750I0J-218750D01*
G01*
X5175000Y-52731250D01*
G75*
G02*
X4956250Y-52950000I-218750J0D01*
G01*
G37*
G04 #@! TD.AperFunction*
G04 #@! TO.P,D66,1*
G04 #@! TO.N,/NL09*
G04 #@! TA.AperFunction,SMDPad,CuDef*
G36*
G01*
X4956250Y-54525000D02*
X4443750Y-54525000D01*
G75*
G02*
X4225000Y-54306250I0J218750D01*
G01*
X4225000Y-53868750D01*
G75*
G02*
X4443750Y-53650000I218750J0D01*
G01*
X4956250Y-53650000D01*
G75*
G02*
X5175000Y-53868750I0J-218750D01*
G01*
X5175000Y-54306250D01*
G75*
G02*
X4956250Y-54525000I-218750J0D01*
G01*
G37*
G04 #@! TD.AperFunction*
G04 #@! TD*
G04 #@! TO.P,D65,2*
G04 #@! TO.N,/NL09*
G04 #@! TA.AperFunction,SMDPad,CuDef*
G36*
G01*
X9950000Y-53656250D02*
X9950000Y-53143750D01*
G75*
G02*
X10168750Y-52925000I218750J0D01*
G01*
X10606250Y-52925000D01*
G75*
G02*
X10825000Y-53143750I0J-218750D01*
G01*
X10825000Y-53656250D01*
G75*
G02*
X10606250Y-53875000I-218750J0D01*
G01*
X10168750Y-53875000D01*
G75*
G02*
X9950000Y-53656250I0J218750D01*
G01*
G37*
G04 #@! TD.AperFunction*
G04 #@! TO.P,D65,1*
G04 #@! TO.N,/NL04*
G04 #@! TA.AperFunction,SMDPad,CuDef*
G36*
G01*
X8375000Y-53656250D02*
X8375000Y-53143750D01*
G75*
G02*
X8593750Y-52925000I218750J0D01*
G01*
X9031250Y-52925000D01*
G75*
G02*
X9250000Y-53143750I0J-218750D01*
G01*
X9250000Y-53656250D01*
G75*
G02*
X9031250Y-53875000I-218750J0D01*
G01*
X8593750Y-53875000D01*
G75*
G02*
X8375000Y-53656250I0J218750D01*
G01*
G37*
G04 #@! TD.AperFunction*
G04 #@! TD*
G04 #@! TO.P,D64,2*
G04 #@! TO.N,/NL05*
G04 #@! TA.AperFunction,SMDPad,CuDef*
G36*
G01*
X16950000Y-53456250D02*
X16950000Y-52943750D01*
G75*
G02*
X17168750Y-52725000I218750J0D01*
G01*
X17606250Y-52725000D01*
G75*
G02*
X17825000Y-52943750I0J-218750D01*
G01*
X17825000Y-53456250D01*
G75*
G02*
X17606250Y-53675000I-218750J0D01*
G01*
X17168750Y-53675000D01*
G75*
G02*
X16950000Y-53456250I0J218750D01*
G01*
G37*
G04 #@! TD.AperFunction*
G04 #@! TO.P,D64,1*
G04 #@! TO.N,/NL09*
G04 #@! TA.AperFunction,SMDPad,CuDef*
G36*
G01*
X15375000Y-53456250D02*
X15375000Y-52943750D01*
G75*
G02*
X15593750Y-52725000I218750J0D01*
G01*
X16031250Y-52725000D01*
G75*
G02*
X16250000Y-52943750I0J-218750D01*
G01*
X16250000Y-53456250D01*
G75*
G02*
X16031250Y-53675000I-218750J0D01*
G01*
X15593750Y-53675000D01*
G75*
G02*
X15375000Y-53456250I0J218750D01*
G01*
G37*
G04 #@! TD.AperFunction*
G04 #@! TD*
G04 #@! TO.P,D63,2*
G04 #@! TO.N,/NL09*
G04 #@! TA.AperFunction,SMDPad,CuDef*
G36*
G01*
X22350000Y-53656250D02*
X22350000Y-53143750D01*
G75*
G02*
X22568750Y-52925000I218750J0D01*
G01*
X23006250Y-52925000D01*
G75*
G02*
X23225000Y-53143750I0J-218750D01*
G01*
X23225000Y-53656250D01*
G75*
G02*
X23006250Y-53875000I-218750J0D01*
G01*
X22568750Y-53875000D01*
G75*
G02*
X22350000Y-53656250I0J218750D01*
G01*
G37*
G04 #@! TD.AperFunction*
G04 #@! TO.P,D63,1*
G04 #@! TO.N,/NL05*
G04 #@! TA.AperFunction,SMDPad,CuDef*
G36*
G01*
X20775000Y-53656250D02*
X20775000Y-53143750D01*
G75*
G02*
X20993750Y-52925000I218750J0D01*
G01*
X21431250Y-52925000D01*
G75*
G02*
X21650000Y-53143750I0J-218750D01*
G01*
X21650000Y-53656250D01*
G75*
G02*
X21431250Y-53875000I-218750J0D01*
G01*
X20993750Y-53875000D01*
G75*
G02*
X20775000Y-53656250I0J218750D01*
G01*
G37*
G04 #@! TD.AperFunction*
G04 #@! TD*
G04 #@! TO.P,D62,2*
G04 #@! TO.N,/NL06*
G04 #@! TA.AperFunction,SMDPad,CuDef*
G36*
G01*
X20950000Y-57756250D02*
X20950000Y-57243750D01*
G75*
G02*
X21168750Y-57025000I218750J0D01*
G01*
X21606250Y-57025000D01*
G75*
G02*
X21825000Y-57243750I0J-218750D01*
G01*
X21825000Y-57756250D01*
G75*
G02*
X21606250Y-57975000I-218750J0D01*
G01*
X21168750Y-57975000D01*
G75*
G02*
X20950000Y-57756250I0J218750D01*
G01*
G37*
G04 #@! TD.AperFunction*
G04 #@! TO.P,D62,1*
G04 #@! TO.N,/NL09*
G04 #@! TA.AperFunction,SMDPad,CuDef*
G36*
G01*
X19375000Y-57756250D02*
X19375000Y-57243750D01*
G75*
G02*
X19593750Y-57025000I218750J0D01*
G01*
X20031250Y-57025000D01*
G75*
G02*
X20250000Y-57243750I0J-218750D01*
G01*
X20250000Y-57756250D01*
G75*
G02*
X20031250Y-57975000I-218750J0D01*
G01*
X19593750Y-57975000D01*
G75*
G02*
X19375000Y-57756250I0J218750D01*
G01*
G37*
G04 #@! TD.AperFunction*
G04 #@! TD*
G04 #@! TO.P,D61,2*
G04 #@! TO.N,/NL09*
G04 #@! TA.AperFunction,SMDPad,CuDef*
G36*
G01*
X15050000Y-60556250D02*
X15050000Y-60043750D01*
G75*
G02*
X15268750Y-59825000I218750J0D01*
G01*
X15706250Y-59825000D01*
G75*
G02*
X15925000Y-60043750I0J-218750D01*
G01*
X15925000Y-60556250D01*
G75*
G02*
X15706250Y-60775000I-218750J0D01*
G01*
X15268750Y-60775000D01*
G75*
G02*
X15050000Y-60556250I0J218750D01*
G01*
G37*
G04 #@! TD.AperFunction*
G04 #@! TO.P,D61,1*
G04 #@! TO.N,/NL06*
G04 #@! TA.AperFunction,SMDPad,CuDef*
G36*
G01*
X13475000Y-60556250D02*
X13475000Y-60043750D01*
G75*
G02*
X13693750Y-59825000I218750J0D01*
G01*
X14131250Y-59825000D01*
G75*
G02*
X14350000Y-60043750I0J-218750D01*
G01*
X14350000Y-60556250D01*
G75*
G02*
X14131250Y-60775000I-218750J0D01*
G01*
X13693750Y-60775000D01*
G75*
G02*
X13475000Y-60556250I0J218750D01*
G01*
G37*
G04 #@! TD.AperFunction*
G04 #@! TD*
G04 #@! TO.P,D60,2*
G04 #@! TO.N,/NL07*
G04 #@! TA.AperFunction,SMDPad,CuDef*
G36*
G01*
X8150000Y-61156250D02*
X8150000Y-60643750D01*
G75*
G02*
X8368750Y-60425000I218750J0D01*
G01*
X8806250Y-60425000D01*
G75*
G02*
X9025000Y-60643750I0J-218750D01*
G01*
X9025000Y-61156250D01*
G75*
G02*
X8806250Y-61375000I-218750J0D01*
G01*
X8368750Y-61375000D01*
G75*
G02*
X8150000Y-61156250I0J218750D01*
G01*
G37*
G04 #@! TD.AperFunction*
G04 #@! TO.P,D60,1*
G04 #@! TO.N,/NL09*
G04 #@! TA.AperFunction,SMDPad,CuDef*
G36*
G01*
X6575000Y-61156250D02*
X6575000Y-60643750D01*
G75*
G02*
X6793750Y-60425000I218750J0D01*
G01*
X7231250Y-60425000D01*
G75*
G02*
X7450000Y-60643750I0J-218750D01*
G01*
X7450000Y-61156250D01*
G75*
G02*
X7231250Y-61375000I-218750J0D01*
G01*
X6793750Y-61375000D01*
G75*
G02*
X6575000Y-61156250I0J218750D01*
G01*
G37*
G04 #@! TD.AperFunction*
G04 #@! TD*
G04 #@! TO.P,D59,2*
G04 #@! TO.N,/NL09*
G04 #@! TA.AperFunction,SMDPad,CuDef*
G36*
G01*
X27650000Y-53456250D02*
X27650000Y-52943750D01*
G75*
G02*
X27868750Y-52725000I218750J0D01*
G01*
X28306250Y-52725000D01*
G75*
G02*
X28525000Y-52943750I0J-218750D01*
G01*
X28525000Y-53456250D01*
G75*
G02*
X28306250Y-53675000I-218750J0D01*
G01*
X27868750Y-53675000D01*
G75*
G02*
X27650000Y-53456250I0J218750D01*
G01*
G37*
G04 #@! TD.AperFunction*
G04 #@! TO.P,D59,1*
G04 #@! TO.N,/NL07*
G04 #@! TA.AperFunction,SMDPad,CuDef*
G36*
G01*
X26075000Y-53456250D02*
X26075000Y-52943750D01*
G75*
G02*
X26293750Y-52725000I218750J0D01*
G01*
X26731250Y-52725000D01*
G75*
G02*
X26950000Y-52943750I0J-218750D01*
G01*
X26950000Y-53456250D01*
G75*
G02*
X26731250Y-53675000I-218750J0D01*
G01*
X26293750Y-53675000D01*
G75*
G02*
X26075000Y-53456250I0J218750D01*
G01*
G37*
G04 #@! TD.AperFunction*
G04 #@! TD*
G04 #@! TO.P,D58,2*
G04 #@! TO.N,/NL08*
G04 #@! TA.AperFunction,SMDPad,CuDef*
G36*
G01*
X25856250Y-48650000D02*
X25343750Y-48650000D01*
G75*
G02*
X25125000Y-48431250I0J218750D01*
G01*
X25125000Y-47993750D01*
G75*
G02*
X25343750Y-47775000I218750J0D01*
G01*
X25856250Y-47775000D01*
G75*
G02*
X26075000Y-47993750I0J-218750D01*
G01*
X26075000Y-48431250D01*
G75*
G02*
X25856250Y-48650000I-218750J0D01*
G01*
G37*
G04 #@! TD.AperFunction*
G04 #@! TO.P,D58,1*
G04 #@! TO.N,/NL09*
G04 #@! TA.AperFunction,SMDPad,CuDef*
G36*
G01*
X25856250Y-50225000D02*
X25343750Y-50225000D01*
G75*
G02*
X25125000Y-50006250I0J218750D01*
G01*
X25125000Y-49568750D01*
G75*
G02*
X25343750Y-49350000I218750J0D01*
G01*
X25856250Y-49350000D01*
G75*
G02*
X26075000Y-49568750I0J-218750D01*
G01*
X26075000Y-50006250D01*
G75*
G02*
X25856250Y-50225000I-218750J0D01*
G01*
G37*
G04 #@! TD.AperFunction*
G04 #@! TD*
G04 #@! TO.P,D57,2*
G04 #@! TO.N,/NL09*
G04 #@! TA.AperFunction,SMDPad,CuDef*
G36*
G01*
X23256250Y-47450000D02*
X22743750Y-47450000D01*
G75*
G02*
X22525000Y-47231250I0J218750D01*
G01*
X22525000Y-46793750D01*
G75*
G02*
X22743750Y-46575000I218750J0D01*
G01*
X23256250Y-46575000D01*
G75*
G02*
X23475000Y-46793750I0J-218750D01*
G01*
X23475000Y-47231250D01*
G75*
G02*
X23256250Y-47450000I-218750J0D01*
G01*
G37*
G04 #@! TD.AperFunction*
G04 #@! TO.P,D57,1*
G04 #@! TO.N,/NL08*
G04 #@! TA.AperFunction,SMDPad,CuDef*
G36*
G01*
X23256250Y-49025000D02*
X22743750Y-49025000D01*
G75*
G02*
X22525000Y-48806250I0J218750D01*
G01*
X22525000Y-48368750D01*
G75*
G02*
X22743750Y-48150000I218750J0D01*
G01*
X23256250Y-48150000D01*
G75*
G02*
X23475000Y-48368750I0J-218750D01*
G01*
X23475000Y-48806250D01*
G75*
G02*
X23256250Y-49025000I-218750J0D01*
G01*
G37*
G04 #@! TD.AperFunction*
G04 #@! TD*
G04 #@! TO.P,D56,2*
G04 #@! TO.N,/NL01*
G04 #@! TA.AperFunction,SMDPad,CuDef*
G36*
G01*
X44256250Y-26450000D02*
X43743750Y-26450000D01*
G75*
G02*
X43525000Y-26231250I0J218750D01*
G01*
X43525000Y-25793750D01*
G75*
G02*
X43743750Y-25575000I218750J0D01*
G01*
X44256250Y-25575000D01*
G75*
G02*
X44475000Y-25793750I0J-218750D01*
G01*
X44475000Y-26231250D01*
G75*
G02*
X44256250Y-26450000I-218750J0D01*
G01*
G37*
G04 #@! TD.AperFunction*
G04 #@! TO.P,D56,1*
G04 #@! TO.N,/NL08*
G04 #@! TA.AperFunction,SMDPad,CuDef*
G36*
G01*
X44256250Y-28025000D02*
X43743750Y-28025000D01*
G75*
G02*
X43525000Y-27806250I0J218750D01*
G01*
X43525000Y-27368750D01*
G75*
G02*
X43743750Y-27150000I218750J0D01*
G01*
X44256250Y-27150000D01*
G75*
G02*
X44475000Y-27368750I0J-218750D01*
G01*
X44475000Y-27806250D01*
G75*
G02*
X44256250Y-28025000I-218750J0D01*
G01*
G37*
G04 #@! TD.AperFunction*
G04 #@! TD*
G04 #@! TO.P,D55,2*
G04 #@! TO.N,/NL08*
G04 #@! TA.AperFunction,SMDPad,CuDef*
G36*
G01*
X40456250Y-23450000D02*
X39943750Y-23450000D01*
G75*
G02*
X39725000Y-23231250I0J218750D01*
G01*
X39725000Y-22793750D01*
G75*
G02*
X39943750Y-22575000I218750J0D01*
G01*
X40456250Y-22575000D01*
G75*
G02*
X40675000Y-22793750I0J-218750D01*
G01*
X40675000Y-23231250D01*
G75*
G02*
X40456250Y-23450000I-218750J0D01*
G01*
G37*
G04 #@! TD.AperFunction*
G04 #@! TO.P,D55,1*
G04 #@! TO.N,/NL01*
G04 #@! TA.AperFunction,SMDPad,CuDef*
G36*
G01*
X40456250Y-25025000D02*
X39943750Y-25025000D01*
G75*
G02*
X39725000Y-24806250I0J218750D01*
G01*
X39725000Y-24368750D01*
G75*
G02*
X39943750Y-24150000I218750J0D01*
G01*
X40456250Y-24150000D01*
G75*
G02*
X40675000Y-24368750I0J-218750D01*
G01*
X40675000Y-24806250D01*
G75*
G02*
X40456250Y-25025000I-218750J0D01*
G01*
G37*
G04 #@! TD.AperFunction*
G04 #@! TD*
G04 #@! TO.P,D54,2*
G04 #@! TO.N,/NL02*
G04 #@! TA.AperFunction,SMDPad,CuDef*
G36*
G01*
X36056250Y-24550000D02*
X35543750Y-24550000D01*
G75*
G02*
X35325000Y-24331250I0J218750D01*
G01*
X35325000Y-23893750D01*
G75*
G02*
X35543750Y-23675000I218750J0D01*
G01*
X36056250Y-23675000D01*
G75*
G02*
X36275000Y-23893750I0J-218750D01*
G01*
X36275000Y-24331250D01*
G75*
G02*
X36056250Y-24550000I-218750J0D01*
G01*
G37*
G04 #@! TD.AperFunction*
G04 #@! TO.P,D54,1*
G04 #@! TO.N,/NL08*
G04 #@! TA.AperFunction,SMDPad,CuDef*
G36*
G01*
X36056250Y-26125000D02*
X35543750Y-26125000D01*
G75*
G02*
X35325000Y-25906250I0J218750D01*
G01*
X35325000Y-25468750D01*
G75*
G02*
X35543750Y-25250000I218750J0D01*
G01*
X36056250Y-25250000D01*
G75*
G02*
X36275000Y-25468750I0J-218750D01*
G01*
X36275000Y-25906250D01*
G75*
G02*
X36056250Y-26125000I-218750J0D01*
G01*
G37*
G04 #@! TD.AperFunction*
G04 #@! TD*
G04 #@! TO.P,D53,2*
G04 #@! TO.N,/NL08*
G04 #@! TA.AperFunction,SMDPad,CuDef*
G36*
G01*
X29256250Y-27450000D02*
X28743750Y-27450000D01*
G75*
G02*
X28525000Y-27231250I0J218750D01*
G01*
X28525000Y-26793750D01*
G75*
G02*
X28743750Y-26575000I218750J0D01*
G01*
X29256250Y-26575000D01*
G75*
G02*
X29475000Y-26793750I0J-218750D01*
G01*
X29475000Y-27231250D01*
G75*
G02*
X29256250Y-27450000I-218750J0D01*
G01*
G37*
G04 #@! TD.AperFunction*
G04 #@! TO.P,D53,1*
G04 #@! TO.N,/NL02*
G04 #@! TA.AperFunction,SMDPad,CuDef*
G36*
G01*
X29256250Y-29025000D02*
X28743750Y-29025000D01*
G75*
G02*
X28525000Y-28806250I0J218750D01*
G01*
X28525000Y-28368750D01*
G75*
G02*
X28743750Y-28150000I218750J0D01*
G01*
X29256250Y-28150000D01*
G75*
G02*
X29475000Y-28368750I0J-218750D01*
G01*
X29475000Y-28806250D01*
G75*
G02*
X29256250Y-29025000I-218750J0D01*
G01*
G37*
G04 #@! TD.AperFunction*
G04 #@! TD*
G04 #@! TO.P,D52,2*
G04 #@! TO.N,/NL03*
G04 #@! TA.AperFunction,SMDPad,CuDef*
G36*
G01*
X31650000Y-32056250D02*
X31650000Y-31543750D01*
G75*
G02*
X31868750Y-31325000I218750J0D01*
G01*
X32306250Y-31325000D01*
G75*
G02*
X32525000Y-31543750I0J-218750D01*
G01*
X32525000Y-32056250D01*
G75*
G02*
X32306250Y-32275000I-218750J0D01*
G01*
X31868750Y-32275000D01*
G75*
G02*
X31650000Y-32056250I0J218750D01*
G01*
G37*
G04 #@! TD.AperFunction*
G04 #@! TO.P,D52,1*
G04 #@! TO.N,/NL08*
G04 #@! TA.AperFunction,SMDPad,CuDef*
G36*
G01*
X30075000Y-32056250D02*
X30075000Y-31543750D01*
G75*
G02*
X30293750Y-31325000I218750J0D01*
G01*
X30731250Y-31325000D01*
G75*
G02*
X30950000Y-31543750I0J-218750D01*
G01*
X30950000Y-32056250D01*
G75*
G02*
X30731250Y-32275000I-218750J0D01*
G01*
X30293750Y-32275000D01*
G75*
G02*
X30075000Y-32056250I0J218750D01*
G01*
G37*
G04 #@! TD.AperFunction*
G04 #@! TD*
G04 #@! TO.P,D51,2*
G04 #@! TO.N,/NL08*
G04 #@! TA.AperFunction,SMDPad,CuDef*
G36*
G01*
X36956250Y-30850000D02*
X36443750Y-30850000D01*
G75*
G02*
X36225000Y-30631250I0J218750D01*
G01*
X36225000Y-30193750D01*
G75*
G02*
X36443750Y-29975000I218750J0D01*
G01*
X36956250Y-29975000D01*
G75*
G02*
X37175000Y-30193750I0J-218750D01*
G01*
X37175000Y-30631250D01*
G75*
G02*
X36956250Y-30850000I-218750J0D01*
G01*
G37*
G04 #@! TD.AperFunction*
G04 #@! TO.P,D51,1*
G04 #@! TO.N,/NL03*
G04 #@! TA.AperFunction,SMDPad,CuDef*
G36*
G01*
X36956250Y-32425000D02*
X36443750Y-32425000D01*
G75*
G02*
X36225000Y-32206250I0J218750D01*
G01*
X36225000Y-31768750D01*
G75*
G02*
X36443750Y-31550000I218750J0D01*
G01*
X36956250Y-31550000D01*
G75*
G02*
X37175000Y-31768750I0J-218750D01*
G01*
X37175000Y-32206250D01*
G75*
G02*
X36956250Y-32425000I-218750J0D01*
G01*
G37*
G04 #@! TD.AperFunction*
G04 #@! TD*
G04 #@! TO.P,D50,2*
G04 #@! TO.N,/NL04*
G04 #@! TA.AperFunction,SMDPad,CuDef*
G36*
G01*
X40750000Y-29656250D02*
X40750000Y-29143750D01*
G75*
G02*
X40968750Y-28925000I218750J0D01*
G01*
X41406250Y-28925000D01*
G75*
G02*
X41625000Y-29143750I0J-218750D01*
G01*
X41625000Y-29656250D01*
G75*
G02*
X41406250Y-29875000I-218750J0D01*
G01*
X40968750Y-29875000D01*
G75*
G02*
X40750000Y-29656250I0J218750D01*
G01*
G37*
G04 #@! TD.AperFunction*
G04 #@! TO.P,D50,1*
G04 #@! TO.N,/NL08*
G04 #@! TA.AperFunction,SMDPad,CuDef*
G36*
G01*
X39175000Y-29656250D02*
X39175000Y-29143750D01*
G75*
G02*
X39393750Y-28925000I218750J0D01*
G01*
X39831250Y-28925000D01*
G75*
G02*
X40050000Y-29143750I0J-218750D01*
G01*
X40050000Y-29656250D01*
G75*
G02*
X39831250Y-29875000I-218750J0D01*
G01*
X39393750Y-29875000D01*
G75*
G02*
X39175000Y-29656250I0J218750D01*
G01*
G37*
G04 #@! TD.AperFunction*
G04 #@! TD*
G04 #@! TO.P,D49,2*
G04 #@! TO.N,/NL08*
G04 #@! TA.AperFunction,SMDPad,CuDef*
G36*
G01*
X43456250Y-31350000D02*
X42943750Y-31350000D01*
G75*
G02*
X42725000Y-31131250I0J218750D01*
G01*
X42725000Y-30693750D01*
G75*
G02*
X42943750Y-30475000I218750J0D01*
G01*
X43456250Y-30475000D01*
G75*
G02*
X43675000Y-30693750I0J-218750D01*
G01*
X43675000Y-31131250D01*
G75*
G02*
X43456250Y-31350000I-218750J0D01*
G01*
G37*
G04 #@! TD.AperFunction*
G04 #@! TO.P,D49,1*
G04 #@! TO.N,/NL04*
G04 #@! TA.AperFunction,SMDPad,CuDef*
G36*
G01*
X43456250Y-32925000D02*
X42943750Y-32925000D01*
G75*
G02*
X42725000Y-32706250I0J218750D01*
G01*
X42725000Y-32268750D01*
G75*
G02*
X42943750Y-32050000I218750J0D01*
G01*
X43456250Y-32050000D01*
G75*
G02*
X43675000Y-32268750I0J-218750D01*
G01*
X43675000Y-32706250D01*
G75*
G02*
X43456250Y-32925000I-218750J0D01*
G01*
G37*
G04 #@! TD.AperFunction*
G04 #@! TD*
G04 #@! TO.P,D48,2*
G04 #@! TO.N,/NL05*
G04 #@! TA.AperFunction,SMDPad,CuDef*
G36*
G01*
X48256250Y-30450000D02*
X47743750Y-30450000D01*
G75*
G02*
X47525000Y-30231250I0J218750D01*
G01*
X47525000Y-29793750D01*
G75*
G02*
X47743750Y-29575000I218750J0D01*
G01*
X48256250Y-29575000D01*
G75*
G02*
X48475000Y-29793750I0J-218750D01*
G01*
X48475000Y-30231250D01*
G75*
G02*
X48256250Y-30450000I-218750J0D01*
G01*
G37*
G04 #@! TD.AperFunction*
G04 #@! TO.P,D48,1*
G04 #@! TO.N,/NL08*
G04 #@! TA.AperFunction,SMDPad,CuDef*
G36*
G01*
X48256250Y-32025000D02*
X47743750Y-32025000D01*
G75*
G02*
X47525000Y-31806250I0J218750D01*
G01*
X47525000Y-31368750D01*
G75*
G02*
X47743750Y-31150000I218750J0D01*
G01*
X48256250Y-31150000D01*
G75*
G02*
X48475000Y-31368750I0J-218750D01*
G01*
X48475000Y-31806250D01*
G75*
G02*
X48256250Y-32025000I-218750J0D01*
G01*
G37*
G04 #@! TD.AperFunction*
G04 #@! TD*
G04 #@! TO.P,D47,2*
G04 #@! TO.N,/NL08*
G04 #@! TA.AperFunction,SMDPad,CuDef*
G36*
G01*
X46656250Y-36350000D02*
X46143750Y-36350000D01*
G75*
G02*
X45925000Y-36131250I0J218750D01*
G01*
X45925000Y-35693750D01*
G75*
G02*
X46143750Y-35475000I218750J0D01*
G01*
X46656250Y-35475000D01*
G75*
G02*
X46875000Y-35693750I0J-218750D01*
G01*
X46875000Y-36131250D01*
G75*
G02*
X46656250Y-36350000I-218750J0D01*
G01*
G37*
G04 #@! TD.AperFunction*
G04 #@! TO.P,D47,1*
G04 #@! TO.N,/NL05*
G04 #@! TA.AperFunction,SMDPad,CuDef*
G36*
G01*
X46656250Y-37925000D02*
X46143750Y-37925000D01*
G75*
G02*
X45925000Y-37706250I0J218750D01*
G01*
X45925000Y-37268750D01*
G75*
G02*
X46143750Y-37050000I218750J0D01*
G01*
X46656250Y-37050000D01*
G75*
G02*
X46875000Y-37268750I0J-218750D01*
G01*
X46875000Y-37706250D01*
G75*
G02*
X46656250Y-37925000I-218750J0D01*
G01*
G37*
G04 #@! TD.AperFunction*
G04 #@! TD*
G04 #@! TO.P,D46,2*
G04 #@! TO.N,/NL06*
G04 #@! TA.AperFunction,SMDPad,CuDef*
G36*
G01*
X27650000Y-1756250D02*
X27650000Y-1243750D01*
G75*
G02*
X27868750Y-1025000I218750J0D01*
G01*
X28306250Y-1025000D01*
G75*
G02*
X28525000Y-1243750I0J-218750D01*
G01*
X28525000Y-1756250D01*
G75*
G02*
X28306250Y-1975000I-218750J0D01*
G01*
X27868750Y-1975000D01*
G75*
G02*
X27650000Y-1756250I0J218750D01*
G01*
G37*
G04 #@! TD.AperFunction*
G04 #@! TO.P,D46,1*
G04 #@! TO.N,/NL08*
G04 #@! TA.AperFunction,SMDPad,CuDef*
G36*
G01*
X26075000Y-1756250D02*
X26075000Y-1243750D01*
G75*
G02*
X26293750Y-1025000I218750J0D01*
G01*
X26731250Y-1025000D01*
G75*
G02*
X26950000Y-1243750I0J-218750D01*
G01*
X26950000Y-1756250D01*
G75*
G02*
X26731250Y-1975000I-218750J0D01*
G01*
X26293750Y-1975000D01*
G75*
G02*
X26075000Y-1756250I0J218750D01*
G01*
G37*
G04 #@! TD.AperFunction*
G04 #@! TD*
G04 #@! TO.P,D45,2*
G04 #@! TO.N,/NL08*
G04 #@! TA.AperFunction,SMDPad,CuDef*
G36*
G01*
X20650000Y-1756250D02*
X20650000Y-1243750D01*
G75*
G02*
X20868750Y-1025000I218750J0D01*
G01*
X21306250Y-1025000D01*
G75*
G02*
X21525000Y-1243750I0J-218750D01*
G01*
X21525000Y-1756250D01*
G75*
G02*
X21306250Y-1975000I-218750J0D01*
G01*
X20868750Y-1975000D01*
G75*
G02*
X20650000Y-1756250I0J218750D01*
G01*
G37*
G04 #@! TD.AperFunction*
G04 #@! TO.P,D45,1*
G04 #@! TO.N,/NL06*
G04 #@! TA.AperFunction,SMDPad,CuDef*
G36*
G01*
X19075000Y-1756250D02*
X19075000Y-1243750D01*
G75*
G02*
X19293750Y-1025000I218750J0D01*
G01*
X19731250Y-1025000D01*
G75*
G02*
X19950000Y-1243750I0J-218750D01*
G01*
X19950000Y-1756250D01*
G75*
G02*
X19731250Y-1975000I-218750J0D01*
G01*
X19293750Y-1975000D01*
G75*
G02*
X19075000Y-1756250I0J218750D01*
G01*
G37*
G04 #@! TD.AperFunction*
G04 #@! TD*
G04 #@! TO.P,D44,2*
G04 #@! TO.N,/NL07*
G04 #@! TA.AperFunction,SMDPad,CuDef*
G36*
G01*
X42050000Y-38056250D02*
X42050000Y-37543750D01*
G75*
G02*
X42268750Y-37325000I218750J0D01*
G01*
X42706250Y-37325000D01*
G75*
G02*
X42925000Y-37543750I0J-218750D01*
G01*
X42925000Y-38056250D01*
G75*
G02*
X42706250Y-38275000I-218750J0D01*
G01*
X42268750Y-38275000D01*
G75*
G02*
X42050000Y-38056250I0J218750D01*
G01*
G37*
G04 #@! TD.AperFunction*
G04 #@! TO.P,D44,1*
G04 #@! TO.N,/NL08*
G04 #@! TA.AperFunction,SMDPad,CuDef*
G36*
G01*
X40475000Y-38056250D02*
X40475000Y-37543750D01*
G75*
G02*
X40693750Y-37325000I218750J0D01*
G01*
X41131250Y-37325000D01*
G75*
G02*
X41350000Y-37543750I0J-218750D01*
G01*
X41350000Y-38056250D01*
G75*
G02*
X41131250Y-38275000I-218750J0D01*
G01*
X40693750Y-38275000D01*
G75*
G02*
X40475000Y-38056250I0J218750D01*
G01*
G37*
G04 #@! TD.AperFunction*
G04 #@! TD*
G04 #@! TO.P,D43,2*
G04 #@! TO.N,/NL08*
G04 #@! TA.AperFunction,SMDPad,CuDef*
G36*
G01*
X44356250Y-41350000D02*
X43843750Y-41350000D01*
G75*
G02*
X43625000Y-41131250I0J218750D01*
G01*
X43625000Y-40693750D01*
G75*
G02*
X43843750Y-40475000I218750J0D01*
G01*
X44356250Y-40475000D01*
G75*
G02*
X44575000Y-40693750I0J-218750D01*
G01*
X44575000Y-41131250D01*
G75*
G02*
X44356250Y-41350000I-218750J0D01*
G01*
G37*
G04 #@! TD.AperFunction*
G04 #@! TO.P,D43,1*
G04 #@! TO.N,/NL07*
G04 #@! TA.AperFunction,SMDPad,CuDef*
G36*
G01*
X44356250Y-42925000D02*
X43843750Y-42925000D01*
G75*
G02*
X43625000Y-42706250I0J218750D01*
G01*
X43625000Y-42268750D01*
G75*
G02*
X43843750Y-42050000I218750J0D01*
G01*
X44356250Y-42050000D01*
G75*
G02*
X44575000Y-42268750I0J-218750D01*
G01*
X44575000Y-42706250D01*
G75*
G02*
X44356250Y-42925000I-218750J0D01*
G01*
G37*
G04 #@! TD.AperFunction*
G04 #@! TD*
G04 #@! TO.P,D42,2*
G04 #@! TO.N,/NL01*
G04 #@! TA.AperFunction,SMDPad,CuDef*
G36*
G01*
X39850000Y-40356250D02*
X39850000Y-39843750D01*
G75*
G02*
X40068750Y-39625000I218750J0D01*
G01*
X40506250Y-39625000D01*
G75*
G02*
X40725000Y-39843750I0J-218750D01*
G01*
X40725000Y-40356250D01*
G75*
G02*
X40506250Y-40575000I-218750J0D01*
G01*
X40068750Y-40575000D01*
G75*
G02*
X39850000Y-40356250I0J218750D01*
G01*
G37*
G04 #@! TD.AperFunction*
G04 #@! TO.P,D42,1*
G04 #@! TO.N,/NL07*
G04 #@! TA.AperFunction,SMDPad,CuDef*
G36*
G01*
X38275000Y-40356250D02*
X38275000Y-39843750D01*
G75*
G02*
X38493750Y-39625000I218750J0D01*
G01*
X38931250Y-39625000D01*
G75*
G02*
X39150000Y-39843750I0J-218750D01*
G01*
X39150000Y-40356250D01*
G75*
G02*
X38931250Y-40575000I-218750J0D01*
G01*
X38493750Y-40575000D01*
G75*
G02*
X38275000Y-40356250I0J218750D01*
G01*
G37*
G04 #@! TD.AperFunction*
G04 #@! TD*
G04 #@! TO.P,D41,2*
G04 #@! TO.N,/NL07*
G04 #@! TA.AperFunction,SMDPad,CuDef*
G36*
G01*
X31250000Y-40156250D02*
X31250000Y-39643750D01*
G75*
G02*
X31468750Y-39425000I218750J0D01*
G01*
X31906250Y-39425000D01*
G75*
G02*
X32125000Y-39643750I0J-218750D01*
G01*
X32125000Y-40156250D01*
G75*
G02*
X31906250Y-40375000I-218750J0D01*
G01*
X31468750Y-40375000D01*
G75*
G02*
X31250000Y-40156250I0J218750D01*
G01*
G37*
G04 #@! TD.AperFunction*
G04 #@! TO.P,D41,1*
G04 #@! TO.N,/NL01*
G04 #@! TA.AperFunction,SMDPad,CuDef*
G36*
G01*
X29675000Y-40156250D02*
X29675000Y-39643750D01*
G75*
G02*
X29893750Y-39425000I218750J0D01*
G01*
X30331250Y-39425000D01*
G75*
G02*
X30550000Y-39643750I0J-218750D01*
G01*
X30550000Y-40156250D01*
G75*
G02*
X30331250Y-40375000I-218750J0D01*
G01*
X29893750Y-40375000D01*
G75*
G02*
X29675000Y-40156250I0J218750D01*
G01*
G37*
G04 #@! TD.AperFunction*
G04 #@! TD*
G04 #@! TO.P,D40,2*
G04 #@! TO.N,/NL02*
G04 #@! TA.AperFunction,SMDPad,CuDef*
G36*
G01*
X24450000Y-42056250D02*
X24450000Y-41543750D01*
G75*
G02*
X24668750Y-41325000I218750J0D01*
G01*
X25106250Y-41325000D01*
G75*
G02*
X25325000Y-41543750I0J-218750D01*
G01*
X25325000Y-42056250D01*
G75*
G02*
X25106250Y-42275000I-218750J0D01*
G01*
X24668750Y-42275000D01*
G75*
G02*
X24450000Y-42056250I0J218750D01*
G01*
G37*
G04 #@! TD.AperFunction*
G04 #@! TO.P,D40,1*
G04 #@! TO.N,/NL07*
G04 #@! TA.AperFunction,SMDPad,CuDef*
G36*
G01*
X22875000Y-42056250D02*
X22875000Y-41543750D01*
G75*
G02*
X23093750Y-41325000I218750J0D01*
G01*
X23531250Y-41325000D01*
G75*
G02*
X23750000Y-41543750I0J-218750D01*
G01*
X23750000Y-42056250D01*
G75*
G02*
X23531250Y-42275000I-218750J0D01*
G01*
X23093750Y-42275000D01*
G75*
G02*
X22875000Y-42056250I0J218750D01*
G01*
G37*
G04 #@! TD.AperFunction*
G04 #@! TD*
G04 #@! TO.P,D39,2*
G04 #@! TO.N,/NL07*
G04 #@! TA.AperFunction,SMDPad,CuDef*
G36*
G01*
X28650000Y-44756250D02*
X28650000Y-44243750D01*
G75*
G02*
X28868750Y-44025000I218750J0D01*
G01*
X29306250Y-44025000D01*
G75*
G02*
X29525000Y-44243750I0J-218750D01*
G01*
X29525000Y-44756250D01*
G75*
G02*
X29306250Y-44975000I-218750J0D01*
G01*
X28868750Y-44975000D01*
G75*
G02*
X28650000Y-44756250I0J218750D01*
G01*
G37*
G04 #@! TD.AperFunction*
G04 #@! TO.P,D39,1*
G04 #@! TO.N,/NL02*
G04 #@! TA.AperFunction,SMDPad,CuDef*
G36*
G01*
X27075000Y-44756250D02*
X27075000Y-44243750D01*
G75*
G02*
X27293750Y-44025000I218750J0D01*
G01*
X27731250Y-44025000D01*
G75*
G02*
X27950000Y-44243750I0J-218750D01*
G01*
X27950000Y-44756250D01*
G75*
G02*
X27731250Y-44975000I-218750J0D01*
G01*
X27293750Y-44975000D01*
G75*
G02*
X27075000Y-44756250I0J218750D01*
G01*
G37*
G04 #@! TD.AperFunction*
G04 #@! TD*
G04 #@! TO.P,D38,2*
G04 #@! TO.N,/NL03*
G04 #@! TA.AperFunction,SMDPad,CuDef*
G36*
G01*
X34450000Y-45056250D02*
X34450000Y-44543750D01*
G75*
G02*
X34668750Y-44325000I218750J0D01*
G01*
X35106250Y-44325000D01*
G75*
G02*
X35325000Y-44543750I0J-218750D01*
G01*
X35325000Y-45056250D01*
G75*
G02*
X35106250Y-45275000I-218750J0D01*
G01*
X34668750Y-45275000D01*
G75*
G02*
X34450000Y-45056250I0J218750D01*
G01*
G37*
G04 #@! TD.AperFunction*
G04 #@! TO.P,D38,1*
G04 #@! TO.N,/NL07*
G04 #@! TA.AperFunction,SMDPad,CuDef*
G36*
G01*
X32875000Y-45056250D02*
X32875000Y-44543750D01*
G75*
G02*
X33093750Y-44325000I218750J0D01*
G01*
X33531250Y-44325000D01*
G75*
G02*
X33750000Y-44543750I0J-218750D01*
G01*
X33750000Y-45056250D01*
G75*
G02*
X33531250Y-45275000I-218750J0D01*
G01*
X33093750Y-45275000D01*
G75*
G02*
X32875000Y-45056250I0J218750D01*
G01*
G37*
G04 #@! TD.AperFunction*
G04 #@! TD*
G04 #@! TO.P,D37,2*
G04 #@! TO.N,/NL07*
G04 #@! TA.AperFunction,SMDPad,CuDef*
G36*
G01*
X41656250Y-42450000D02*
X41143750Y-42450000D01*
G75*
G02*
X40925000Y-42231250I0J218750D01*
G01*
X40925000Y-41793750D01*
G75*
G02*
X41143750Y-41575000I218750J0D01*
G01*
X41656250Y-41575000D01*
G75*
G02*
X41875000Y-41793750I0J-218750D01*
G01*
X41875000Y-42231250D01*
G75*
G02*
X41656250Y-42450000I-218750J0D01*
G01*
G37*
G04 #@! TD.AperFunction*
G04 #@! TO.P,D37,1*
G04 #@! TO.N,/NL03*
G04 #@! TA.AperFunction,SMDPad,CuDef*
G36*
G01*
X41656250Y-44025000D02*
X41143750Y-44025000D01*
G75*
G02*
X40925000Y-43806250I0J218750D01*
G01*
X40925000Y-43368750D01*
G75*
G02*
X41143750Y-43150000I218750J0D01*
G01*
X41656250Y-43150000D01*
G75*
G02*
X41875000Y-43368750I0J-218750D01*
G01*
X41875000Y-43806250D01*
G75*
G02*
X41656250Y-44025000I-218750J0D01*
G01*
G37*
G04 #@! TD.AperFunction*
G04 #@! TD*
G04 #@! TO.P,D36,2*
G04 #@! TO.N,/NL04*
G04 #@! TA.AperFunction,SMDPad,CuDef*
G36*
G01*
X40550000Y-47156250D02*
X40550000Y-46643750D01*
G75*
G02*
X40768750Y-46425000I218750J0D01*
G01*
X41206250Y-46425000D01*
G75*
G02*
X41425000Y-46643750I0J-218750D01*
G01*
X41425000Y-47156250D01*
G75*
G02*
X41206250Y-47375000I-218750J0D01*
G01*
X40768750Y-47375000D01*
G75*
G02*
X40550000Y-47156250I0J218750D01*
G01*
G37*
G04 #@! TD.AperFunction*
G04 #@! TO.P,D36,1*
G04 #@! TO.N,/NL07*
G04 #@! TA.AperFunction,SMDPad,CuDef*
G36*
G01*
X38975000Y-47156250D02*
X38975000Y-46643750D01*
G75*
G02*
X39193750Y-46425000I218750J0D01*
G01*
X39631250Y-46425000D01*
G75*
G02*
X39850000Y-46643750I0J-218750D01*
G01*
X39850000Y-47156250D01*
G75*
G02*
X39631250Y-47375000I-218750J0D01*
G01*
X39193750Y-47375000D01*
G75*
G02*
X38975000Y-47156250I0J218750D01*
G01*
G37*
G04 #@! TD.AperFunction*
G04 #@! TD*
G04 #@! TO.P,D35,2*
G04 #@! TO.N,/NL07*
G04 #@! TA.AperFunction,SMDPad,CuDef*
G36*
G01*
X37356250Y-49050000D02*
X36843750Y-49050000D01*
G75*
G02*
X36625000Y-48831250I0J218750D01*
G01*
X36625000Y-48393750D01*
G75*
G02*
X36843750Y-48175000I218750J0D01*
G01*
X37356250Y-48175000D01*
G75*
G02*
X37575000Y-48393750I0J-218750D01*
G01*
X37575000Y-48831250D01*
G75*
G02*
X37356250Y-49050000I-218750J0D01*
G01*
G37*
G04 #@! TD.AperFunction*
G04 #@! TO.P,D35,1*
G04 #@! TO.N,/NL04*
G04 #@! TA.AperFunction,SMDPad,CuDef*
G36*
G01*
X37356250Y-50625000D02*
X36843750Y-50625000D01*
G75*
G02*
X36625000Y-50406250I0J218750D01*
G01*
X36625000Y-49968750D01*
G75*
G02*
X36843750Y-49750000I218750J0D01*
G01*
X37356250Y-49750000D01*
G75*
G02*
X37575000Y-49968750I0J-218750D01*
G01*
X37575000Y-50406250D01*
G75*
G02*
X37356250Y-50625000I-218750J0D01*
G01*
G37*
G04 #@! TD.AperFunction*
G04 #@! TD*
G04 #@! TO.P,D34,2*
G04 #@! TO.N,/NL05*
G04 #@! TA.AperFunction,SMDPad,CuDef*
G36*
G01*
X35250000Y-53656250D02*
X35250000Y-53143750D01*
G75*
G02*
X35468750Y-52925000I218750J0D01*
G01*
X35906250Y-52925000D01*
G75*
G02*
X36125000Y-53143750I0J-218750D01*
G01*
X36125000Y-53656250D01*
G75*
G02*
X35906250Y-53875000I-218750J0D01*
G01*
X35468750Y-53875000D01*
G75*
G02*
X35250000Y-53656250I0J218750D01*
G01*
G37*
G04 #@! TD.AperFunction*
G04 #@! TO.P,D34,1*
G04 #@! TO.N,/NL07*
G04 #@! TA.AperFunction,SMDPad,CuDef*
G36*
G01*
X33675000Y-53656250D02*
X33675000Y-53143750D01*
G75*
G02*
X33893750Y-52925000I218750J0D01*
G01*
X34331250Y-52925000D01*
G75*
G02*
X34550000Y-53143750I0J-218750D01*
G01*
X34550000Y-53656250D01*
G75*
G02*
X34331250Y-53875000I-218750J0D01*
G01*
X33893750Y-53875000D01*
G75*
G02*
X33675000Y-53656250I0J218750D01*
G01*
G37*
G04 #@! TD.AperFunction*
G04 #@! TD*
G04 #@! TO.P,D33,2*
G04 #@! TO.N,/NL07*
G04 #@! TA.AperFunction,SMDPad,CuDef*
G36*
G01*
X32850000Y-52056250D02*
X32850000Y-51543750D01*
G75*
G02*
X33068750Y-51325000I218750J0D01*
G01*
X33506250Y-51325000D01*
G75*
G02*
X33725000Y-51543750I0J-218750D01*
G01*
X33725000Y-52056250D01*
G75*
G02*
X33506250Y-52275000I-218750J0D01*
G01*
X33068750Y-52275000D01*
G75*
G02*
X32850000Y-52056250I0J218750D01*
G01*
G37*
G04 #@! TD.AperFunction*
G04 #@! TO.P,D33,1*
G04 #@! TO.N,/NL05*
G04 #@! TA.AperFunction,SMDPad,CuDef*
G36*
G01*
X31275000Y-52056250D02*
X31275000Y-51543750D01*
G75*
G02*
X31493750Y-51325000I218750J0D01*
G01*
X31931250Y-51325000D01*
G75*
G02*
X32150000Y-51543750I0J-218750D01*
G01*
X32150000Y-52056250D01*
G75*
G02*
X31931250Y-52275000I-218750J0D01*
G01*
X31493750Y-52275000D01*
G75*
G02*
X31275000Y-52056250I0J218750D01*
G01*
G37*
G04 #@! TD.AperFunction*
G04 #@! TD*
G04 #@! TO.P,D32,2*
G04 #@! TO.N,/NL06*
G04 #@! TA.AperFunction,SMDPad,CuDef*
G36*
G01*
X39856250Y-52950000D02*
X39343750Y-52950000D01*
G75*
G02*
X39125000Y-52731250I0J218750D01*
G01*
X39125000Y-52293750D01*
G75*
G02*
X39343750Y-52075000I218750J0D01*
G01*
X39856250Y-52075000D01*
G75*
G02*
X40075000Y-52293750I0J-218750D01*
G01*
X40075000Y-52731250D01*
G75*
G02*
X39856250Y-52950000I-218750J0D01*
G01*
G37*
G04 #@! TD.AperFunction*
G04 #@! TO.P,D32,1*
G04 #@! TO.N,/NL07*
G04 #@! TA.AperFunction,SMDPad,CuDef*
G36*
G01*
X39856250Y-54525000D02*
X39343750Y-54525000D01*
G75*
G02*
X39125000Y-54306250I0J218750D01*
G01*
X39125000Y-53868750D01*
G75*
G02*
X39343750Y-53650000I218750J0D01*
G01*
X39856250Y-53650000D01*
G75*
G02*
X40075000Y-53868750I0J-218750D01*
G01*
X40075000Y-54306250D01*
G75*
G02*
X39856250Y-54525000I-218750J0D01*
G01*
G37*
G04 #@! TD.AperFunction*
G04 #@! TD*
G04 #@! TO.P,D31,2*
G04 #@! TO.N,/NL07*
G04 #@! TA.AperFunction,SMDPad,CuDef*
G36*
G01*
X42956250Y-52950000D02*
X42443750Y-52950000D01*
G75*
G02*
X42225000Y-52731250I0J218750D01*
G01*
X42225000Y-52293750D01*
G75*
G02*
X42443750Y-52075000I218750J0D01*
G01*
X42956250Y-52075000D01*
G75*
G02*
X43175000Y-52293750I0J-218750D01*
G01*
X43175000Y-52731250D01*
G75*
G02*
X42956250Y-52950000I-218750J0D01*
G01*
G37*
G04 #@! TD.AperFunction*
G04 #@! TO.P,D31,1*
G04 #@! TO.N,/NL06*
G04 #@! TA.AperFunction,SMDPad,CuDef*
G36*
G01*
X42956250Y-54525000D02*
X42443750Y-54525000D01*
G75*
G02*
X42225000Y-54306250I0J218750D01*
G01*
X42225000Y-53868750D01*
G75*
G02*
X42443750Y-53650000I218750J0D01*
G01*
X42956250Y-53650000D01*
G75*
G02*
X43175000Y-53868750I0J-218750D01*
G01*
X43175000Y-54306250D01*
G75*
G02*
X42956250Y-54525000I-218750J0D01*
G01*
G37*
G04 #@! TD.AperFunction*
G04 #@! TD*
G04 #@! TO.P,D30,2*
G04 #@! TO.N,/NL01*
G04 #@! TA.AperFunction,SMDPad,CuDef*
G36*
G01*
X30450000Y-5356250D02*
X30450000Y-4843750D01*
G75*
G02*
X30668750Y-4625000I218750J0D01*
G01*
X31106250Y-4625000D01*
G75*
G02*
X31325000Y-4843750I0J-218750D01*
G01*
X31325000Y-5356250D01*
G75*
G02*
X31106250Y-5575000I-218750J0D01*
G01*
X30668750Y-5575000D01*
G75*
G02*
X30450000Y-5356250I0J218750D01*
G01*
G37*
G04 #@! TD.AperFunction*
G04 #@! TO.P,D30,1*
G04 #@! TO.N,/NL06*
G04 #@! TA.AperFunction,SMDPad,CuDef*
G36*
G01*
X28875000Y-5356250D02*
X28875000Y-4843750D01*
G75*
G02*
X29093750Y-4625000I218750J0D01*
G01*
X29531250Y-4625000D01*
G75*
G02*
X29750000Y-4843750I0J-218750D01*
G01*
X29750000Y-5356250D01*
G75*
G02*
X29531250Y-5575000I-218750J0D01*
G01*
X29093750Y-5575000D01*
G75*
G02*
X28875000Y-5356250I0J218750D01*
G01*
G37*
G04 #@! TD.AperFunction*
G04 #@! TD*
G04 #@! TO.P,D29,2*
G04 #@! TO.N,/NL06*
G04 #@! TA.AperFunction,SMDPad,CuDef*
G36*
G01*
X29756250Y-8550000D02*
X29243750Y-8550000D01*
G75*
G02*
X29025000Y-8331250I0J218750D01*
G01*
X29025000Y-7893750D01*
G75*
G02*
X29243750Y-7675000I218750J0D01*
G01*
X29756250Y-7675000D01*
G75*
G02*
X29975000Y-7893750I0J-218750D01*
G01*
X29975000Y-8331250D01*
G75*
G02*
X29756250Y-8550000I-218750J0D01*
G01*
G37*
G04 #@! TD.AperFunction*
G04 #@! TO.P,D29,1*
G04 #@! TO.N,/NL01*
G04 #@! TA.AperFunction,SMDPad,CuDef*
G36*
G01*
X29756250Y-10125000D02*
X29243750Y-10125000D01*
G75*
G02*
X29025000Y-9906250I0J218750D01*
G01*
X29025000Y-9468750D01*
G75*
G02*
X29243750Y-9250000I218750J0D01*
G01*
X29756250Y-9250000D01*
G75*
G02*
X29975000Y-9468750I0J-218750D01*
G01*
X29975000Y-9906250D01*
G75*
G02*
X29756250Y-10125000I-218750J0D01*
G01*
G37*
G04 #@! TD.AperFunction*
G04 #@! TD*
G04 #@! TO.P,D28,2*
G04 #@! TO.N,/NL02*
G04 #@! TA.AperFunction,SMDPad,CuDef*
G36*
G01*
X28956250Y-13350000D02*
X28443750Y-13350000D01*
G75*
G02*
X28225000Y-13131250I0J218750D01*
G01*
X28225000Y-12693750D01*
G75*
G02*
X28443750Y-12475000I218750J0D01*
G01*
X28956250Y-12475000D01*
G75*
G02*
X29175000Y-12693750I0J-218750D01*
G01*
X29175000Y-13131250D01*
G75*
G02*
X28956250Y-13350000I-218750J0D01*
G01*
G37*
G04 #@! TD.AperFunction*
G04 #@! TO.P,D28,1*
G04 #@! TO.N,/NL06*
G04 #@! TA.AperFunction,SMDPad,CuDef*
G36*
G01*
X28956250Y-14925000D02*
X28443750Y-14925000D01*
G75*
G02*
X28225000Y-14706250I0J218750D01*
G01*
X28225000Y-14268750D01*
G75*
G02*
X28443750Y-14050000I218750J0D01*
G01*
X28956250Y-14050000D01*
G75*
G02*
X29175000Y-14268750I0J-218750D01*
G01*
X29175000Y-14706250D01*
G75*
G02*
X28956250Y-14925000I-218750J0D01*
G01*
G37*
G04 #@! TD.AperFunction*
G04 #@! TD*
G04 #@! TO.P,D27,2*
G04 #@! TO.N,/NL06*
G04 #@! TA.AperFunction,SMDPad,CuDef*
G36*
G01*
X26856250Y-9050000D02*
X26343750Y-9050000D01*
G75*
G02*
X26125000Y-8831250I0J218750D01*
G01*
X26125000Y-8393750D01*
G75*
G02*
X26343750Y-8175000I218750J0D01*
G01*
X26856250Y-8175000D01*
G75*
G02*
X27075000Y-8393750I0J-218750D01*
G01*
X27075000Y-8831250D01*
G75*
G02*
X26856250Y-9050000I-218750J0D01*
G01*
G37*
G04 #@! TD.AperFunction*
G04 #@! TO.P,D27,1*
G04 #@! TO.N,/NL02*
G04 #@! TA.AperFunction,SMDPad,CuDef*
G36*
G01*
X26856250Y-10625000D02*
X26343750Y-10625000D01*
G75*
G02*
X26125000Y-10406250I0J218750D01*
G01*
X26125000Y-9968750D01*
G75*
G02*
X26343750Y-9750000I218750J0D01*
G01*
X26856250Y-9750000D01*
G75*
G02*
X27075000Y-9968750I0J-218750D01*
G01*
X27075000Y-10406250D01*
G75*
G02*
X26856250Y-10625000I-218750J0D01*
G01*
G37*
G04 #@! TD.AperFunction*
G04 #@! TD*
G04 #@! TO.P,D26,2*
G04 #@! TO.N,/NL03*
G04 #@! TA.AperFunction,SMDPad,CuDef*
G36*
G01*
X23756250Y-14650000D02*
X23243750Y-14650000D01*
G75*
G02*
X23025000Y-14431250I0J218750D01*
G01*
X23025000Y-13993750D01*
G75*
G02*
X23243750Y-13775000I218750J0D01*
G01*
X23756250Y-13775000D01*
G75*
G02*
X23975000Y-13993750I0J-218750D01*
G01*
X23975000Y-14431250D01*
G75*
G02*
X23756250Y-14650000I-218750J0D01*
G01*
G37*
G04 #@! TD.AperFunction*
G04 #@! TO.P,D26,1*
G04 #@! TO.N,/NL06*
G04 #@! TA.AperFunction,SMDPad,CuDef*
G36*
G01*
X23756250Y-16225000D02*
X23243750Y-16225000D01*
G75*
G02*
X23025000Y-16006250I0J218750D01*
G01*
X23025000Y-15568750D01*
G75*
G02*
X23243750Y-15350000I218750J0D01*
G01*
X23756250Y-15350000D01*
G75*
G02*
X23975000Y-15568750I0J-218750D01*
G01*
X23975000Y-16006250D01*
G75*
G02*
X23756250Y-16225000I-218750J0D01*
G01*
G37*
G04 #@! TD.AperFunction*
G04 #@! TD*
G04 #@! TO.P,D25,2*
G04 #@! TO.N,/NL06*
G04 #@! TA.AperFunction,SMDPad,CuDef*
G36*
G01*
X24850000Y-5356250D02*
X24850000Y-4843750D01*
G75*
G02*
X25068750Y-4625000I218750J0D01*
G01*
X25506250Y-4625000D01*
G75*
G02*
X25725000Y-4843750I0J-218750D01*
G01*
X25725000Y-5356250D01*
G75*
G02*
X25506250Y-5575000I-218750J0D01*
G01*
X25068750Y-5575000D01*
G75*
G02*
X24850000Y-5356250I0J218750D01*
G01*
G37*
G04 #@! TD.AperFunction*
G04 #@! TO.P,D25,1*
G04 #@! TO.N,/NL03*
G04 #@! TA.AperFunction,SMDPad,CuDef*
G36*
G01*
X23275000Y-5356250D02*
X23275000Y-4843750D01*
G75*
G02*
X23493750Y-4625000I218750J0D01*
G01*
X23931250Y-4625000D01*
G75*
G02*
X24150000Y-4843750I0J-218750D01*
G01*
X24150000Y-5356250D01*
G75*
G02*
X23931250Y-5575000I-218750J0D01*
G01*
X23493750Y-5575000D01*
G75*
G02*
X23275000Y-5356250I0J218750D01*
G01*
G37*
G04 #@! TD.AperFunction*
G04 #@! TD*
G04 #@! TO.P,D24,2*
G04 #@! TO.N,/NL04*
G04 #@! TA.AperFunction,SMDPad,CuDef*
G36*
G01*
X19050000Y-7656250D02*
X19050000Y-7143750D01*
G75*
G02*
X19268750Y-6925000I218750J0D01*
G01*
X19706250Y-6925000D01*
G75*
G02*
X19925000Y-7143750I0J-218750D01*
G01*
X19925000Y-7656250D01*
G75*
G02*
X19706250Y-7875000I-218750J0D01*
G01*
X19268750Y-7875000D01*
G75*
G02*
X19050000Y-7656250I0J218750D01*
G01*
G37*
G04 #@! TD.AperFunction*
G04 #@! TO.P,D24,1*
G04 #@! TO.N,/NL06*
G04 #@! TA.AperFunction,SMDPad,CuDef*
G36*
G01*
X17475000Y-7656250D02*
X17475000Y-7143750D01*
G75*
G02*
X17693750Y-6925000I218750J0D01*
G01*
X18131250Y-6925000D01*
G75*
G02*
X18350000Y-7143750I0J-218750D01*
G01*
X18350000Y-7656250D01*
G75*
G02*
X18131250Y-7875000I-218750J0D01*
G01*
X17693750Y-7875000D01*
G75*
G02*
X17475000Y-7656250I0J218750D01*
G01*
G37*
G04 #@! TD.AperFunction*
G04 #@! TD*
G04 #@! TO.P,D23,2*
G04 #@! TO.N,/NL06*
G04 #@! TA.AperFunction,SMDPad,CuDef*
G36*
G01*
X18450000Y-5356250D02*
X18450000Y-4843750D01*
G75*
G02*
X18668750Y-4625000I218750J0D01*
G01*
X19106250Y-4625000D01*
G75*
G02*
X19325000Y-4843750I0J-218750D01*
G01*
X19325000Y-5356250D01*
G75*
G02*
X19106250Y-5575000I-218750J0D01*
G01*
X18668750Y-5575000D01*
G75*
G02*
X18450000Y-5356250I0J218750D01*
G01*
G37*
G04 #@! TD.AperFunction*
G04 #@! TO.P,D23,1*
G04 #@! TO.N,/NL04*
G04 #@! TA.AperFunction,SMDPad,CuDef*
G36*
G01*
X16875000Y-5356250D02*
X16875000Y-4843750D01*
G75*
G02*
X17093750Y-4625000I218750J0D01*
G01*
X17531250Y-4625000D01*
G75*
G02*
X17750000Y-4843750I0J-218750D01*
G01*
X17750000Y-5356250D01*
G75*
G02*
X17531250Y-5575000I-218750J0D01*
G01*
X17093750Y-5575000D01*
G75*
G02*
X16875000Y-5356250I0J218750D01*
G01*
G37*
G04 #@! TD.AperFunction*
G04 #@! TD*
G04 #@! TO.P,D22,2*
G04 #@! TO.N,/NL05*
G04 #@! TA.AperFunction,SMDPad,CuDef*
G36*
G01*
X9956250Y-4850000D02*
X9443750Y-4850000D01*
G75*
G02*
X9225000Y-4631250I0J218750D01*
G01*
X9225000Y-4193750D01*
G75*
G02*
X9443750Y-3975000I218750J0D01*
G01*
X9956250Y-3975000D01*
G75*
G02*
X10175000Y-4193750I0J-218750D01*
G01*
X10175000Y-4631250D01*
G75*
G02*
X9956250Y-4850000I-218750J0D01*
G01*
G37*
G04 #@! TD.AperFunction*
G04 #@! TO.P,D22,1*
G04 #@! TO.N,/NL06*
G04 #@! TA.AperFunction,SMDPad,CuDef*
G36*
G01*
X9956250Y-6425000D02*
X9443750Y-6425000D01*
G75*
G02*
X9225000Y-6206250I0J218750D01*
G01*
X9225000Y-5768750D01*
G75*
G02*
X9443750Y-5550000I218750J0D01*
G01*
X9956250Y-5550000D01*
G75*
G02*
X10175000Y-5768750I0J-218750D01*
G01*
X10175000Y-6206250D01*
G75*
G02*
X9956250Y-6425000I-218750J0D01*
G01*
G37*
G04 #@! TD.AperFunction*
G04 #@! TD*
G04 #@! TO.P,D21,2*
G04 #@! TO.N,/NL06*
G04 #@! TA.AperFunction,SMDPad,CuDef*
G36*
G01*
X12956250Y-4850000D02*
X12443750Y-4850000D01*
G75*
G02*
X12225000Y-4631250I0J218750D01*
G01*
X12225000Y-4193750D01*
G75*
G02*
X12443750Y-3975000I218750J0D01*
G01*
X12956250Y-3975000D01*
G75*
G02*
X13175000Y-4193750I0J-218750D01*
G01*
X13175000Y-4631250D01*
G75*
G02*
X12956250Y-4850000I-218750J0D01*
G01*
G37*
G04 #@! TD.AperFunction*
G04 #@! TO.P,D21,1*
G04 #@! TO.N,/NL05*
G04 #@! TA.AperFunction,SMDPad,CuDef*
G36*
G01*
X12956250Y-6425000D02*
X12443750Y-6425000D01*
G75*
G02*
X12225000Y-6206250I0J218750D01*
G01*
X12225000Y-5768750D01*
G75*
G02*
X12443750Y-5550000I218750J0D01*
G01*
X12956250Y-5550000D01*
G75*
G02*
X13175000Y-5768750I0J-218750D01*
G01*
X13175000Y-6206250D01*
G75*
G02*
X12956250Y-6425000I-218750J0D01*
G01*
G37*
G04 #@! TD.AperFunction*
G04 #@! TD*
G04 #@! TO.P,D20,2*
G04 #@! TO.N,/NL01*
G04 #@! TA.AperFunction,SMDPad,CuDef*
G36*
G01*
X48156250Y-17450000D02*
X47643750Y-17450000D01*
G75*
G02*
X47425000Y-17231250I0J218750D01*
G01*
X47425000Y-16793750D01*
G75*
G02*
X47643750Y-16575000I218750J0D01*
G01*
X48156250Y-16575000D01*
G75*
G02*
X48375000Y-16793750I0J-218750D01*
G01*
X48375000Y-17231250D01*
G75*
G02*
X48156250Y-17450000I-218750J0D01*
G01*
G37*
G04 #@! TD.AperFunction*
G04 #@! TO.P,D20,1*
G04 #@! TO.N,/NL05*
G04 #@! TA.AperFunction,SMDPad,CuDef*
G36*
G01*
X48156250Y-19025000D02*
X47643750Y-19025000D01*
G75*
G02*
X47425000Y-18806250I0J218750D01*
G01*
X47425000Y-18368750D01*
G75*
G02*
X47643750Y-18150000I218750J0D01*
G01*
X48156250Y-18150000D01*
G75*
G02*
X48375000Y-18368750I0J-218750D01*
G01*
X48375000Y-18806250D01*
G75*
G02*
X48156250Y-19025000I-218750J0D01*
G01*
G37*
G04 #@! TD.AperFunction*
G04 #@! TD*
G04 #@! TO.P,D19,2*
G04 #@! TO.N,/NL05*
G04 #@! TA.AperFunction,SMDPad,CuDef*
G36*
G01*
X44850000Y-20043750D02*
X44850000Y-20556250D01*
G75*
G02*
X44631250Y-20775000I-218750J0D01*
G01*
X44193750Y-20775000D01*
G75*
G02*
X43975000Y-20556250I0J218750D01*
G01*
X43975000Y-20043750D01*
G75*
G02*
X44193750Y-19825000I218750J0D01*
G01*
X44631250Y-19825000D01*
G75*
G02*
X44850000Y-20043750I0J-218750D01*
G01*
G37*
G04 #@! TD.AperFunction*
G04 #@! TO.P,D19,1*
G04 #@! TO.N,/NL01*
G04 #@! TA.AperFunction,SMDPad,CuDef*
G36*
G01*
X46425000Y-20043750D02*
X46425000Y-20556250D01*
G75*
G02*
X46206250Y-20775000I-218750J0D01*
G01*
X45768750Y-20775000D01*
G75*
G02*
X45550000Y-20556250I0J218750D01*
G01*
X45550000Y-20043750D01*
G75*
G02*
X45768750Y-19825000I218750J0D01*
G01*
X46206250Y-19825000D01*
G75*
G02*
X46425000Y-20043750I0J-218750D01*
G01*
G37*
G04 #@! TD.AperFunction*
G04 #@! TD*
G04 #@! TO.P,D18,2*
G04 #@! TO.N,/NL02*
G04 #@! TA.AperFunction,SMDPad,CuDef*
G36*
G01*
X11756250Y-11650000D02*
X11243750Y-11650000D01*
G75*
G02*
X11025000Y-11431250I0J218750D01*
G01*
X11025000Y-10993750D01*
G75*
G02*
X11243750Y-10775000I218750J0D01*
G01*
X11756250Y-10775000D01*
G75*
G02*
X11975000Y-10993750I0J-218750D01*
G01*
X11975000Y-11431250D01*
G75*
G02*
X11756250Y-11650000I-218750J0D01*
G01*
G37*
G04 #@! TD.AperFunction*
G04 #@! TO.P,D18,1*
G04 #@! TO.N,/NL05*
G04 #@! TA.AperFunction,SMDPad,CuDef*
G36*
G01*
X11756250Y-13225000D02*
X11243750Y-13225000D01*
G75*
G02*
X11025000Y-13006250I0J218750D01*
G01*
X11025000Y-12568750D01*
G75*
G02*
X11243750Y-12350000I218750J0D01*
G01*
X11756250Y-12350000D01*
G75*
G02*
X11975000Y-12568750I0J-218750D01*
G01*
X11975000Y-13006250D01*
G75*
G02*
X11756250Y-13225000I-218750J0D01*
G01*
G37*
G04 #@! TD.AperFunction*
G04 #@! TD*
G04 #@! TO.P,D17,2*
G04 #@! TO.N,/NL05*
G04 #@! TA.AperFunction,SMDPad,CuDef*
G36*
G01*
X14756250Y-9050000D02*
X14243750Y-9050000D01*
G75*
G02*
X14025000Y-8831250I0J218750D01*
G01*
X14025000Y-8393750D01*
G75*
G02*
X14243750Y-8175000I218750J0D01*
G01*
X14756250Y-8175000D01*
G75*
G02*
X14975000Y-8393750I0J-218750D01*
G01*
X14975000Y-8831250D01*
G75*
G02*
X14756250Y-9050000I-218750J0D01*
G01*
G37*
G04 #@! TD.AperFunction*
G04 #@! TO.P,D17,1*
G04 #@! TO.N,/NL02*
G04 #@! TA.AperFunction,SMDPad,CuDef*
G36*
G01*
X14756250Y-10625000D02*
X14243750Y-10625000D01*
G75*
G02*
X14025000Y-10406250I0J218750D01*
G01*
X14025000Y-9968750D01*
G75*
G02*
X14243750Y-9750000I218750J0D01*
G01*
X14756250Y-9750000D01*
G75*
G02*
X14975000Y-9968750I0J-218750D01*
G01*
X14975000Y-10406250D01*
G75*
G02*
X14756250Y-10625000I-218750J0D01*
G01*
G37*
G04 #@! TD.AperFunction*
G04 #@! TD*
G04 #@! TO.P,D16,2*
G04 #@! TO.N,/NL03*
G04 #@! TA.AperFunction,SMDPad,CuDef*
G36*
G01*
X47050000Y-23056250D02*
X47050000Y-22543750D01*
G75*
G02*
X47268750Y-22325000I218750J0D01*
G01*
X47706250Y-22325000D01*
G75*
G02*
X47925000Y-22543750I0J-218750D01*
G01*
X47925000Y-23056250D01*
G75*
G02*
X47706250Y-23275000I-218750J0D01*
G01*
X47268750Y-23275000D01*
G75*
G02*
X47050000Y-23056250I0J218750D01*
G01*
G37*
G04 #@! TD.AperFunction*
G04 #@! TO.P,D16,1*
G04 #@! TO.N,/NL05*
G04 #@! TA.AperFunction,SMDPad,CuDef*
G36*
G01*
X45475000Y-23056250D02*
X45475000Y-22543750D01*
G75*
G02*
X45693750Y-22325000I218750J0D01*
G01*
X46131250Y-22325000D01*
G75*
G02*
X46350000Y-22543750I0J-218750D01*
G01*
X46350000Y-23056250D01*
G75*
G02*
X46131250Y-23275000I-218750J0D01*
G01*
X45693750Y-23275000D01*
G75*
G02*
X45475000Y-23056250I0J218750D01*
G01*
G37*
G04 #@! TD.AperFunction*
G04 #@! TD*
G04 #@! TO.P,D15,2*
G04 #@! TO.N,/NL05*
G04 #@! TA.AperFunction,SMDPad,CuDef*
G36*
G01*
X49050000Y-25456250D02*
X49050000Y-24943750D01*
G75*
G02*
X49268750Y-24725000I218750J0D01*
G01*
X49706250Y-24725000D01*
G75*
G02*
X49925000Y-24943750I0J-218750D01*
G01*
X49925000Y-25456250D01*
G75*
G02*
X49706250Y-25675000I-218750J0D01*
G01*
X49268750Y-25675000D01*
G75*
G02*
X49050000Y-25456250I0J218750D01*
G01*
G37*
G04 #@! TD.AperFunction*
G04 #@! TO.P,D15,1*
G04 #@! TO.N,/NL03*
G04 #@! TA.AperFunction,SMDPad,CuDef*
G36*
G01*
X47475000Y-25456250D02*
X47475000Y-24943750D01*
G75*
G02*
X47693750Y-24725000I218750J0D01*
G01*
X48131250Y-24725000D01*
G75*
G02*
X48350000Y-24943750I0J-218750D01*
G01*
X48350000Y-25456250D01*
G75*
G02*
X48131250Y-25675000I-218750J0D01*
G01*
X47693750Y-25675000D01*
G75*
G02*
X47475000Y-25456250I0J218750D01*
G01*
G37*
G04 #@! TD.AperFunction*
G04 #@! TD*
G04 #@! TO.P,D14,2*
G04 #@! TO.N,/NL04*
G04 #@! TA.AperFunction,SMDPad,CuDef*
G36*
G01*
X32556250Y-9550000D02*
X32043750Y-9550000D01*
G75*
G02*
X31825000Y-9331250I0J218750D01*
G01*
X31825000Y-8893750D01*
G75*
G02*
X32043750Y-8675000I218750J0D01*
G01*
X32556250Y-8675000D01*
G75*
G02*
X32775000Y-8893750I0J-218750D01*
G01*
X32775000Y-9331250D01*
G75*
G02*
X32556250Y-9550000I-218750J0D01*
G01*
G37*
G04 #@! TD.AperFunction*
G04 #@! TO.P,D14,1*
G04 #@! TO.N,/NL05*
G04 #@! TA.AperFunction,SMDPad,CuDef*
G36*
G01*
X32556250Y-11125000D02*
X32043750Y-11125000D01*
G75*
G02*
X31825000Y-10906250I0J218750D01*
G01*
X31825000Y-10468750D01*
G75*
G02*
X32043750Y-10250000I218750J0D01*
G01*
X32556250Y-10250000D01*
G75*
G02*
X32775000Y-10468750I0J-218750D01*
G01*
X32775000Y-10906250D01*
G75*
G02*
X32556250Y-11125000I-218750J0D01*
G01*
G37*
G04 #@! TD.AperFunction*
G04 #@! TD*
G04 #@! TO.P,D13,2*
G04 #@! TO.N,/NL05*
G04 #@! TA.AperFunction,SMDPad,CuDef*
G36*
G01*
X36350000Y-5356250D02*
X36350000Y-4843750D01*
G75*
G02*
X36568750Y-4625000I218750J0D01*
G01*
X37006250Y-4625000D01*
G75*
G02*
X37225000Y-4843750I0J-218750D01*
G01*
X37225000Y-5356250D01*
G75*
G02*
X37006250Y-5575000I-218750J0D01*
G01*
X36568750Y-5575000D01*
G75*
G02*
X36350000Y-5356250I0J218750D01*
G01*
G37*
G04 #@! TD.AperFunction*
G04 #@! TO.P,D13,1*
G04 #@! TO.N,/NL04*
G04 #@! TA.AperFunction,SMDPad,CuDef*
G36*
G01*
X34775000Y-5356250D02*
X34775000Y-4843750D01*
G75*
G02*
X34993750Y-4625000I218750J0D01*
G01*
X35431250Y-4625000D01*
G75*
G02*
X35650000Y-4843750I0J-218750D01*
G01*
X35650000Y-5356250D01*
G75*
G02*
X35431250Y-5575000I-218750J0D01*
G01*
X34993750Y-5575000D01*
G75*
G02*
X34775000Y-5356250I0J218750D01*
G01*
G37*
G04 #@! TD.AperFunction*
G04 #@! TD*
G04 #@! TO.P,D12,2*
G04 #@! TO.N,/NL01*
G04 #@! TA.AperFunction,SMDPad,CuDef*
G36*
G01*
X40950000Y-7856250D02*
X40950000Y-7343750D01*
G75*
G02*
X41168750Y-7125000I218750J0D01*
G01*
X41606250Y-7125000D01*
G75*
G02*
X41825000Y-7343750I0J-218750D01*
G01*
X41825000Y-7856250D01*
G75*
G02*
X41606250Y-8075000I-218750J0D01*
G01*
X41168750Y-8075000D01*
G75*
G02*
X40950000Y-7856250I0J218750D01*
G01*
G37*
G04 #@! TD.AperFunction*
G04 #@! TO.P,D12,1*
G04 #@! TO.N,/NL04*
G04 #@! TA.AperFunction,SMDPad,CuDef*
G36*
G01*
X39375000Y-7856250D02*
X39375000Y-7343750D01*
G75*
G02*
X39593750Y-7125000I218750J0D01*
G01*
X40031250Y-7125000D01*
G75*
G02*
X40250000Y-7343750I0J-218750D01*
G01*
X40250000Y-7856250D01*
G75*
G02*
X40031250Y-8075000I-218750J0D01*
G01*
X39593750Y-8075000D01*
G75*
G02*
X39375000Y-7856250I0J218750D01*
G01*
G37*
G04 #@! TD.AperFunction*
G04 #@! TD*
G04 #@! TO.P,D11,2*
G04 #@! TO.N,/NL04*
G04 #@! TA.AperFunction,SMDPad,CuDef*
G36*
G01*
X44150000Y-10256250D02*
X44150000Y-9743750D01*
G75*
G02*
X44368750Y-9525000I218750J0D01*
G01*
X44806250Y-9525000D01*
G75*
G02*
X45025000Y-9743750I0J-218750D01*
G01*
X45025000Y-10256250D01*
G75*
G02*
X44806250Y-10475000I-218750J0D01*
G01*
X44368750Y-10475000D01*
G75*
G02*
X44150000Y-10256250I0J218750D01*
G01*
G37*
G04 #@! TD.AperFunction*
G04 #@! TO.P,D11,1*
G04 #@! TO.N,/NL01*
G04 #@! TA.AperFunction,SMDPad,CuDef*
G36*
G01*
X42575000Y-10256250D02*
X42575000Y-9743750D01*
G75*
G02*
X42793750Y-9525000I218750J0D01*
G01*
X43231250Y-9525000D01*
G75*
G02*
X43450000Y-9743750I0J-218750D01*
G01*
X43450000Y-10256250D01*
G75*
G02*
X43231250Y-10475000I-218750J0D01*
G01*
X42793750Y-10475000D01*
G75*
G02*
X42575000Y-10256250I0J218750D01*
G01*
G37*
G04 #@! TD.AperFunction*
G04 #@! TD*
G04 #@! TO.P,D10,2*
G04 #@! TO.N,/NL02*
G04 #@! TA.AperFunction,SMDPad,CuDef*
G36*
G01*
X41250000Y-13656250D02*
X41250000Y-13143750D01*
G75*
G02*
X41468750Y-12925000I218750J0D01*
G01*
X41906250Y-12925000D01*
G75*
G02*
X42125000Y-13143750I0J-218750D01*
G01*
X42125000Y-13656250D01*
G75*
G02*
X41906250Y-13875000I-218750J0D01*
G01*
X41468750Y-13875000D01*
G75*
G02*
X41250000Y-13656250I0J218750D01*
G01*
G37*
G04 #@! TD.AperFunction*
G04 #@! TO.P,D10,1*
G04 #@! TO.N,/NL04*
G04 #@! TA.AperFunction,SMDPad,CuDef*
G36*
G01*
X39675000Y-13656250D02*
X39675000Y-13143750D01*
G75*
G02*
X39893750Y-12925000I218750J0D01*
G01*
X40331250Y-12925000D01*
G75*
G02*
X40550000Y-13143750I0J-218750D01*
G01*
X40550000Y-13656250D01*
G75*
G02*
X40331250Y-13875000I-218750J0D01*
G01*
X39893750Y-13875000D01*
G75*
G02*
X39675000Y-13656250I0J218750D01*
G01*
G37*
G04 #@! TD.AperFunction*
G04 #@! TD*
G04 #@! TO.P,D9,2*
G04 #@! TO.N,/NL04*
G04 #@! TA.AperFunction,SMDPad,CuDef*
G36*
G01*
X38250000Y-17356250D02*
X38250000Y-16843750D01*
G75*
G02*
X38468750Y-16625000I218750J0D01*
G01*
X38906250Y-16625000D01*
G75*
G02*
X39125000Y-16843750I0J-218750D01*
G01*
X39125000Y-17356250D01*
G75*
G02*
X38906250Y-17575000I-218750J0D01*
G01*
X38468750Y-17575000D01*
G75*
G02*
X38250000Y-17356250I0J218750D01*
G01*
G37*
G04 #@! TD.AperFunction*
G04 #@! TO.P,D9,1*
G04 #@! TO.N,/NL02*
G04 #@! TA.AperFunction,SMDPad,CuDef*
G36*
G01*
X36675000Y-17356250D02*
X36675000Y-16843750D01*
G75*
G02*
X36893750Y-16625000I218750J0D01*
G01*
X37331250Y-16625000D01*
G75*
G02*
X37550000Y-16843750I0J-218750D01*
G01*
X37550000Y-17356250D01*
G75*
G02*
X37331250Y-17575000I-218750J0D01*
G01*
X36893750Y-17575000D01*
G75*
G02*
X36675000Y-17356250I0J218750D01*
G01*
G37*
G04 #@! TD.AperFunction*
G04 #@! TD*
G04 #@! TO.P,D8,2*
G04 #@! TO.N,/NL03*
G04 #@! TA.AperFunction,SMDPad,CuDef*
G36*
G01*
X33756250Y-14850000D02*
X33243750Y-14850000D01*
G75*
G02*
X33025000Y-14631250I0J218750D01*
G01*
X33025000Y-14193750D01*
G75*
G02*
X33243750Y-13975000I218750J0D01*
G01*
X33756250Y-13975000D01*
G75*
G02*
X33975000Y-14193750I0J-218750D01*
G01*
X33975000Y-14631250D01*
G75*
G02*
X33756250Y-14850000I-218750J0D01*
G01*
G37*
G04 #@! TD.AperFunction*
G04 #@! TO.P,D8,1*
G04 #@! TO.N,/NL04*
G04 #@! TA.AperFunction,SMDPad,CuDef*
G36*
G01*
X33756250Y-16425000D02*
X33243750Y-16425000D01*
G75*
G02*
X33025000Y-16206250I0J218750D01*
G01*
X33025000Y-15768750D01*
G75*
G02*
X33243750Y-15550000I218750J0D01*
G01*
X33756250Y-15550000D01*
G75*
G02*
X33975000Y-15768750I0J-218750D01*
G01*
X33975000Y-16206250D01*
G75*
G02*
X33756250Y-16425000I-218750J0D01*
G01*
G37*
G04 #@! TD.AperFunction*
G04 #@! TD*
G04 #@! TO.P,D7,2*
G04 #@! TO.N,/NL04*
G04 #@! TA.AperFunction,SMDPad,CuDef*
G36*
G01*
X28156250Y-17950000D02*
X27643750Y-17950000D01*
G75*
G02*
X27425000Y-17731250I0J218750D01*
G01*
X27425000Y-17293750D01*
G75*
G02*
X27643750Y-17075000I218750J0D01*
G01*
X28156250Y-17075000D01*
G75*
G02*
X28375000Y-17293750I0J-218750D01*
G01*
X28375000Y-17731250D01*
G75*
G02*
X28156250Y-17950000I-218750J0D01*
G01*
G37*
G04 #@! TD.AperFunction*
G04 #@! TO.P,D7,1*
G04 #@! TO.N,/NL03*
G04 #@! TA.AperFunction,SMDPad,CuDef*
G36*
G01*
X28156250Y-19525000D02*
X27643750Y-19525000D01*
G75*
G02*
X27425000Y-19306250I0J218750D01*
G01*
X27425000Y-18868750D01*
G75*
G02*
X27643750Y-18650000I218750J0D01*
G01*
X28156250Y-18650000D01*
G75*
G02*
X28375000Y-18868750I0J-218750D01*
G01*
X28375000Y-19306250D01*
G75*
G02*
X28156250Y-19525000I-218750J0D01*
G01*
G37*
G04 #@! TD.AperFunction*
G04 #@! TD*
G04 #@! TO.P,D6,2*
G04 #@! TO.N,/NL01*
G04 #@! TA.AperFunction,SMDPad,CuDef*
G36*
G01*
X27456250Y-22450000D02*
X26943750Y-22450000D01*
G75*
G02*
X26725000Y-22231250I0J218750D01*
G01*
X26725000Y-21793750D01*
G75*
G02*
X26943750Y-21575000I218750J0D01*
G01*
X27456250Y-21575000D01*
G75*
G02*
X27675000Y-21793750I0J-218750D01*
G01*
X27675000Y-22231250D01*
G75*
G02*
X27456250Y-22450000I-218750J0D01*
G01*
G37*
G04 #@! TD.AperFunction*
G04 #@! TO.P,D6,1*
G04 #@! TO.N,/NL03*
G04 #@! TA.AperFunction,SMDPad,CuDef*
G36*
G01*
X27456250Y-24025000D02*
X26943750Y-24025000D01*
G75*
G02*
X26725000Y-23806250I0J218750D01*
G01*
X26725000Y-23368750D01*
G75*
G02*
X26943750Y-23150000I218750J0D01*
G01*
X27456250Y-23150000D01*
G75*
G02*
X27675000Y-23368750I0J-218750D01*
G01*
X27675000Y-23806250D01*
G75*
G02*
X27456250Y-24025000I-218750J0D01*
G01*
G37*
G04 #@! TD.AperFunction*
G04 #@! TD*
G04 #@! TO.P,D5,2*
G04 #@! TO.N,/NL03*
G04 #@! TA.AperFunction,SMDPad,CuDef*
G36*
G01*
X26756250Y-26950000D02*
X26243750Y-26950000D01*
G75*
G02*
X26025000Y-26731250I0J218750D01*
G01*
X26025000Y-26293750D01*
G75*
G02*
X26243750Y-26075000I218750J0D01*
G01*
X26756250Y-26075000D01*
G75*
G02*
X26975000Y-26293750I0J-218750D01*
G01*
X26975000Y-26731250D01*
G75*
G02*
X26756250Y-26950000I-218750J0D01*
G01*
G37*
G04 #@! TD.AperFunction*
G04 #@! TO.P,D5,1*
G04 #@! TO.N,/NL01*
G04 #@! TA.AperFunction,SMDPad,CuDef*
G36*
G01*
X26756250Y-28525000D02*
X26243750Y-28525000D01*
G75*
G02*
X26025000Y-28306250I0J218750D01*
G01*
X26025000Y-27868750D01*
G75*
G02*
X26243750Y-27650000I218750J0D01*
G01*
X26756250Y-27650000D01*
G75*
G02*
X26975000Y-27868750I0J-218750D01*
G01*
X26975000Y-28306250D01*
G75*
G02*
X26756250Y-28525000I-218750J0D01*
G01*
G37*
G04 #@! TD.AperFunction*
G04 #@! TD*
G04 #@! TO.P,D4,2*
G04 #@! TO.N,/NL02*
G04 #@! TA.AperFunction,SMDPad,CuDef*
G36*
G01*
X16650000Y-12956250D02*
X16650000Y-12443750D01*
G75*
G02*
X16868750Y-12225000I218750J0D01*
G01*
X17306250Y-12225000D01*
G75*
G02*
X17525000Y-12443750I0J-218750D01*
G01*
X17525000Y-12956250D01*
G75*
G02*
X17306250Y-13175000I-218750J0D01*
G01*
X16868750Y-13175000D01*
G75*
G02*
X16650000Y-12956250I0J218750D01*
G01*
G37*
G04 #@! TD.AperFunction*
G04 #@! TO.P,D4,1*
G04 #@! TO.N,/NL03*
G04 #@! TA.AperFunction,SMDPad,CuDef*
G36*
G01*
X15075000Y-12956250D02*
X15075000Y-12443750D01*
G75*
G02*
X15293750Y-12225000I218750J0D01*
G01*
X15731250Y-12225000D01*
G75*
G02*
X15950000Y-12443750I0J-218750D01*
G01*
X15950000Y-12956250D01*
G75*
G02*
X15731250Y-13175000I-218750J0D01*
G01*
X15293750Y-13175000D01*
G75*
G02*
X15075000Y-12956250I0J218750D01*
G01*
G37*
G04 #@! TD.AperFunction*
G04 #@! TD*
G04 #@! TO.P,D3,2*
G04 #@! TO.N,/NL03*
G04 #@! TA.AperFunction,SMDPad,CuDef*
G36*
G01*
X20650000Y-21056250D02*
X20650000Y-20543750D01*
G75*
G02*
X20868750Y-20325000I218750J0D01*
G01*
X21306250Y-20325000D01*
G75*
G02*
X21525000Y-20543750I0J-218750D01*
G01*
X21525000Y-21056250D01*
G75*
G02*
X21306250Y-21275000I-218750J0D01*
G01*
X20868750Y-21275000D01*
G75*
G02*
X20650000Y-21056250I0J218750D01*
G01*
G37*
G04 #@! TD.AperFunction*
G04 #@! TO.P,D3,1*
G04 #@! TO.N,/NL02*
G04 #@! TA.AperFunction,SMDPad,CuDef*
G36*
G01*
X19075000Y-21056250D02*
X19075000Y-20543750D01*
G75*
G02*
X19293750Y-20325000I218750J0D01*
G01*
X19731250Y-20325000D01*
G75*
G02*
X19950000Y-20543750I0J-218750D01*
G01*
X19950000Y-21056250D01*
G75*
G02*
X19731250Y-21275000I-218750J0D01*
G01*
X19293750Y-21275000D01*
G75*
G02*
X19075000Y-21056250I0J218750D01*
G01*
G37*
G04 #@! TD.AperFunction*
G04 #@! TD*
G04 #@! TO.P,D2,2*
G04 #@! TO.N,/NL01*
G04 #@! TA.AperFunction,SMDPad,CuDef*
G36*
G01*
X22156250Y-23750000D02*
X21643750Y-23750000D01*
G75*
G02*
X21425000Y-23531250I0J218750D01*
G01*
X21425000Y-23093750D01*
G75*
G02*
X21643750Y-22875000I218750J0D01*
G01*
X22156250Y-22875000D01*
G75*
G02*
X22375000Y-23093750I0J-218750D01*
G01*
X22375000Y-23531250D01*
G75*
G02*
X22156250Y-23750000I-218750J0D01*
G01*
G37*
G04 #@! TD.AperFunction*
G04 #@! TO.P,D2,1*
G04 #@! TO.N,/NL02*
G04 #@! TA.AperFunction,SMDPad,CuDef*
G36*
G01*
X22156250Y-25325000D02*
X21643750Y-25325000D01*
G75*
G02*
X21425000Y-25106250I0J218750D01*
G01*
X21425000Y-24668750D01*
G75*
G02*
X21643750Y-24450000I218750J0D01*
G01*
X22156250Y-24450000D01*
G75*
G02*
X22375000Y-24668750I0J-218750D01*
G01*
X22375000Y-25106250D01*
G75*
G02*
X22156250Y-25325000I-218750J0D01*
G01*
G37*
G04 #@! TD.AperFunction*
G04 #@! TD*
G04 #@! TO.P,D1,2*
G04 #@! TO.N,/NL02*
G04 #@! TA.AperFunction,SMDPad,CuDef*
G36*
G01*
X24056250Y-27450000D02*
X23543750Y-27450000D01*
G75*
G02*
X23325000Y-27231250I0J218750D01*
G01*
X23325000Y-26793750D01*
G75*
G02*
X23543750Y-26575000I218750J0D01*
G01*
X24056250Y-26575000D01*
G75*
G02*
X24275000Y-26793750I0J-218750D01*
G01*
X24275000Y-27231250D01*
G75*
G02*
X24056250Y-27450000I-218750J0D01*
G01*
G37*
G04 #@! TD.AperFunction*
G04 #@! TO.P,D1,1*
G04 #@! TO.N,/NL01*
G04 #@! TA.AperFunction,SMDPad,CuDef*
G36*
G01*
X24056250Y-29025000D02*
X23543750Y-29025000D01*
G75*
G02*
X23325000Y-28806250I0J218750D01*
G01*
X23325000Y-28368750D01*
G75*
G02*
X23543750Y-28150000I218750J0D01*
G01*
X24056250Y-28150000D01*
G75*
G02*
X24275000Y-28368750I0J-218750D01*
G01*
X24275000Y-28806250D01*
G75*
G02*
X24056250Y-29025000I-218750J0D01*
G01*
G37*
G04 #@! TD.AperFunction*
G04 #@! TD*
D16*
G04 #@! TO.P,U1,32*
G04 #@! TO.N,Net-(R1-Pad1)*
X41950000Y-61000000D03*
G04 #@! TO.P,U1,31*
G04 #@! TO.N,Net-(R4-Pad1)*
X41950000Y-61800000D03*
G04 #@! TO.P,U1,30*
G04 #@! TO.N,Net-(R3-Pad1)*
X41950000Y-62600000D03*
G04 #@! TO.P,U1,29*
G04 #@! TO.N,Net-(J1-Pad2)*
X41950000Y-63400000D03*
G04 #@! TO.P,U1,28*
G04 #@! TO.N,Net-(J1-Pad4)*
X41950000Y-64200000D03*
G04 #@! TO.P,U1,27*
G04 #@! TO.N,Net-(J1-Pad3)*
X41950000Y-65000000D03*
G04 #@! TO.P,U1,26*
G04 #@! TO.N,N/C*
X41950000Y-65800000D03*
G04 #@! TO.P,U1,25*
G04 #@! TO.N,Net-(R6-Pad1)*
X41950000Y-66600000D03*
D17*
G04 #@! TO.P,U1,24*
G04 #@! TO.N,Net-(R5-Pad1)*
X40500000Y-68050000D03*
G04 #@! TO.P,U1,23*
G04 #@! TO.N,Net-(R7-Pad1)*
X39700000Y-68050000D03*
G04 #@! TO.P,U1,22*
G04 #@! TO.N,N/C*
X38900000Y-68050000D03*
G04 #@! TO.P,U1,21*
G04 #@! TO.N,GND*
X38100000Y-68050000D03*
G04 #@! TO.P,U1,20*
G04 #@! TO.N,N/C*
X37300000Y-68050000D03*
G04 #@! TO.P,U1,19*
X36500000Y-68050000D03*
G04 #@! TO.P,U1,18*
G04 #@! TO.N,Net-(J1-Pad1)*
X35700000Y-68050000D03*
G04 #@! TO.P,U1,17*
G04 #@! TO.N,Net-(J2-Pad2)*
X34900000Y-68050000D03*
D16*
G04 #@! TO.P,U1,16*
G04 #@! TO.N,Net-(J2-Pad3)*
X33450000Y-66600000D03*
G04 #@! TO.P,U1,15*
G04 #@! TO.N,Net-(J2-Pad4)*
X33450000Y-65800000D03*
G04 #@! TO.P,U1,14*
G04 #@! TO.N,Net-(J2-Pad6)*
X33450000Y-65000000D03*
G04 #@! TO.P,U1,13*
G04 #@! TO.N,Net-(R13-Pad1)*
X33450000Y-64200000D03*
G04 #@! TO.P,U1,12*
G04 #@! TO.N,Net-(R12-Pad1)*
X33450000Y-63400000D03*
G04 #@! TO.P,U1,11*
G04 #@! TO.N,Net-(R9-Pad1)*
X33450000Y-62600000D03*
G04 #@! TO.P,U1,10*
G04 #@! TO.N,Net-(R8-Pad1)*
X33450000Y-61800000D03*
G04 #@! TO.P,U1,9*
G04 #@! TO.N,Net-(R10-Pad1)*
X33450000Y-61000000D03*
D17*
G04 #@! TO.P,U1,8*
G04 #@! TO.N,Net-(U1-Pad8)*
X34900000Y-59550000D03*
G04 #@! TO.P,U1,7*
G04 #@! TO.N,Net-(U1-Pad7)*
X35700000Y-59550000D03*
G04 #@! TO.P,U1,6*
G04 #@! TO.N,Net-(J1-Pad1)*
X36500000Y-59550000D03*
G04 #@! TO.P,U1,5*
G04 #@! TO.N,GND*
X37300000Y-59550000D03*
G04 #@! TO.P,U1,4*
G04 #@! TO.N,Net-(J1-Pad1)*
X38100000Y-59550000D03*
G04 #@! TO.P,U1,3*
G04 #@! TO.N,GND*
X38900000Y-59550000D03*
G04 #@! TO.P,U1,2*
G04 #@! TO.N,Net-(R11-Pad1)*
X39700000Y-59550000D03*
G04 #@! TO.P,U1,1*
G04 #@! TO.N,Net-(R2-Pad1)*
X40500000Y-59550000D03*
G04 #@! TD*
D18*
G04 #@! TO.N,GND*
X5400000Y-70900000D03*
X38100000Y-61700000D03*
G04 #@! TO.N,Net-(J1-Pad4)*
X45600000Y-65400000D03*
X29600000Y-70000000D03*
G04 #@! TO.N,Net-(J1-Pad3)*
X44200000Y-65800000D03*
X29600000Y-68800000D03*
G04 #@! TO.N,Net-(J1-Pad2)*
X33200000Y-71100000D03*
X43300000Y-69700000D03*
G04 #@! TO.N,Net-(J1-Pad1)*
X42000000Y-69700000D03*
X5300000Y-72000000D03*
G04 #@! TO.N,Net-(R2-Pad1)*
X16570000Y-48960000D03*
X25460000Y-57140000D03*
G04 #@! TO.N,Net-(R3-Pad1)*
X46800000Y-51600000D03*
X46300000Y-57700000D03*
G04 #@! TO.N,Net-(R4-Pad1)*
X45200000Y-55000000D03*
X43800000Y-61800000D03*
G04 #@! TO.N,Net-(R5-Pad1)*
X44050000Y-68050000D03*
X49372500Y-41627500D03*
G04 #@! TO.N,Net-(R6-Pad1)*
X48100000Y-49600000D03*
X46000000Y-63900000D03*
G04 #@! TO.N,Net-(R7-Pad1)*
X26800000Y-62300000D03*
X39700000Y-64300000D03*
G04 #@! TO.N,Net-(R8-Pad1)*
X17200000Y-57100000D03*
X25700000Y-58500000D03*
G04 #@! TO.N,Net-(R10-Pad1)*
X51830000Y-47740000D03*
X31300000Y-60700000D03*
G04 #@! TO.N,Net-(R11-Pad1)*
X13900000Y-58400000D03*
X27200000Y-60200000D03*
X30100000Y-59500000D03*
X37800000Y-57300000D03*
G04 #@! TO.N,Net-(R12-Pad2)*
X29600000Y-66500000D03*
X26500000Y-64300000D03*
G04 #@! TO.N,/NL02*
X37112500Y-18587500D03*
X37112500Y-24187500D03*
X24972500Y-10187500D03*
X19600000Y-10187500D03*
X15312500Y-18387500D03*
X20100000Y-43500000D03*
X12800000Y-46600000D03*
G04 #@! TO.N,/NL01*
X27900000Y-40500000D03*
X36800010Y-39299990D03*
X49590000Y-36000000D03*
X15553750Y-46066250D03*
X42062500Y-24587500D03*
X23287500Y-22012500D03*
X20000000Y-27200000D03*
G04 #@! TO.N,/NL03*
X43050000Y-44620000D03*
X44700000Y-48520000D03*
X7150000Y-18050000D03*
X2684253Y-47884253D03*
X35312500Y-31987500D03*
X36100000Y-43587500D03*
X44300000Y-7200000D03*
X46100000Y-17600000D03*
X35106249Y-16093751D03*
X24800000Y-24000000D03*
X29000000Y-30500000D03*
G04 #@! TO.N,/NL04*
X38687500Y-19387500D03*
X38700000Y-26900000D03*
X32700000Y-6200000D03*
X15862490Y-3649990D03*
X31100000Y-14900000D03*
X35800000Y-10600000D03*
X7600000Y-51400000D03*
X44856250Y-45256250D03*
G04 #@! TO.N,/NL05*
X45218750Y-15368750D03*
X35248750Y-7738750D03*
X13263750Y-7376250D03*
X33370000Y-50160000D03*
X19300000Y-53200000D03*
X46400000Y-38760000D03*
G04 #@! TO.N,/NL06*
X23100000Y-56000000D03*
X41400000Y-53700000D03*
X6200000Y-57400000D03*
X6312500Y-29087500D03*
X25412500Y-15787500D03*
G04 #@! TO.N,/NL07*
X12870000Y-61870000D03*
X4200000Y-37200000D03*
X37900000Y-42400000D03*
X36800000Y-45100000D03*
G04 #@! TO.N,/NL08*
X11900000Y-55700000D03*
X24412500Y-48587500D03*
X27000000Y-3100000D03*
X45900000Y-25500000D03*
X12200000Y-31200000D03*
X30556250Y-34043750D03*
X34112500Y-34200000D03*
G04 #@! TO.N,/NL10*
X6500000Y-39600000D03*
X19300000Y-35200000D03*
X40850000Y-18100000D03*
X31780000Y-20730000D03*
X30932500Y-37087500D03*
G04 #@! TO.N,/NL11*
X10187500Y-41787500D03*
X8200000Y-57100000D03*
X8987500Y-17812500D03*
X3800000Y-23412500D03*
G04 #@! TD*
D19*
G04 #@! TO.N,GND*
X37300000Y-60410002D02*
X37300000Y-59550000D01*
X38900000Y-60410002D02*
X38900000Y-59550000D01*
X2500000Y-70260000D02*
X4760000Y-70260000D01*
X4760000Y-70260000D02*
X5400000Y-70900000D01*
X5400000Y-70900000D02*
X5400000Y-70900000D01*
X38100000Y-68050000D02*
X38100000Y-61700000D01*
X38100000Y-61210002D02*
X37300000Y-60410002D01*
X38100000Y-61210002D02*
X38900000Y-60410002D01*
X38100000Y-61700000D02*
X38100000Y-61210002D01*
G04 #@! TO.N,Net-(J1-Pad4)*
X45600000Y-65400000D02*
X45600000Y-65400000D01*
X29200001Y-69600001D02*
X29600000Y-70000000D01*
X4380001Y-69600001D02*
X29200001Y-69600001D01*
X2500000Y-67720000D02*
X4380001Y-69600001D01*
X44400000Y-64200000D02*
X45600000Y-65400000D01*
X41950000Y-64200000D02*
X44400000Y-64200000D01*
G04 #@! TO.N,Net-(J1-Pad3)*
X41950000Y-65000000D02*
X43400000Y-65000000D01*
X44200000Y-65800000D02*
X44200000Y-65800000D01*
X2500000Y-65180000D02*
X6120000Y-68800000D01*
X6120000Y-68800000D02*
X29600000Y-68800000D01*
X29600000Y-68800000D02*
X29600000Y-68800000D01*
X43400000Y-65000000D02*
X44200000Y-65800000D01*
G04 #@! TO.N,Net-(J1-Pad2)*
X46810000Y-62110000D02*
X46810000Y-67190000D01*
X33200000Y-71100000D02*
X33200000Y-71100000D01*
X46716998Y-62110000D02*
X46810000Y-62110000D01*
X45426998Y-63400000D02*
X46716998Y-62110000D01*
X41950000Y-63400000D02*
X45426998Y-63400000D01*
X44300000Y-69700000D02*
X43300000Y-69700000D01*
X46810000Y-67190000D02*
X44300000Y-69700000D01*
X30000000Y-67900000D02*
X33200000Y-71100000D01*
X7189998Y-67900000D02*
X30000000Y-67900000D01*
X2500000Y-62640000D02*
X2500000Y-63210002D01*
X2500000Y-63210002D02*
X7189998Y-67900000D01*
X47226998Y-61600000D02*
X46716998Y-62110000D01*
X49500000Y-61600000D02*
X47226998Y-61600000D01*
G04 #@! TO.N,Net-(J1-Pad1)*
X35700000Y-69100000D02*
X35700000Y-68050000D01*
X37025001Y-70425001D02*
X35700000Y-69100000D01*
X49500000Y-69580000D02*
X48954999Y-70125001D01*
X36500000Y-60410002D02*
X36500000Y-59550000D01*
X35700000Y-68050000D02*
X35700000Y-61210002D01*
X7800000Y-71000000D02*
X15750000Y-71000000D01*
X19800000Y-71000000D02*
X27750000Y-71000000D01*
X42000000Y-69700000D02*
X42000000Y-69700000D01*
X19800000Y-71000000D02*
X19300000Y-71000000D01*
X35700000Y-61210002D02*
X36500000Y-60410002D01*
X36500000Y-58689998D02*
X36500000Y-59550000D01*
X36764999Y-58424999D02*
X36500000Y-58689998D01*
X38100000Y-59550000D02*
X38100000Y-58500000D01*
X38024999Y-58424999D02*
X36764999Y-58424999D01*
X38100000Y-58500000D02*
X38024999Y-58424999D01*
X48574999Y-70425001D02*
X49500000Y-69500000D01*
X42725001Y-70425001D02*
X48574999Y-70425001D01*
X42000000Y-69700000D02*
X42725001Y-70425001D01*
X37025001Y-70425001D02*
X42725001Y-70425001D01*
X2500998Y-72000000D02*
X5300000Y-72000000D01*
X1324999Y-70824001D02*
X2500998Y-72000000D01*
X1324999Y-61275001D02*
X1324999Y-70824001D01*
X2500000Y-60100000D02*
X1324999Y-61275001D01*
X6800000Y-72000000D02*
X5300000Y-72000000D01*
X7800000Y-71000000D02*
X6800000Y-72000000D01*
X18800000Y-72000000D02*
X5300000Y-72000000D01*
X19800000Y-71000000D02*
X18800000Y-72000000D01*
G04 #@! TO.N,Net-(J2-Pad6)*
X31874989Y-65715009D02*
X32589998Y-65000000D01*
X32589998Y-65000000D02*
X33450000Y-65000000D01*
X31874989Y-67984219D02*
X31874989Y-65715009D01*
X50869200Y-72405030D02*
X36295800Y-72405030D01*
X52025029Y-71249203D02*
X50869200Y-72405030D01*
X36295800Y-72405030D02*
X36195385Y-72304615D01*
X36195385Y-72304615D02*
X31874989Y-67984219D01*
X36295798Y-72405028D02*
X36195385Y-72304615D01*
X52025029Y-62125029D02*
X52025029Y-71249203D01*
X49500000Y-59600000D02*
X52025029Y-62125029D01*
G04 #@! TO.N,Net-(J2-Pad4)*
X49935019Y-64035019D02*
X49500000Y-63600000D01*
X32589998Y-65800000D02*
X33450000Y-65800000D01*
X32324999Y-66064999D02*
X32589998Y-65800000D01*
X32324999Y-67797819D02*
X32324999Y-66064999D01*
X49500000Y-63600000D02*
X51575020Y-65675020D01*
X51575020Y-65675020D02*
X51575019Y-71062803D01*
X51575019Y-71062803D02*
X50682800Y-71955020D01*
X50682800Y-71955020D02*
X36482200Y-71955020D01*
X36482200Y-71955020D02*
X32324999Y-67797819D01*
G04 #@! TO.N,Net-(J2-Pad3)*
X33450000Y-66600000D02*
X33450000Y-68286410D01*
X33450000Y-68286410D02*
X36668600Y-71505010D01*
X36668600Y-71505010D02*
X50496402Y-71505010D01*
X50496402Y-71505010D02*
X51125010Y-70876402D01*
X49500000Y-65600000D02*
X51125010Y-67225010D01*
X51125010Y-67225010D02*
X51125010Y-70876402D01*
G04 #@! TO.N,Net-(J2-Pad2)*
X34900000Y-69100000D02*
X34900000Y-68050000D01*
X50675001Y-70690001D02*
X50610001Y-70755001D01*
X36855001Y-71055001D02*
X34900000Y-69100000D01*
X50310001Y-71055001D02*
X50675001Y-70690001D01*
X36855001Y-71055001D02*
X50310001Y-71055001D01*
X50675001Y-68775001D02*
X50675001Y-70690001D01*
X49500000Y-67600000D02*
X50675001Y-68775001D01*
G04 #@! TO.N,Net-(R1-Pad1)*
X50130009Y-51142993D02*
X42873002Y-58400000D01*
X49660000Y-39837500D02*
X50130009Y-40307509D01*
X50130009Y-40307509D02*
X50130009Y-51142993D01*
X42500000Y-61000000D02*
X41950000Y-61000000D01*
X42873002Y-60626998D02*
X42500000Y-61000000D01*
X42873002Y-58400000D02*
X42873002Y-60626998D01*
G04 #@! TO.N,Net-(R2-Pad1)*
X14717500Y-48460000D02*
X16070000Y-48460000D01*
X16070000Y-48460000D02*
X16570000Y-48960000D01*
X16570000Y-48960000D02*
X16570000Y-48960000D01*
X40500000Y-58363590D02*
X38086400Y-55949990D01*
X25460000Y-55260000D02*
X25460000Y-57140000D01*
X38086400Y-55949990D02*
X34134992Y-55949990D01*
X33010001Y-54524999D02*
X26195001Y-54524999D01*
X26195001Y-54524999D02*
X25460000Y-55260000D01*
X34134992Y-55649990D02*
X33010001Y-54524999D01*
X34134992Y-55949990D02*
X34134992Y-55649990D01*
X40500000Y-58363590D02*
X40500000Y-59550000D01*
G04 #@! TO.N,Net-(R3-Pad1)*
X45200000Y-51987500D02*
X46412500Y-51987500D01*
X46412500Y-51987500D02*
X46800000Y-51600000D01*
X46800000Y-51600000D02*
X46800000Y-51600000D01*
X46300000Y-57700000D02*
X46300000Y-57700000D01*
X46300000Y-60073002D02*
X46300000Y-57700000D01*
X46300000Y-60373002D02*
X46300000Y-60073002D01*
X44073002Y-62600000D02*
X46300000Y-60373002D01*
X41950000Y-62600000D02*
X44073002Y-62600000D01*
G04 #@! TO.N,Net-(R4-Pad1)*
X47887500Y-43800000D02*
X48020000Y-43800000D01*
X48020000Y-43800000D02*
X49680000Y-45460000D01*
X49680000Y-45460000D02*
X49680000Y-47770000D01*
X49680000Y-47770000D02*
X49680000Y-50520000D01*
X49680000Y-50520000D02*
X45200000Y-55000000D01*
X45200000Y-55000000D02*
X45200000Y-55000000D01*
X43800000Y-61800000D02*
X41950000Y-61800000D01*
G04 #@! TO.N,Net-(R5-Pad1)*
X46440000Y-41627500D02*
X46915000Y-41627500D01*
X46440000Y-41627500D02*
X49372500Y-41627500D01*
X40500000Y-68050000D02*
X44050000Y-68050000D01*
X44050000Y-68050000D02*
X44050000Y-68050000D01*
G04 #@! TO.N,Net-(R6-Pad1)*
X47807500Y-46090000D02*
X49000000Y-46090000D01*
X49000000Y-46090000D02*
X48990000Y-46100000D01*
X48990000Y-46100000D02*
X48990000Y-47750000D01*
X48990000Y-47750000D02*
X48990000Y-48710000D01*
X48990000Y-48710000D02*
X48100000Y-49600000D01*
X48100000Y-49600000D02*
X48100000Y-49600000D01*
X45473002Y-66600000D02*
X41950000Y-66600000D01*
X46325001Y-65748001D02*
X45473002Y-66600000D01*
X46325001Y-64225001D02*
X46325001Y-65748001D01*
X46000000Y-63900000D02*
X46325001Y-64225001D01*
G04 #@! TO.N,Net-(R7-Pad1)*
X21337500Y-60300000D02*
X23000000Y-60300000D01*
X23000000Y-60300000D02*
X24800000Y-60300000D01*
X24800000Y-60300000D02*
X26800000Y-62300000D01*
X26800000Y-62300000D02*
X26800000Y-62300000D01*
X39700000Y-64300000D02*
X39700000Y-68050000D01*
G04 #@! TO.N,Net-(R8-Pad1)*
X15587500Y-56200000D02*
X16300000Y-56200000D01*
X16300000Y-56200000D02*
X17200000Y-57100000D01*
X17200000Y-57100000D02*
X17200000Y-57100000D01*
X33450000Y-61800000D02*
X27726998Y-61800000D01*
X25700000Y-59773002D02*
X25700000Y-58500000D01*
X27726998Y-61800000D02*
X25700000Y-59773002D01*
G04 #@! TO.N,Net-(R9-Pad1)*
X30751090Y-62600000D02*
X33450000Y-62600000D01*
X30251090Y-63100000D02*
X30751090Y-62600000D01*
X21387500Y-63100000D02*
X30251090Y-63100000D01*
G04 #@! TO.N,Net-(R10-Pad1)*
X51830000Y-47740000D02*
X51830000Y-47740000D01*
X51610000Y-47520000D02*
X51830000Y-47740000D01*
X51610000Y-30877500D02*
X51610000Y-47520000D01*
X33150000Y-60700000D02*
X33450000Y-61000000D01*
X31300000Y-60700000D02*
X33150000Y-60700000D01*
G04 #@! TO.N,Net-(R11-Pad1)*
X11687500Y-58000000D02*
X13500000Y-58000000D01*
X13500000Y-58000000D02*
X13900000Y-58400000D01*
X13900000Y-58400000D02*
X13900000Y-58400000D01*
X27200000Y-60200000D02*
X29400000Y-60200000D01*
X29400000Y-60200000D02*
X30100000Y-59500000D01*
X30100000Y-59500000D02*
X30100000Y-59500000D01*
X37800000Y-57300000D02*
X38800000Y-57300000D01*
X38800000Y-57300000D02*
X39700000Y-58200000D01*
X39700000Y-58200000D02*
X39700000Y-59550000D01*
G04 #@! TO.N,Net-(R12-Pad2)*
X19800000Y-66500000D02*
X27750000Y-66500000D01*
X27750000Y-66500000D02*
X29600000Y-66500000D01*
X29600000Y-66500000D02*
X29600000Y-66500000D01*
X28112500Y-64300000D02*
X26500000Y-64300000D01*
X26500000Y-64300000D02*
X26500000Y-64300000D01*
G04 #@! TO.N,Net-(R12-Pad1)*
X30587500Y-63400000D02*
X33450000Y-63400000D01*
X29687500Y-64300000D02*
X30587500Y-63400000D01*
G04 #@! TO.N,Net-(R13-Pad2)*
X15750000Y-66500000D02*
X16400000Y-66500000D01*
X16400000Y-66500000D02*
X18600000Y-64300000D01*
X7800000Y-66500000D02*
X15750000Y-66500000D01*
X23312500Y-64300000D02*
X18600000Y-64300000D01*
G04 #@! TO.N,Net-(R13-Pad1)*
X32300000Y-64200000D02*
X33450000Y-64200000D01*
X31399990Y-65100010D02*
X32300000Y-64200000D01*
X25687510Y-65100010D02*
X31399990Y-65100010D01*
X24887500Y-64300000D02*
X25687510Y-65100010D01*
G04 #@! TO.N,Net-(U1-Pad8)*
X31850000Y-59550000D02*
X34900000Y-59550000D01*
X28600000Y-56300000D02*
X31850000Y-59550000D01*
X27400000Y-56300000D02*
X28600000Y-56300000D01*
G04 #@! TO.N,Net-(U1-Pad7)*
X35700000Y-58500000D02*
X35700000Y-59550000D01*
X33500000Y-56300000D02*
X35700000Y-58500000D01*
X31800000Y-56300000D02*
X33500000Y-56300000D01*
G04 #@! TO.N,/NL02*
X24887500Y-41875000D02*
X27512500Y-44500000D01*
X24887500Y-41800000D02*
X24887500Y-41875000D01*
X26487500Y-31800000D02*
X26487500Y-31100000D01*
X12287490Y-50899990D02*
X13087500Y-51700000D01*
X9212490Y-50899990D02*
X12287490Y-50899990D01*
X7712500Y-49400000D02*
X9212490Y-50899990D01*
X14575000Y-10187500D02*
X17087500Y-12700000D01*
X14500000Y-10187500D02*
X14575000Y-10187500D01*
X12525000Y-10187500D02*
X11500000Y-11212500D01*
X14500000Y-10187500D02*
X12525000Y-10187500D01*
X21168750Y-30343750D02*
X27243750Y-30343750D01*
X26487500Y-31100000D02*
X27243750Y-30343750D01*
X27243750Y-30343750D02*
X29000000Y-28587500D01*
X37100000Y-17087500D02*
X37112500Y-17100000D01*
X37112500Y-17100000D02*
X37112500Y-18587500D01*
X37112500Y-18587500D02*
X37112500Y-18587500D01*
X37037500Y-24112500D02*
X37112500Y-24187500D01*
X35800000Y-24112500D02*
X37037500Y-24112500D01*
X26600000Y-10812500D02*
X28700000Y-12912500D01*
X26600000Y-10187500D02*
X26600000Y-10812500D01*
X19600000Y-10187500D02*
X19600000Y-10187500D01*
X13142500Y-50044980D02*
X12287490Y-50899990D01*
X13142500Y-48460000D02*
X13142500Y-50044980D01*
X26600000Y-10187500D02*
X24972500Y-10187500D01*
X24972500Y-10187500D02*
X24972500Y-10187500D01*
X19600000Y-10187500D02*
X17087500Y-12700000D01*
X19712500Y-31800000D02*
X21106250Y-30406250D01*
X21106250Y-30406250D02*
X21168750Y-30343750D01*
X21900000Y-25112500D02*
X23800000Y-27012500D01*
X21900000Y-24887500D02*
X21900000Y-25112500D01*
X14300000Y-23312500D02*
X16100000Y-25112500D01*
X16100000Y-25112500D02*
X16100000Y-28200000D01*
X16112500Y-28200000D02*
X19712500Y-31800000D01*
X16100000Y-28200000D02*
X16112500Y-28200000D01*
X38071816Y-20112501D02*
X37112500Y-19153185D01*
X37112500Y-19153185D02*
X37112500Y-18587500D01*
X40124999Y-19023003D02*
X39035501Y-20112501D01*
X39035501Y-20112501D02*
X38071816Y-20112501D01*
X40124999Y-14962501D02*
X40124999Y-19023003D01*
X41687500Y-13400000D02*
X40124999Y-14962501D01*
X17100000Y-18387500D02*
X19512500Y-20800000D01*
X12800000Y-18387500D02*
X15312500Y-18387500D01*
X20923900Y-22207594D02*
X22100000Y-21031494D01*
X21900000Y-24887500D02*
X20923900Y-23911400D01*
X20923900Y-23911400D02*
X20923900Y-22207594D01*
X22100000Y-21031494D02*
X22100000Y-19800000D01*
X20512500Y-19800000D02*
X19512500Y-20800000D01*
X22100000Y-19800000D02*
X20512500Y-19800000D01*
X22549990Y-42281484D02*
X22868516Y-42600010D01*
X22868516Y-42600010D02*
X24087490Y-42600010D01*
X22549990Y-35737510D02*
X22549990Y-42281484D01*
X24087490Y-42600010D02*
X24887500Y-41800000D01*
X26487500Y-31800000D02*
X22549990Y-35737510D01*
X15312500Y-18387500D02*
X17100000Y-18387500D01*
X28518516Y-26249990D02*
X28199990Y-26568516D01*
X28199990Y-27787490D02*
X29000000Y-28587500D01*
X28199990Y-26568516D02*
X28199990Y-27787490D01*
X33662510Y-26249990D02*
X28518516Y-26249990D01*
X35800000Y-24112500D02*
X33662510Y-26249990D01*
X24887500Y-41800000D02*
X23187500Y-43500000D01*
X23187500Y-43500000D02*
X20100000Y-43500000D01*
X20100000Y-43500000D02*
X20100000Y-43500000D01*
X13142500Y-48460000D02*
X13142500Y-46942500D01*
X13142500Y-46942500D02*
X12800000Y-46600000D01*
X12800000Y-46600000D02*
X12800000Y-46600000D01*
X21168750Y-29643750D02*
X21168750Y-30343750D01*
X23800000Y-27012500D02*
X21168750Y-29643750D01*
G04 #@! TO.N,/NL01*
X40287500Y-40100000D02*
X39487490Y-39299990D01*
X29512500Y-40500000D02*
X30112500Y-39900000D01*
X27900000Y-40500000D02*
X29512500Y-40500000D01*
X19400000Y-47187500D02*
X19500000Y-47087500D01*
X14100000Y-44612500D02*
X14087500Y-44600000D01*
X36800000Y-39299980D02*
X36800010Y-39299990D01*
X39487490Y-39299990D02*
X36800010Y-39299990D01*
X42575000Y-24587500D02*
X44000000Y-26012500D01*
X40200000Y-24587500D02*
X42062500Y-24587500D01*
X35687500Y-20700000D02*
X36312500Y-20700000D01*
X35687500Y-21300000D02*
X31900000Y-25087500D01*
X35687500Y-20700000D02*
X35687500Y-21300000D01*
X31900000Y-25087500D02*
X30275000Y-25087500D01*
X23200000Y-22012500D02*
X21900000Y-23312500D01*
X30800000Y-5187500D02*
X30887500Y-5100000D01*
X16575000Y-47087500D02*
X15553750Y-46066250D01*
X19500000Y-47087500D02*
X16575000Y-47087500D01*
X41387500Y-8375000D02*
X43012500Y-10000000D01*
X41387500Y-7600000D02*
X41387500Y-8375000D01*
X30887500Y-5100000D02*
X30887500Y-9612500D01*
X30812500Y-9687500D02*
X29500000Y-9687500D01*
X30887500Y-9612500D02*
X30812500Y-9687500D01*
X29500000Y-9687500D02*
X29500000Y-10760000D01*
X29500000Y-10760000D02*
X30670000Y-11930000D01*
X35910000Y-20477500D02*
X35687500Y-20700000D01*
X35910000Y-11930000D02*
X35910000Y-20477500D01*
X30670000Y-11930000D02*
X35910000Y-11930000D01*
X45987500Y-20300000D02*
X45987500Y-20742500D01*
X44996250Y-21733750D02*
X37346250Y-21733750D01*
X36312500Y-20700000D02*
X37346250Y-21733750D01*
X45987500Y-20742500D02*
X44996250Y-21733750D01*
X37346250Y-21733750D02*
X40200000Y-24587500D01*
X36800010Y-39299990D02*
X36800010Y-39299990D01*
X41387500Y-7600000D02*
X41310000Y-7600000D01*
X41310000Y-7600000D02*
X39160000Y-5450000D01*
X39160000Y-5450000D02*
X39160000Y-3670000D01*
X39160000Y-3670000D02*
X38910000Y-3420000D01*
X32567500Y-3420000D02*
X30887500Y-5100000D01*
X38910000Y-3420000D02*
X32567500Y-3420000D01*
X49590000Y-38192500D02*
X49660000Y-38262500D01*
X49590000Y-36000000D02*
X49590000Y-38192500D01*
X15553750Y-46066250D02*
X14087500Y-44600000D01*
X42062500Y-24587500D02*
X42575000Y-24587500D01*
X30112500Y-39900000D02*
X30112500Y-39627500D01*
X36600010Y-39099990D02*
X36800010Y-39299990D01*
X30640010Y-39099990D02*
X36600010Y-39099990D01*
X30112500Y-39627500D02*
X30640010Y-39099990D01*
X26000000Y-28587500D02*
X26500000Y-28087500D01*
X23800000Y-28587500D02*
X26000000Y-28587500D01*
X30262500Y-25100000D02*
X30275000Y-25087500D01*
X47762499Y-16874999D02*
X47900000Y-17012500D01*
X45374999Y-17251999D02*
X45751999Y-16874999D01*
X45751999Y-16874999D02*
X47762499Y-16874999D01*
X45374999Y-19687499D02*
X45374999Y-17251999D01*
X45987500Y-20300000D02*
X45374999Y-19687499D01*
X18987500Y-16800000D02*
X20200000Y-16800000D01*
X20200000Y-16800000D02*
X25312500Y-21912500D01*
X27200000Y-22012500D02*
X25312500Y-22012500D01*
X25312500Y-21912500D02*
X25312500Y-22012500D01*
X25312500Y-22012500D02*
X23287500Y-22012500D01*
X27749980Y-25750020D02*
X29343750Y-24156250D01*
X26975000Y-28087500D02*
X27749980Y-27312520D01*
X26500000Y-28087500D02*
X26975000Y-28087500D01*
X27749980Y-27312520D02*
X27749980Y-25750020D01*
X29343750Y-24156250D02*
X27200000Y-22012500D01*
X30275000Y-25087500D02*
X29343750Y-24156250D01*
X23287500Y-22012500D02*
X23200000Y-22012500D01*
X17700000Y-25887500D02*
X18687500Y-25887500D01*
X18687500Y-25887500D02*
X20000000Y-27200000D01*
X20000000Y-27200000D02*
X20000000Y-27200000D01*
G04 #@! TO.N,/NL03*
X899990Y-49668516D02*
X899990Y-53287490D01*
X899990Y-53287490D02*
X1700000Y-54087500D01*
X4868516Y-45699990D02*
X2684253Y-47884253D01*
X6087490Y-45699990D02*
X4868516Y-45699990D01*
X6887500Y-46500000D02*
X6087490Y-45699990D01*
X9500000Y-15512500D02*
X8700000Y-14712500D01*
X11387500Y-15512500D02*
X9500000Y-15512500D01*
X12700000Y-15512500D02*
X15512500Y-12700000D01*
X11387500Y-15512500D02*
X12700000Y-15512500D01*
X36100000Y-43587500D02*
X36100000Y-43587500D01*
X41400000Y-43587500D02*
X36100000Y-43587500D01*
X32275000Y-31987500D02*
X32087500Y-31800000D01*
X36700000Y-31987500D02*
X35312500Y-31987500D01*
X27200000Y-25812500D02*
X26500000Y-26512500D01*
X47487500Y-24775000D02*
X47912500Y-25200000D01*
X47487500Y-22800000D02*
X47487500Y-24775000D01*
X17025000Y-14212500D02*
X15512500Y-12700000D01*
X21087500Y-16887500D02*
X21087500Y-14212500D01*
X27900000Y-19087500D02*
X23287500Y-19087500D01*
X23500000Y-14212500D02*
X21087500Y-14212500D01*
X23287500Y-19087500D02*
X21087500Y-16887500D01*
X21087500Y-14212500D02*
X17025000Y-14212500D01*
X33500000Y-14412500D02*
X34812500Y-14412500D01*
X34812500Y-14412500D02*
X35100000Y-14700000D01*
X35100000Y-14700000D02*
X35100000Y-17800000D01*
X33812500Y-19087500D02*
X27900000Y-19087500D01*
X35100000Y-17800000D02*
X33812500Y-19087500D01*
X46612500Y-5100000D02*
X47500000Y-5987500D01*
X7150000Y-14570000D02*
X8557500Y-14570000D01*
X8557500Y-14570000D02*
X8700000Y-14712500D01*
X10400000Y-19387500D02*
X8477500Y-19387500D01*
X7150000Y-18060000D02*
X7150000Y-18050000D01*
X8477500Y-19387500D02*
X7150000Y-18060000D01*
X23712500Y-14000000D02*
X23500000Y-14212500D01*
X23712500Y-5100000D02*
X23712500Y-14000000D01*
X41400000Y-43587500D02*
X42017500Y-43587500D01*
X42017500Y-43587500D02*
X43050000Y-44620000D01*
X43050000Y-44620000D02*
X43050000Y-44620000D01*
X7150000Y-18050000D02*
X7150000Y-14570000D01*
X2684253Y-47884253D02*
X899990Y-49668516D01*
X35312500Y-31987500D02*
X32275000Y-31987500D01*
X36100000Y-43587500D02*
X34887500Y-44800000D01*
X44000000Y-5100000D02*
X44000000Y-6900000D01*
X44000000Y-5100000D02*
X46612500Y-5100000D01*
X42187500Y-5100000D02*
X44000000Y-5100000D01*
X44000000Y-6900000D02*
X44300000Y-7200000D01*
X44300000Y-7200000D02*
X44300000Y-7200000D01*
X46750010Y-18250010D02*
X46100000Y-17600000D01*
X46750010Y-20781484D02*
X46750010Y-18250010D01*
X46431484Y-21100010D02*
X46750010Y-20781484D01*
X46368496Y-21100010D02*
X46431484Y-21100010D01*
X45149990Y-22318516D02*
X46368496Y-21100010D01*
X45149990Y-23281484D02*
X45149990Y-22318516D01*
X45468516Y-23600010D02*
X45149990Y-23281484D01*
X46687490Y-23600010D02*
X45468516Y-23600010D01*
X47487500Y-22800000D02*
X46687490Y-23600010D01*
X14723910Y-19387500D02*
X10400000Y-19387500D01*
X16936420Y-21600010D02*
X14723910Y-19387500D01*
X20287490Y-21600010D02*
X16936420Y-21600010D01*
X21087500Y-20800000D02*
X20287490Y-21600010D01*
X27200000Y-25300000D02*
X26100000Y-25300000D01*
X27200000Y-25300000D02*
X27200000Y-25812500D01*
X27200000Y-23587500D02*
X27200000Y-25300000D01*
X26100000Y-25300000D02*
X24800000Y-24000000D01*
X24800000Y-24000000D02*
X24800000Y-24000000D01*
X32087500Y-31800000D02*
X30787500Y-30500000D01*
X30787500Y-30500000D02*
X29000000Y-30500000D01*
X29000000Y-30500000D02*
X29000000Y-30500000D01*
X44700000Y-49912500D02*
X45200000Y-50412500D01*
X44700000Y-48520000D02*
X44700000Y-49912500D01*
G04 #@! TO.N,/NL04*
X7925000Y-52512500D02*
X8812500Y-53400000D01*
X4700000Y-52512500D02*
X6987500Y-52512500D01*
X6987500Y-52512500D02*
X7925000Y-52512500D01*
X37700000Y-50187500D02*
X37100000Y-50187500D01*
X40987500Y-46900000D02*
X37700000Y-50187500D01*
X7200000Y-23587500D02*
X9087500Y-21700000D01*
X5200000Y-23587500D02*
X7200000Y-23587500D01*
X19487500Y-7275000D02*
X17312500Y-5100000D01*
X19487500Y-7400000D02*
X19487500Y-7275000D01*
X41187500Y-29400000D02*
X41187500Y-32087500D01*
X41587500Y-32487500D02*
X43200000Y-32487500D01*
X41187500Y-32087500D02*
X41587500Y-32487500D01*
X31975000Y-17512500D02*
X33500000Y-15987500D01*
X27900000Y-17512500D02*
X31975000Y-17512500D01*
X35212500Y-6200000D02*
X32300000Y-9112500D01*
X35212500Y-5100000D02*
X35212500Y-6200000D01*
X38200000Y-5987500D02*
X39812500Y-7600000D01*
X38200000Y-4100000D02*
X38200000Y-5987500D01*
X35212500Y-5100000D02*
X36212500Y-4100000D01*
X36212500Y-4100000D02*
X38200000Y-4100000D01*
X51800010Y-6987490D02*
X48700000Y-10087500D01*
X51800010Y-5212510D02*
X51800010Y-6987490D01*
X51000000Y-4412500D02*
X51800010Y-5212510D01*
X43212500Y-46900000D02*
X44856250Y-45256250D01*
X40987500Y-46900000D02*
X43212500Y-46900000D01*
X40112500Y-7900000D02*
X39812500Y-7600000D01*
X44587500Y-10000000D02*
X44587500Y-10812500D01*
X43612500Y-11787500D02*
X40112500Y-11787500D01*
X44587500Y-10812500D02*
X43612500Y-11787500D01*
X40112500Y-13400000D02*
X40112500Y-11787500D01*
X40112500Y-11787500D02*
X40112500Y-7900000D01*
X48612500Y-10000000D02*
X48700000Y-10087500D01*
X44587500Y-10000000D02*
X48612500Y-10000000D01*
X38687500Y-17100000D02*
X38687500Y-19387500D01*
X41187500Y-29400000D02*
X41187500Y-28687500D01*
X41187500Y-28687500D02*
X39400000Y-26900000D01*
X39400000Y-26900000D02*
X38700000Y-26900000D01*
X38687500Y-19387500D02*
X38687500Y-19387500D01*
X38700000Y-26900000D02*
X38700000Y-26900000D01*
X38687500Y-14825000D02*
X40112500Y-13400000D01*
X38687500Y-17100000D02*
X38687500Y-14825000D01*
X15862490Y-3649990D02*
X17312500Y-5100000D01*
X35212500Y-5100000D02*
X33800000Y-5100000D01*
X33800000Y-5100000D02*
X32700000Y-6200000D01*
X32700000Y-6200000D02*
X32700000Y-6200000D01*
X15862490Y-3649990D02*
X15862490Y-3649990D01*
X33500000Y-15987500D02*
X32187500Y-15987500D01*
X32187500Y-15987500D02*
X31100000Y-14900000D01*
X31100000Y-14900000D02*
X31100000Y-14900000D01*
X38800000Y-7600000D02*
X35800000Y-10600000D01*
X39812500Y-7600000D02*
X38800000Y-7600000D01*
X6987500Y-52512500D02*
X6987500Y-52012500D01*
X6987500Y-52012500D02*
X7600000Y-51400000D01*
X7600000Y-51400000D02*
X7600000Y-51400000D01*
X44856250Y-45256250D02*
X46312500Y-43800000D01*
X8813600Y-3649990D02*
X15862490Y-3649990D01*
X9500000Y-21000000D02*
X9483600Y-20680010D01*
X5629990Y-19506400D02*
X5629990Y-6833600D01*
X9483600Y-20680010D02*
X6803599Y-20680009D01*
X9087500Y-21700000D02*
X9500000Y-21000000D01*
X6803599Y-20680009D02*
X5629990Y-19506400D01*
X5629990Y-6833600D02*
X8813600Y-3649990D01*
G04 #@! TO.N,/NL05*
X21012500Y-53200000D02*
X21212500Y-53400000D01*
X17387500Y-53200000D02*
X19300000Y-53200000D01*
X10087500Y-27875000D02*
X11012500Y-28800000D01*
X10087500Y-25400000D02*
X10087500Y-27102500D01*
X14500000Y-8612500D02*
X10887500Y-8612500D01*
X10887500Y-8612500D02*
X9800000Y-9700000D01*
X9800000Y-11087500D02*
X11500000Y-12787500D01*
X9800000Y-9700000D02*
X9800000Y-11087500D01*
X12700000Y-6812500D02*
X13263750Y-7376250D01*
X12700000Y-5987500D02*
X12700000Y-6812500D01*
X9700000Y-4412500D02*
X8687500Y-4412500D01*
X8687500Y-4412500D02*
X8100000Y-5000000D01*
X8100000Y-8000000D02*
X9800000Y-9700000D01*
X8100000Y-5000000D02*
X8100000Y-8000000D01*
X49487500Y-28525000D02*
X48000000Y-30012500D01*
X49487500Y-25200000D02*
X49487500Y-28525000D01*
X49487500Y-34875000D02*
X49487500Y-28525000D01*
X46875000Y-37487500D02*
X49487500Y-34875000D01*
X46400000Y-37487500D02*
X46875000Y-37487500D01*
X49487500Y-20175000D02*
X47900000Y-18587500D01*
X44187500Y-16400000D02*
X45218750Y-15368750D01*
X44187500Y-18100000D02*
X44187500Y-16400000D01*
X49487500Y-15900000D02*
X49487500Y-20175000D01*
X47087500Y-13500000D02*
X49487500Y-15900000D01*
X36787500Y-6200000D02*
X36787500Y-5100000D01*
X32300000Y-10687500D02*
X35248750Y-7738750D01*
X44187500Y-20075000D02*
X44412500Y-20300000D01*
X44187500Y-18100000D02*
X44187500Y-20075000D01*
X47635000Y-21077500D02*
X49487500Y-21077500D01*
X45912500Y-22800000D02*
X47635000Y-21077500D01*
X49487500Y-25200000D02*
X49487500Y-21077500D01*
X49487500Y-21077500D02*
X49487500Y-20175000D01*
X46400000Y-40012500D02*
X46440000Y-40052500D01*
X46400000Y-37487500D02*
X46400000Y-38760000D01*
X45218750Y-15368750D02*
X47087500Y-13500000D01*
X35248750Y-7738750D02*
X36787500Y-6200000D01*
X13263750Y-7376250D02*
X14500000Y-8612500D01*
X10087500Y-27102500D02*
X10087500Y-27875000D01*
X31712500Y-51800000D02*
X33352500Y-50160000D01*
X33352500Y-50160000D02*
X33370000Y-50160000D01*
X35687500Y-50857500D02*
X35687500Y-53400000D01*
X34990000Y-50160000D02*
X35687500Y-50857500D01*
X6080000Y-10020000D02*
X8100000Y-8000000D01*
X6080000Y-19320000D02*
X6080000Y-10020000D01*
X6990000Y-20230000D02*
X6080000Y-19320000D01*
X10087500Y-23032500D02*
X10710000Y-22410000D01*
X9670000Y-20230000D02*
X6990000Y-20230000D01*
X10087500Y-25400000D02*
X10087500Y-23032500D01*
X10710000Y-22410000D02*
X10710000Y-21270000D01*
X10710000Y-21270000D02*
X9670000Y-20230000D01*
X33370000Y-50160000D02*
X34990000Y-50160000D01*
X19300000Y-53200000D02*
X21012500Y-53200000D01*
X46400000Y-38760000D02*
X46400000Y-40012500D01*
G04 #@! TO.N,/NL06*
X39600000Y-52512500D02*
X40212500Y-52512500D01*
X40212500Y-52512500D02*
X41400000Y-53700000D01*
X42312500Y-53700000D02*
X42700000Y-54087500D01*
X41400000Y-53700000D02*
X42312500Y-53700000D01*
X6375000Y-29087500D02*
X8200000Y-30912500D01*
X3800000Y-29087500D02*
X6312500Y-29087500D01*
X11125000Y-5987500D02*
X12700000Y-4412500D01*
X9700000Y-5987500D02*
X11125000Y-5987500D01*
X19512500Y-4475000D02*
X18887500Y-5100000D01*
X19512500Y-1500000D02*
X19512500Y-4475000D01*
X17900000Y-7412500D02*
X17912500Y-7400000D01*
X19400000Y-5100000D02*
X20800000Y-6500000D01*
X18887500Y-5100000D02*
X19400000Y-5100000D01*
X20800000Y-6500000D02*
X20800000Y-8800000D01*
X20800000Y-8800000D02*
X17900000Y-8800000D01*
X17900000Y-8800000D02*
X17900000Y-7412500D01*
X15687500Y-7400000D02*
X12700000Y-4412500D01*
X17912500Y-7400000D02*
X15687500Y-7400000D01*
X27400000Y-15787500D02*
X28700000Y-14487500D01*
X23500000Y-15787500D02*
X25412500Y-15787500D01*
X33912510Y-699990D02*
X33112500Y-1500000D01*
X40687490Y-699990D02*
X33912510Y-699990D01*
X41487500Y-1500000D02*
X40687490Y-699990D01*
X33112500Y-1500000D02*
X28087500Y-1500000D01*
X20312510Y-699990D02*
X19512500Y-1500000D01*
X27762490Y-699990D02*
X20312510Y-699990D01*
X28087500Y-1025000D02*
X27762490Y-699990D01*
X28087500Y-1500000D02*
X28087500Y-1025000D01*
X25287500Y-5100000D02*
X29312500Y-5100000D01*
X29312500Y-7925000D02*
X29500000Y-8112500D01*
X29312500Y-5100000D02*
X29312500Y-7925000D01*
X29000000Y-8612500D02*
X29500000Y-8112500D01*
X29312500Y-2725000D02*
X28087500Y-1500000D01*
X29312500Y-5100000D02*
X29312500Y-2725000D01*
X39600000Y-52512500D02*
X39600000Y-51840000D01*
X39600000Y-51840000D02*
X44450000Y-46990000D01*
X45332500Y-46990000D02*
X46232500Y-46090000D01*
X44450000Y-46990000D02*
X45332500Y-46990000D01*
X27987500Y-10187500D02*
X27987500Y-8612500D01*
X27987500Y-8612500D02*
X29000000Y-8612500D01*
X30000000Y-12200000D02*
X27987500Y-10187500D01*
X28700000Y-14487500D02*
X29987500Y-14487500D01*
X26600000Y-8612500D02*
X27987500Y-8612500D01*
X29987500Y-14487500D02*
X30000000Y-14475000D01*
X30000000Y-14475000D02*
X30000000Y-12200000D01*
X21387500Y-57500000D02*
X21600000Y-57500000D01*
X21600000Y-57500000D02*
X23100000Y-56000000D01*
X23100000Y-56000000D02*
X23100000Y-56000000D01*
X41400000Y-53700000D02*
X41400000Y-53700000D01*
X13912500Y-60300000D02*
X14712510Y-61100010D01*
X17456484Y-61100010D02*
X19956494Y-58600000D01*
X14712510Y-61100010D02*
X17456484Y-61100010D01*
X20287500Y-58600000D02*
X21387500Y-57500000D01*
X19956494Y-58600000D02*
X20287500Y-58600000D01*
X13912500Y-60300000D02*
X10600000Y-60300000D01*
X10600000Y-60300000D02*
X10000000Y-59700000D01*
X10000000Y-59700000D02*
X9400000Y-59100000D01*
X9400000Y-59100000D02*
X6700000Y-59100000D01*
X6700000Y-59100000D02*
X6200000Y-58600000D01*
X6200000Y-58600000D02*
X6200000Y-57400000D01*
X6200000Y-57400000D02*
X6200000Y-57400000D01*
X6312500Y-29087500D02*
X6375000Y-29087500D01*
X25412500Y-15787500D02*
X27400000Y-15787500D01*
G04 #@! TO.N,/NL07*
X33287500Y-52575000D02*
X34112500Y-53400000D01*
X33287500Y-51800000D02*
X33287500Y-52575000D01*
X37700000Y-48612500D02*
X39412500Y-46900000D01*
X37100000Y-48612500D02*
X37700000Y-48612500D01*
X37100000Y-48587500D02*
X33312500Y-44800000D01*
X37100000Y-48612500D02*
X37100000Y-48587500D01*
X29387500Y-44800000D02*
X29087500Y-44500000D01*
X33312500Y-44800000D02*
X29387500Y-44800000D01*
X40625000Y-42012500D02*
X41400000Y-42012500D01*
X43625000Y-42012500D02*
X44100000Y-42487500D01*
X41400000Y-42012500D02*
X43625000Y-42012500D01*
X41400000Y-38887500D02*
X42487500Y-37800000D01*
X41400000Y-42012500D02*
X41400000Y-38887500D01*
X11900000Y-60900000D02*
X8587500Y-60900000D01*
X34112500Y-53400000D02*
X34112500Y-54812500D01*
X34112500Y-54812500D02*
X34700000Y-55400000D01*
X38287500Y-55400000D02*
X39600000Y-54087500D01*
X34700000Y-55400000D02*
X38287500Y-55400000D01*
X39600000Y-54087500D02*
X40387500Y-54087500D01*
X40387500Y-54087500D02*
X41800000Y-55500000D01*
X41800000Y-55500000D02*
X43800000Y-55500000D01*
X43800000Y-55500000D02*
X44300000Y-55000000D01*
X44300000Y-54112500D02*
X42700000Y-52512500D01*
X44300000Y-55000000D02*
X44300000Y-54112500D01*
X7612500Y-36700000D02*
X6487500Y-36700000D01*
X27325000Y-35512500D02*
X28100000Y-36287500D01*
X24900000Y-35512500D02*
X27325000Y-35512500D01*
X18192500Y-61870000D02*
X19762500Y-60300000D01*
X11900000Y-60900000D02*
X12870000Y-61870000D01*
X12870000Y-61870000D02*
X18192500Y-61870000D01*
X19762500Y-60300000D02*
X21202500Y-58860000D01*
X21271494Y-58860000D02*
X21491494Y-58640000D01*
X21202500Y-58860000D02*
X21271494Y-58860000D01*
X21491494Y-58640000D02*
X24530000Y-58640000D01*
X24530000Y-55182500D02*
X26512500Y-53200000D01*
X24530000Y-58640000D02*
X24530000Y-55182500D01*
X31687500Y-43175000D02*
X33312500Y-44800000D01*
X31687500Y-39900000D02*
X31687500Y-43175000D01*
X12870000Y-61870000D02*
X12870000Y-61870000D01*
X4743750Y-34956250D02*
X4743750Y-36656250D01*
X4743750Y-34956250D02*
X3100000Y-33312500D01*
X6487500Y-36700000D02*
X4743750Y-34956250D01*
X4743750Y-36656250D02*
X4200000Y-37200000D01*
X4200000Y-37200000D02*
X4200000Y-37200000D01*
X23637510Y-40999990D02*
X25587490Y-40999990D01*
X23312500Y-41325000D02*
X23637510Y-40999990D01*
X25587490Y-40999990D02*
X29087500Y-44500000D01*
X23312500Y-41800000D02*
X23312500Y-41325000D01*
X23312500Y-37100000D02*
X23312500Y-41800000D01*
X24900000Y-35512500D02*
X23312500Y-37100000D01*
X40006250Y-41393750D02*
X38906250Y-41393750D01*
X40006250Y-41393750D02*
X40625000Y-42012500D01*
X38712500Y-40100000D02*
X40006250Y-41393750D01*
X38906250Y-41393750D02*
X37900000Y-42400000D01*
X39412500Y-46900000D02*
X38600000Y-46900000D01*
X38600000Y-46900000D02*
X36800000Y-45100000D01*
X37900000Y-42400000D02*
X37900000Y-42400000D01*
X36800000Y-45100000D02*
X36800000Y-45100000D01*
X27312510Y-54000010D02*
X26512500Y-53200000D01*
X34112500Y-53400000D02*
X33512490Y-54000010D01*
X30100010Y-53900030D02*
X30199990Y-54000010D01*
X30100010Y-51630010D02*
X30100010Y-53900030D01*
X30199990Y-54000010D02*
X27312510Y-54000010D01*
X33512490Y-54000010D02*
X30199990Y-54000010D01*
X29087500Y-44500000D02*
X29100000Y-44512500D01*
X29100000Y-50630000D02*
X30100010Y-51630010D01*
X29100000Y-44512500D02*
X29100000Y-50630000D01*
G04 #@! TO.N,/NL08*
X25225000Y-48587500D02*
X25600000Y-48212500D01*
X23000000Y-48587500D02*
X24412500Y-48587500D01*
X14512500Y-32875000D02*
X13687500Y-33700000D01*
X14512500Y-31200000D02*
X14512500Y-32875000D01*
X46712500Y-35600000D02*
X46400000Y-35912500D01*
X48000000Y-31587500D02*
X48000000Y-35600000D01*
X48000000Y-35600000D02*
X46712500Y-35600000D01*
X42800000Y-35912500D02*
X40912500Y-37800000D01*
X40912500Y-37800000D02*
X40912500Y-33812500D01*
X40912500Y-33812500D02*
X39900000Y-32800000D01*
X39900000Y-32800000D02*
X38500000Y-32800000D01*
X38500000Y-33012500D02*
X37312500Y-34200000D01*
X38500000Y-32800000D02*
X38500000Y-33012500D01*
X38600000Y-30412500D02*
X39612500Y-29400000D01*
X36700000Y-30412500D02*
X38600000Y-30412500D01*
X38500000Y-30512500D02*
X38600000Y-30412500D01*
X38500000Y-32800000D02*
X38500000Y-30512500D01*
X35800000Y-29512500D02*
X36700000Y-30412500D01*
X35800000Y-25687500D02*
X35800000Y-29512500D01*
X44000000Y-30112500D02*
X43200000Y-30912500D01*
X44000000Y-27587500D02*
X44000000Y-30112500D01*
X44100000Y-36000000D02*
X44012500Y-35912500D01*
X44100000Y-40912500D02*
X44100000Y-36000000D01*
X46400000Y-35912500D02*
X44012500Y-35912500D01*
X44012500Y-35912500D02*
X42800000Y-35912500D01*
X34475000Y-27012500D02*
X35800000Y-25687500D01*
X29000000Y-27012500D02*
X34475000Y-27012500D01*
X30512500Y-34000000D02*
X30556250Y-34043750D01*
X30512500Y-31800000D02*
X30512500Y-34000000D01*
X34112500Y-34200000D02*
X34112500Y-34200000D01*
X37312500Y-34200000D02*
X34112500Y-34200000D01*
X40200000Y-23012500D02*
X43412500Y-23012500D01*
X43412500Y-23012500D02*
X45900000Y-25500000D01*
X45900000Y-25500000D02*
X45900000Y-25500000D01*
X44112500Y-27700000D02*
X44000000Y-27587500D01*
X45900000Y-27700000D02*
X44112500Y-27700000D01*
X26512500Y-1500000D02*
X21087500Y-1500000D01*
X14012500Y-56200000D02*
X12400000Y-56200000D01*
X12400000Y-56200000D02*
X11900000Y-55700000D01*
X11900000Y-55700000D02*
X11900000Y-55700000D01*
X24412500Y-48587500D02*
X25225000Y-48587500D01*
X26512500Y-1500000D02*
X26512500Y-2612500D01*
X26512500Y-2612500D02*
X27000000Y-3100000D01*
X27000000Y-3100000D02*
X27000000Y-3100000D01*
X45900000Y-25500000D02*
X45900000Y-27700000D01*
X14512500Y-31200000D02*
X12200000Y-31200000D01*
X12200000Y-31200000D02*
X12200000Y-31200000D01*
X30556250Y-34043750D02*
X32412500Y-35900000D01*
X47325000Y-30912500D02*
X48000000Y-31587500D01*
X43200000Y-30912500D02*
X47325000Y-30912500D01*
X34112500Y-34200000D02*
X32412500Y-35900000D01*
G04 #@! TO.N,/NL09*
X3275000Y-54087500D02*
X1700000Y-52512500D01*
X4700000Y-54087500D02*
X3275000Y-54087500D01*
X9587490Y-54200010D02*
X10387500Y-53400000D01*
X4812510Y-54200010D02*
X9587490Y-54200010D01*
X4700000Y-54087500D02*
X4812510Y-54200010D01*
X11512500Y-52275000D02*
X10387500Y-53400000D01*
X11512500Y-51700000D02*
X11512500Y-52275000D01*
X5312500Y-48900000D02*
X1700000Y-52512500D01*
X9287500Y-49400000D02*
X8175000Y-48287500D01*
X5312500Y-46500000D02*
X5312500Y-48287500D01*
X5312500Y-48287500D02*
X5312500Y-48900000D01*
X9287500Y-47825000D02*
X12512500Y-44600000D01*
X9287500Y-49400000D02*
X9287500Y-47825000D01*
X10587500Y-53200000D02*
X10387500Y-53400000D01*
X15812500Y-53200000D02*
X10587500Y-53200000D01*
X15812500Y-53500000D02*
X19812500Y-57500000D01*
X15812500Y-53200000D02*
X15812500Y-53500000D01*
X19812500Y-56375000D02*
X22787500Y-53400000D01*
X19812500Y-57500000D02*
X19812500Y-56375000D01*
X25600000Y-49787500D02*
X21587500Y-49787500D01*
X21587500Y-49787500D02*
X21400000Y-49600000D01*
X21400000Y-49600000D02*
X21400000Y-46200000D01*
X22187500Y-46200000D02*
X23000000Y-47012500D01*
X21400000Y-46200000D02*
X22187500Y-46200000D01*
X20187500Y-46200000D02*
X19500000Y-45512500D01*
X21400000Y-46200000D02*
X20187500Y-46200000D01*
X4700000Y-58587500D02*
X7012500Y-60900000D01*
X4700000Y-54087500D02*
X4700000Y-58587500D01*
X17012500Y-60300000D02*
X19812500Y-57500000D01*
X15487500Y-60300000D02*
X17012500Y-60300000D01*
X7912500Y-43900000D02*
X7912500Y-48287500D01*
X6500000Y-42487500D02*
X7912500Y-43900000D01*
X8175000Y-48287500D02*
X7912500Y-48287500D01*
X7912500Y-48287500D02*
X5312500Y-48287500D01*
X8612500Y-40375000D02*
X6500000Y-42487500D01*
X8612500Y-39700000D02*
X8612500Y-40375000D01*
X22787500Y-52600000D02*
X25600000Y-49787500D01*
X22787500Y-53400000D02*
X22787500Y-52600000D01*
X25600000Y-50712500D02*
X28087500Y-53200000D01*
X25600000Y-49787500D02*
X25600000Y-50712500D01*
X9212500Y-63100000D02*
X19812500Y-63100000D01*
X7012500Y-60900000D02*
X9212500Y-63100000D01*
X18000000Y-40487500D02*
X18000000Y-40287500D01*
X18000000Y-44012500D02*
X19500000Y-45512500D01*
X18000000Y-40487500D02*
X18000000Y-44012500D01*
X1400000Y-39625000D02*
X1400000Y-42100000D01*
X6387500Y-42600000D02*
X6500000Y-42487500D01*
X3500000Y-39612500D02*
X1412500Y-39612500D01*
X1412500Y-39612500D02*
X1400000Y-39625000D01*
X2000000Y-42500000D02*
X6500000Y-42487500D01*
X1800000Y-42500000D02*
X1400000Y-42100000D01*
X2000000Y-42500000D02*
X1800000Y-42500000D01*
G04 #@! TO.N,/NL10*
X6225000Y-41187500D02*
X6500000Y-40912500D01*
X3500000Y-41187500D02*
X6225000Y-41187500D01*
X21500000Y-32012500D02*
X21287500Y-31800000D01*
X21500000Y-35212500D02*
X21500000Y-32012500D01*
X21287500Y-31800000D02*
X24912500Y-31800000D01*
X24900000Y-37087500D02*
X28543994Y-37087500D01*
X6500000Y-40912500D02*
X6500000Y-39600000D01*
X6500000Y-39600000D02*
X6500000Y-39600000D01*
X21487500Y-35200000D02*
X21500000Y-35212500D01*
X19300000Y-35200000D02*
X21487500Y-35200000D01*
X38887500Y-34200000D02*
X38887500Y-35712500D01*
X38700000Y-35900000D02*
X33987500Y-35900000D01*
X38887500Y-35712500D02*
X38700000Y-35900000D01*
X31900000Y-22912500D02*
X34112500Y-20700000D01*
X31900000Y-23512500D02*
X31900000Y-22912500D01*
X49425000Y-4412500D02*
X51000000Y-5987500D01*
X47500000Y-4412500D02*
X49425000Y-4412500D01*
X48700000Y-8287500D02*
X51000000Y-5987500D01*
X48700000Y-8512500D02*
X48700000Y-8287500D01*
X42612500Y-16400000D02*
X42612500Y-18100000D01*
X45512500Y-13500000D02*
X42612500Y-16400000D01*
X39912500Y-1500000D02*
X34687500Y-1500000D01*
X39912500Y-4400000D02*
X40612500Y-5100000D01*
X46600000Y-3512500D02*
X39912500Y-3512500D01*
X47500000Y-4412500D02*
X46600000Y-3512500D01*
X39912500Y-1500000D02*
X39912500Y-3512500D01*
X39912500Y-3512500D02*
X39912500Y-4400000D01*
X49512500Y-2400000D02*
X47500000Y-4412500D01*
X47482500Y-11530000D02*
X49820000Y-11530000D01*
X45512500Y-13500000D02*
X47482500Y-11530000D01*
X52500000Y-2400000D02*
X49512500Y-2400000D01*
X49820000Y-10040000D02*
X52500000Y-7360000D01*
X49820000Y-11530000D02*
X49820000Y-10040000D01*
X52500000Y-7360000D02*
X52500000Y-2400000D01*
X51610000Y-13320000D02*
X49820000Y-11530000D01*
X51610000Y-29302500D02*
X51610000Y-13320000D01*
X42612500Y-18100000D02*
X40850000Y-18100000D01*
X40850000Y-18100000D02*
X40850000Y-18100000D01*
X34082500Y-20730000D02*
X34112500Y-20700000D01*
X31780000Y-20730000D02*
X34082500Y-20730000D01*
X32800000Y-37087500D02*
X30932500Y-37087500D01*
X33987500Y-35900000D02*
X32800000Y-37087500D01*
X30932500Y-37087500D02*
X28543994Y-37087500D01*
X29500000Y-35500000D02*
X28100000Y-34712500D01*
X28912500Y-37087500D02*
X29500000Y-36500000D01*
X29500000Y-36500000D02*
X29500000Y-35500000D01*
G04 #@! TO.N,/NL11*
X10187500Y-37700000D02*
X9187500Y-36700000D01*
X10187500Y-39700000D02*
X10187500Y-37700000D01*
X9187500Y-36625000D02*
X12112500Y-33700000D01*
X9187500Y-36700000D02*
X9187500Y-36625000D01*
X3100000Y-34887500D02*
X1687500Y-34887500D01*
X1687500Y-34887500D02*
X1600000Y-34800000D01*
X1600000Y-34800000D02*
X1600000Y-32200000D01*
X1600000Y-32200000D02*
X2000000Y-31800000D01*
X7512500Y-31800000D02*
X8200000Y-32487500D01*
X2000000Y-31800000D02*
X7512500Y-31800000D01*
X10900000Y-32487500D02*
X12112500Y-33700000D01*
X8200000Y-32487500D02*
X10900000Y-32487500D01*
X2000000Y-29312500D02*
X2000000Y-31800000D01*
X3800000Y-27512500D02*
X2000000Y-29312500D01*
X5512500Y-21700000D02*
X5200000Y-22012500D01*
X7512500Y-21700000D02*
X5512500Y-21700000D01*
X3800000Y-23412500D02*
X3800000Y-23412500D01*
X5200000Y-22012500D02*
X3800000Y-23412500D01*
X6400000Y-27512500D02*
X8512500Y-25400000D01*
X3800000Y-27512500D02*
X6400000Y-27512500D01*
X14300000Y-27087500D02*
X12587500Y-28800000D01*
X14300000Y-24887500D02*
X14300000Y-27087500D01*
X13687500Y-28800000D02*
X16087500Y-31200000D01*
X12587500Y-28800000D02*
X13687500Y-28800000D01*
X8875000Y-16287500D02*
X10400000Y-17812500D01*
X8700000Y-16287500D02*
X8875000Y-16287500D01*
X11800000Y-17812500D02*
X12800000Y-16812500D01*
X10400000Y-17812500D02*
X11800000Y-17812500D01*
X17400000Y-16812500D02*
X17412500Y-16800000D01*
X12800000Y-16812500D02*
X17400000Y-16812500D01*
X16087500Y-31200000D02*
X16087500Y-33712500D01*
X16087500Y-33712500D02*
X14400000Y-35400000D01*
X14400000Y-35400000D02*
X12100000Y-35400000D01*
X12100000Y-33712500D02*
X12112500Y-33700000D01*
X12100000Y-35400000D02*
X12100000Y-33712500D01*
X10112500Y-58000000D02*
X9100000Y-58000000D01*
X9100000Y-58000000D02*
X8200000Y-57100000D01*
X10187500Y-39700000D02*
X10187500Y-41787500D01*
X10187500Y-41787500D02*
X10187500Y-41787500D01*
X8200000Y-57100000D02*
X8200000Y-57100000D01*
X10400000Y-17812500D02*
X8987500Y-17812500D01*
X8987500Y-17812500D02*
X8987500Y-17812500D01*
X20125000Y-36787500D02*
X18000000Y-38912500D01*
X21500000Y-36787500D02*
X20125000Y-36787500D01*
X10975000Y-38912500D02*
X10187500Y-39700000D01*
X18000000Y-38912500D02*
X10975000Y-38912500D01*
X14300000Y-24887500D02*
X12887500Y-24887500D01*
X12887500Y-24887500D02*
X12300000Y-24300000D01*
X12300000Y-24300000D02*
X12300000Y-21500000D01*
X16200000Y-21500000D02*
X17700000Y-23000000D01*
X17700000Y-23000000D02*
X17700000Y-24312500D01*
X12300000Y-21500000D02*
X16200000Y-21500000D01*
X3800000Y-23412500D02*
X3800000Y-27512500D01*
G04 #@! TD*
M02*
