M48
; DRILL file {KiCad 5.1.6-c6e7f7d~86~ubuntu18.04.1} date Thu Jun 18 14:31:03 2020
; FORMAT={3:3/ absolute / metric / suppress leading zeros}
; #@! TF.CreationDate,2020-06-18T14:31:03+02:00
; #@! TF.GenerationSoftware,Kicad,Pcbnew,5.1.6-c6e7f7d~86~ubuntu18.04.1
FMAT,2
METRIC,TZ
T1C0.400
T2C0.800
T3C1.000
%
G90
G05
T1
X2684Y-47884
X3800Y-23412
X4200Y-37200
X5300Y-72000
X5400Y-70900
X6200Y-57400
X6313Y-29088
X6500Y-39600
X7150Y-18050
X7600Y-51400
X8200Y-57100
X8987Y-17813
X10188Y-41788
X11900Y-55700
X12200Y-31200
X12800Y-46600
X12870Y-61870
X13264Y-7376
X13900Y-58400
X15313Y-18388
X15554Y-46066
X15862Y-3650
X16570Y-48960
X17200Y-57100
X19300Y-35200
X19300Y-53200
X19600Y-10188
X20000Y-27200
X20100Y-43500
X23100Y-56000
X23287Y-22013
X24412Y-48588
X24800Y-24000
X24973Y-10188
X25412Y-15788
X25460Y-57140
X25700Y-58500
X26500Y-64300
X26800Y-62300
X27000Y-3100
X27200Y-60200
X27900Y-40500
X29000Y-30500
X29600Y-66500
X29600Y-68800
X29600Y-70000
X30100Y-59500
X30556Y-34044
X30933Y-37088
X31100Y-14900
X31300Y-60700
X31780Y-20730
X32700Y-6200
X33200Y-71100
X33370Y-50160
X34113Y-34200
X35106Y-16094
X35249Y-7739
X35313Y-31988
X35800Y-10600
X36100Y-43588
X36800Y-45100
X36800Y-39300
X37113Y-18588
X37113Y-24188
X37800Y-57300
X37900Y-42400
X38100Y-61700
X38688Y-19388
X38700Y-26900
X39700Y-64300
X40850Y-18100
X41400Y-53700
X42000Y-69700
X42063Y-24588
X43050Y-44620
X43300Y-69700
X43800Y-61800
X44050Y-68050
X44200Y-65800
X44300Y-7200
X44700Y-48520
X44856Y-45256
X45200Y-55000
X45219Y-15369
X45600Y-65400
X45900Y-25500
X46000Y-63900
X46100Y-17600
X46300Y-57700
X46400Y-38760
X46800Y-51600
X48100Y-49600
X49373Y-41628
X49590Y-36000
X51830Y-47740
T2
X49500Y-57600
X49500Y-59600
X49500Y-61600
X49500Y-63600
X49500Y-65600
X49500Y-67600
X49500Y-69600
T3
X2500Y-60100
X2500Y-62640
X2500Y-65180
X2500Y-67720
X2500Y-70260
T0
M30
